<svg class="animated" id="freepik_stories-prototyping-process" xmlns="http://www.w3.org/2000/svg" viewBox="0 0 500 500" version="1.1" xmlns:xlink="http://www.w3.org/1999/xlink" xmlns:svgjs="http://svgjs.com/svgjs"><style>svg#freepik_stories-prototyping-process:not(.animated) .animable {opacity: 0;}svg#freepik_stories-prototyping-process.animated #freepik--Plants--inject-75 {animation: 1s 1 forwards cubic-bezier(.36,-0.01,.5,1.38) slideLeft;animation-delay: 0s;}svg#freepik_stories-prototyping-process.animated #freepik--Board--inject-75 {animation: 1s 1 forwards cubic-bezier(.36,-0.01,.5,1.38) slideDown,1.5s Infinite  linear floating;animation-delay: 0s,1s;}            @keyframes slideLeft {                0% {                    opacity: 0;                    transform: translateX(-30px);                }                100% {                    opacity: 1;                    transform: translateX(0);                }            }                    @keyframes slideDown {                0% {                    opacity: 0;                    transform: translateY(-30px);                }                100% {                    opacity: 1;                    transform: translateY(0);                }            }                    @keyframes floating {                0% {                    opacity: 1;                    transform: translateY(0px);                }                50% {                    transform: translateY(-10px);                }                100% {                    opacity: 1;                    transform: translateY(0px);                }            }        .animator-hidden { display: none; }</style><g id="freepik--Plants--inject-75" class="animable" style="transform-origin: 79.1366px 374.15px;"><path d="M40.93,283.3s1.86,3.53.21,6.84-3.73,6.63-2.49,8.29,5,3.73,4.56,7.25-5.39,10.57-2.28,14.51,8.29,3.73,8.5,8.08-5,7.87-3.53,11.81,10,4.77,10,7.46-3.32,5.6-.62,8.5S71,366.51,72.82,363.4s5.62-11.71,3.15-23.92c-.42-2.05-3.34-2.51-3.75-5.41s.83-8.08-1.24-11-8.71-3.94-9.12-6.22,2.48-7.87-.42-11.39S51.7,300.3,51.7,298s2.08-5.18-.82-8.29S40.93,283.3,40.93,283.3Z" style="fill: rgb(249, 135, 0); transform-origin: 57.5265px 323.718px;" id="el48nuhvbvjns" class="animable"></path><path d="M50.85,307.72c4.32,13,11.88,30.67,14.95,39.2,3.73,10.36,7,17.86,8.63,28.22S77,454.89,77,454.89" style="fill: none; stroke: rgb(38, 50, 56); stroke-linecap: round; stroke-linejoin: round; transform-origin: 63.925px 381.305px;" id="el2x5rsqi747" class="animable"></path><path d="M42,284.55s3.52,2.9,6.63,15.54c.2.81.43,1.67.68,2.58" style="fill: none; stroke: rgb(38, 50, 56); stroke-linecap: round; stroke-linejoin: round; transform-origin: 45.655px 293.61px;" id="eliuuoeoa7xhf" class="animable"></path><path d="M105.7,306.91a6.54,6.54,0,0,0-.16,5.48c1.32,2.65,3,5.3,2,6.63s-4,3-3.65,5.8,4.31,8.46,1.82,11.61-6.63,3-6.8,6.47,4,6.3,2.82,9.45-8,3.82-8,6,2.66,4.48.5,6.8S81.67,373.5,80.18,371s-4.49-9.37-2.52-19.14c.33-1.64,2.67-2,3-4.33s-.66-6.47,1-8.79,7-3.15,7.29-5-2-6.3.33-9.12,7.8-4.15,7.8-6-1.66-4.15.66-6.64S105.7,306.91,105.7,306.91Z" style="fill: rgb(249, 135, 0); transform-origin: 92.427px 339.253px;" id="elsasa255elb" class="animable"></path><path d="M97.76,326.45c-3.45,10.43-9.5,24.55-12,31.37-3,8.3-5.58,14.3-6.9,22.59s-2.05,63.82-2.05,63.82" style="fill: none; stroke: rgb(38, 50, 56); stroke-linecap: round; stroke-linejoin: round; transform-origin: 87.285px 385.34px;" id="elxfplfbsem1" class="animable"></path><path d="M104.87,307.91s-2.82,2.32-5.3,12.44c-.16.65-.35,1.34-.55,2.06" style="fill: none; stroke: rgb(38, 50, 56); stroke-linecap: round; stroke-linejoin: round; transform-origin: 101.945px 315.16px;" id="elu7shg03q3p" class="animable"></path><path d="M48.68,353.87a5.48,5.48,0,0,1,.14,4.57c-1.11,2.22-2.5,4.43-1.67,5.54s3.33,2.5,3.05,4.85-3.6,7.07-1.52,9.7,5.54,2.49,5.68,5.4S51,389.2,52,391.83s6.65,3.19,6.65,5-2.21,3.74-.41,5.68,10.51,7,11.76,4.92,3.76-7.83,2.1-16c-.27-1.37-2.22-1.68-2.5-3.62s.55-5.4-.83-7.34-5.82-2.63-6.1-4.16,1.66-5.26-.28-7.62-6.51-3.46-6.51-5,1.39-3.47-.55-5.55S48.68,353.87,48.68,353.87Z" style="fill: rgb(249, 135, 0); transform-origin: 59.7738px 380.896px;" id="el0pk60dp1uy2" class="animable"></path><path d="M55.31,370.2c2.89,8.71,7.94,20.5,10,26.2,2.5,6.93,4.67,12,5.77,18.87s1.72,32.64,1.72,32.64" style="fill: none; stroke: rgb(38, 50, 56); stroke-linecap: round; stroke-linejoin: round; transform-origin: 64.055px 409.055px;" id="el1ccwnoaxasc" class="animable"></path><path d="M49.37,354.7s2.36,1.94,4.43,10.39c.14.55.29,1.12.46,1.72" style="fill: none; stroke: rgb(38, 50, 56); stroke-linecap: round; stroke-linejoin: round; transform-origin: 51.815px 360.755px;" id="elvsvg2wf2tsi" class="animable"></path><path d="M120,350.42a5.45,5.45,0,0,0-1.18,4.42c.57,2.41,1.42,4.88.35,5.77s-3.8,1.67-4.07,4,1.89,7.7-.74,9.79-6,1.15-6.77,4,2,5.88.49,8.22-7.2,1.58-7.62,3.34,1.31,4.14-.89,5.62S87.77,400,87,397.67s-1.86-8.48,1.61-16.05c.59-1.27,2.56-1.12,3.27-2.95s.7-5.38,2.49-6.95,6.27-1.24,6.89-2.66-.42-5.5,2-7.35,7.13-1.88,7.48-3.37-.56-3.68,1.81-5.26S120,350.42,120,350.42Z" style="fill: rgb(249, 135, 0); transform-origin: 103.104px 374.479px;" id="elv8ebt14zask" class="animable"></path><path d="M109.85,364.79c-4.8,7.82-12.42,18.15-15.72,23.23-4,6.17-8.83,10.12-9.94,17.05s-1.71,32.64-1.71,32.64" style="fill: none; stroke: rgb(38, 50, 56); stroke-linecap: round; stroke-linejoin: round; transform-origin: 96.165px 401.25px;" id="elrzg6m3lzf4c" class="animable"></path><path d="M119.18,351.07s-2.74,1.35-6.69,9.1c-.26.5-.54,1-.85,1.57" style="fill: none; stroke: rgb(38, 50, 56); stroke-linecap: round; stroke-linejoin: round; transform-origin: 115.41px 356.405px;" id="elr38chshjf7" class="animable"></path><path d="M70.83,462.7H86.24c8.11-4.18,13.87-14.76,13.87-27.17a34.57,34.57,0,0,0-6.48-20.77H63.44A34.57,34.57,0,0,0,57,435.53C57,447.94,62.72,458.52,70.83,462.7Z" style="fill: rgb(255, 255, 255); stroke: rgb(38, 50, 56); stroke-linecap: round; stroke-linejoin: round; transform-origin: 78.5545px 438.73px;" id="elwow7hk3xq6a" class="animable"></path><rect x="70.83" y="462.7" width="15.69" height="2.3" style="fill: rgb(255, 255, 255); stroke: rgb(38, 50, 56); stroke-linecap: round; stroke-linejoin: round; transform-origin: 78.675px 463.85px;" id="el9a42v54vzkn" class="animable"></rect></g><g id="freepik--Board--inject-75" class="animable" style="transform-origin: 177.56px 171.1px;"><rect x="54.74" y="75" width="245.64" height="185.92" style="fill: none; stroke: rgb(38, 50, 56); stroke-linecap: round; stroke-linejoin: round; transform-origin: 177.56px 167.96px;" id="elb9yesit8je" class="animable"></rect><rect x="60.47" y="79.93" width="234.17" height="176.07" style="fill: none; stroke: rgb(38, 50, 56); stroke-linecap: round; stroke-linejoin: round; transform-origin: 177.555px 167.965px;" id="elkqzzeu81019" class="animable"></rect><path d="M131.85,105.77S93.59,103,90.37,109s-.93,115.7.92,117.08,53.47,2.3,58.54.46S148,113.14,148,109.91s-12-4.61-12-4.61" style="fill: none; stroke: rgb(38, 50, 56); stroke-linecap: round; stroke-linejoin: round; stroke-width: 2px; transform-origin: 120.224px 166.351px;" id="eljdlachzcv4" class="animable"></path><path d="M94.32,196.57c.08,14.46.39,25.06,1.12,25.35,2.3.92,51.16,5.07,52.54.46s-3.69-108.78-3.69-108.78" style="fill: none; stroke: rgb(38, 50, 56); stroke-linecap: round; stroke-linejoin: round; stroke-width: 2px; transform-origin: 121.269px 169.058px;" id="ela0ibfsxv2gn" class="animable"></path><path d="M142.45,113.14s-46.55-1.84-47,.46c-.3,1.47-1.15,44.66-1.14,76.06" style="fill: none; stroke: rgb(38, 50, 56); stroke-linecap: round; stroke-linejoin: round; stroke-width: 2px; transform-origin: 118.38px 151.052px;" id="elcv9sht0m98q" class="animable"></path><line x1="96.82" y1="121.44" x2="141.99" y2="121.44" style="fill: none; stroke: rgb(38, 50, 56); stroke-linecap: round; stroke-linejoin: round; stroke-width: 2px; transform-origin: 119.405px 121.44px;" id="elc6t9olmgjx4" class="animable"></line><path d="M137.84,119.35c-2.76,2.92,0,0,1.85-4.17s-1.85.83-6,4.17-1.84.84-.46-3.75-1.38,0-5.07,2.92-1.84,1.67-.46-3.34,0,0-5.53,3.34-2.77,3.33,0-1.67-1.84,0-6.91,1.67,0,0,1.84-4.59-3.23,1.25-6.91,3.75,0,0,.92-2.92-2.31.84-6,4.59,0,0,.46-3.34-4.15,5.43-4.15,5.43,1.38-8.35.46-6.26a18,18,0,0,1-2.31,3.75" style="fill: none; stroke: rgb(249, 135, 0); stroke-linecap: round; stroke-linejoin: round; stroke-width: 2px; transform-origin: 119.875px 116.831px;" id="elr3ex04b96a" class="animable"></path><rect x="99.12" y="129.27" width="22.59" height="23.51" style="fill: none; stroke: rgb(249, 135, 0); stroke-linecap: round; stroke-linejoin: round; stroke-width: 2px; transform-origin: 110.415px 141.025px;" id="elcy6r2ppisqj" class="animable"></rect><polyline points="103.73 129.27 100.05 133.42 107.88 130.66 100.05 138.03 112.95 129.73 100.05 143.56 117.56 130.66 99.12 147.71 121.25 132.5 99.12 152.78 121.25 138.03 105.58 151.86 121.71 143.1 111.57 151.4 121.25 148.17 119.4 151.4" style="fill: none; stroke: rgb(249, 135, 0); stroke-linecap: round; stroke-linejoin: round; stroke-width: 2px; transform-origin: 110.415px 141.025px;" id="elo3dpx3erjs" class="animable"></polyline><rect x="123.91" y="201.18" width="17.27" height="17.98" style="fill: none; stroke: rgb(249, 135, 0); stroke-linecap: round; stroke-linejoin: round; stroke-width: 2px; transform-origin: 132.545px 210.17px;" id="elgw4d0pvh0bi" class="animable"></rect><polyline points="127.43 201.18 124.61 204.35 130.6 202.24 124.61 207.88 134.48 201.53 124.61 212.11 138 202.24 123.91 215.28 140.82 203.65 123.91 219.16 140.82 207.88 128.84 218.45 141.18 211.75 133.42 218.1 140.82 215.63 139.41 218.1" style="fill: none; stroke: rgb(249, 135, 0); stroke-linecap: round; stroke-linejoin: round; stroke-width: 2px; transform-origin: 132.545px 210.17px;" id="el0a2rhsds5i37" class="animable"></polyline><line x1="98.66" y1="161.54" x2="142.91" y2="161.54" style="fill: none; stroke: rgb(38, 50, 56); stroke-linecap: round; stroke-linejoin: round; stroke-width: 2px; transform-origin: 120.785px 161.54px;" id="el3jep410c4qw" class="animable"></line><line x1="98.2" y1="165.69" x2="141.99" y2="166.15" style="fill: none; stroke: rgb(38, 50, 56); stroke-linecap: round; stroke-linejoin: round; stroke-width: 2px; transform-origin: 120.095px 165.92px;" id="el03dhr2u399xx" class="animable"></line><line x1="126.32" y1="130.66" x2="140.61" y2="130.66" style="fill: none; stroke: rgb(38, 50, 56); stroke-linecap: round; stroke-linejoin: round; stroke-width: 2px; transform-origin: 133.465px 130.66px;" id="elghlwkut07o8" class="animable"></line><line x1="126.32" y1="136.19" x2="140.61" y2="136.19" style="fill: none; stroke: rgb(38, 50, 56); stroke-linecap: round; stroke-linejoin: round; stroke-width: 2px; transform-origin: 133.465px 136.19px;" id="el54udusjl5yc" class="animable"></line><line x1="126.32" y1="141.72" x2="140.61" y2="141.72" style="fill: none; stroke: rgb(38, 50, 56); stroke-linecap: round; stroke-linejoin: round; stroke-width: 2px; transform-origin: 133.465px 141.72px;" id="elkeeen6ycef" class="animable"></line><line x1="126.32" y1="147.25" x2="140.61" y2="147.25" style="fill: none; stroke: rgb(38, 50, 56); stroke-linecap: round; stroke-linejoin: round; stroke-width: 2px; transform-origin: 133.465px 147.25px;" id="elg2hvrejjfd5" class="animable"></line><rect x="99.12" y="168.45" width="42.87" height="20.74" style="fill: none; stroke: rgb(249, 135, 0); stroke-linecap: round; stroke-linejoin: round; stroke-width: 2px; transform-origin: 120.555px 178.82px;" id="eldamprytaiiw" class="animable"></rect><polyline points="98.66 172.6 104.65 168.91 97.74 179.51 109.26 168.91 99.12 184.13 117.1 168.45 101.43 186.89 120.79 168.91 106.04 186.89 127.24 168.45 110.19 188.73 131.39 168.91 115.26 187.81 136.92 168.45 120.33 188.73 141.99 168.45 126.32 188.27 141.07 175.37 131.39 187.35 141.07 180.9 139.17 183.98 137.38 186.89" style="fill: none; stroke: rgb(249, 135, 0); stroke-linecap: round; stroke-linejoin: round; stroke-width: 2px; transform-origin: 119.865px 178.59px;" id="elfnblodb0eqq" class="animable"></polyline><line x1="100.97" y1="194.73" x2="140.61" y2="194.73" style="fill: none; stroke: rgb(38, 50, 56); stroke-linecap: round; stroke-linejoin: round; stroke-width: 2px; transform-origin: 120.79px 194.73px;" id="elie2nwua0vpi" class="animable"></line><line x1="100.05" y1="199.8" x2="112.95" y2="199.8" style="fill: none; stroke: rgb(38, 50, 56); stroke-linecap: round; stroke-linejoin: round; stroke-width: 2px; transform-origin: 106.5px 199.8px;" id="ele1ws0jh4mrn" class="animable"></line><line x1="149.83" y1="115.91" x2="181.47" y2="112.02" style="fill: none; stroke: rgb(38, 50, 56); stroke-linecap: round; stroke-linejoin: round; stroke-width: 2px; transform-origin: 165.65px 113.965px;" id="el4rcz16tq3i" class="animable"></line><line x1="144.76" y1="138.49" x2="177.94" y2="138.49" style="fill: none; stroke: rgb(38, 50, 56); stroke-linecap: round; stroke-linejoin: round; stroke-width: 2px; transform-origin: 161.35px 138.49px;" id="elqaweazkq2er" class="animable"></line><line x1="92.21" y1="180.44" x2="77.92" y2="185.51" style="fill: none; stroke: rgb(38, 50, 56); stroke-linecap: round; stroke-linejoin: round; stroke-width: 2px; transform-origin: 85.065px 182.975px;" id="elskw3f9h3h7" class="animable"></line><path d="M132.77,222.38s-2.76,14.29,16.13,18" style="fill: none; stroke: rgb(38, 50, 56); stroke-linecap: round; stroke-linejoin: round; stroke-width: 2px; transform-origin: 140.764px 231.38px;" id="el3igoqjf9b0r" class="animable"></path><polyline points="146.14 236.67 150.75 240.82 144.29 242.66" style="fill: none; stroke: rgb(38, 50, 56); stroke-linecap: round; stroke-linejoin: round; stroke-width: 2px; transform-origin: 147.52px 239.665px;" id="el0bnq07ouw6j" class="animable"></polyline><polyline points="173.79 134.34 181.17 138.95 174.72 141.72" style="fill: none; stroke: rgb(38, 50, 56); stroke-linecap: round; stroke-linejoin: round; stroke-width: 2px; transform-origin: 177.48px 138.03px;" id="elxm61q8o3uue" class="animable"></polyline><polyline points="175.48 110.64 183.31 111.56 177.78 116.63" style="fill: none; stroke: rgb(38, 50, 56); stroke-linecap: round; stroke-linejoin: round; stroke-width: 2px; transform-origin: 179.395px 113.635px;" id="el2g9jm76q7qr" class="animable"></polyline><polyline points="79.76 180.9 71.93 187.35 81.61 187.81" style="fill: none; stroke: rgb(38, 50, 56); stroke-linecap: round; stroke-linejoin: round; stroke-width: 2px; transform-origin: 76.77px 184.355px;" id="eln1nz7whkdi" class="animable"></polyline><rect x="183.47" y="134.34" width="17.52" height="18.44" style="fill: rgb(249, 135, 0); transform-origin: 192.23px 143.56px;" id="eltu2428pnfno" class="animable"></rect><line x1="187.62" y1="138.49" x2="197.76" y2="138.95" style="fill: none; stroke: rgb(38, 50, 56); stroke-linecap: round; stroke-linejoin: round; stroke-width: 2px; transform-origin: 192.69px 138.72px;" id="elkx3z7xmhj1" class="animable"></line><line x1="187.62" y1="142.18" x2="197.76" y2="142.64" style="fill: none; stroke: rgb(38, 50, 56); stroke-linecap: round; stroke-linejoin: round; stroke-width: 2px; transform-origin: 192.69px 142.41px;" id="elmyis4m0pgmj" class="animable"></line><line x1="187.62" y1="145.87" x2="197.76" y2="146.33" style="fill: none; stroke: rgb(38, 50, 56); stroke-linecap: round; stroke-linejoin: round; stroke-width: 2px; transform-origin: 192.69px 146.1px;" id="elyosk5b9e9zc" class="animable"></line><g id="el8pd5jb4bkvm"><rect x="156.74" y="160.16" width="17.52" height="18.44" style="fill: rgb(249, 135, 0); transform-origin: 165.5px 169.38px; transform: rotate(-6.73deg);" class="animable"></rect></g><line x1="160.33" y1="164.88" x2="170.45" y2="164.15" style="fill: none; stroke: rgb(38, 50, 56); stroke-linecap: round; stroke-linejoin: round; stroke-width: 2px; transform-origin: 165.39px 164.515px;" id="el1z1jzzzakxz" class="animable"></line><line x1="160.76" y1="168.54" x2="170.88" y2="167.81" style="fill: none; stroke: rgb(38, 50, 56); stroke-linecap: round; stroke-linejoin: round; stroke-width: 2px; transform-origin: 165.82px 168.175px;" id="el4swcqtclrwt" class="animable"></line><line x1="161.19" y1="172.2" x2="171.32" y2="171.47" style="fill: none; stroke: rgb(38, 50, 56); stroke-linecap: round; stroke-linejoin: round; stroke-width: 2px; transform-origin: 166.255px 171.835px;" id="elra9gscvl67g" class="animable"></line><g id="el2px2x5phfzl"><rect x="65.94" y="191.5" width="17.52" height="18.44" style="fill: rgb(249, 135, 0); transform-origin: 74.7px 200.72px; transform: rotate(-6.73deg);" class="animable"></rect></g><line x1="69.52" y1="196.22" x2="79.65" y2="195.49" style="fill: none; stroke: rgb(38, 50, 56); stroke-linecap: round; stroke-linejoin: round; stroke-width: 2px; transform-origin: 74.585px 195.855px;" id="eloxr1ccs4dq8" class="animable"></line><line x1="69.95" y1="199.89" x2="80.08" y2="199.16" style="fill: none; stroke: rgb(38, 50, 56); stroke-linecap: round; stroke-linejoin: round; stroke-width: 2px; transform-origin: 75.015px 199.525px;" id="elr9jpfm4hl4i" class="animable"></line><line x1="70.39" y1="203.55" x2="80.51" y2="202.82" style="fill: none; stroke: rgb(38, 50, 56); stroke-linecap: round; stroke-linejoin: round; stroke-width: 2px; transform-origin: 75.45px 203.185px;" id="el5p41hjkej7x" class="animable"></line><g id="elubn0q9c9eb"><rect x="154.44" y="227.91" width="17.52" height="18.44" style="fill: rgb(249, 135, 0); transform-origin: 163.2px 237.13px; transform: rotate(6.07deg);" class="animable"></rect></g><line x1="159.15" y1="231.6" x2="169.18" y2="233.13" style="fill: none; stroke: rgb(38, 50, 56); stroke-linecap: round; stroke-linejoin: round; stroke-width: 2px; transform-origin: 164.165px 232.365px;" id="eliebqft0dep" class="animable"></line><line x1="158.76" y1="235.27" x2="168.79" y2="236.8" style="fill: none; stroke: rgb(38, 50, 56); stroke-linecap: round; stroke-linejoin: round; stroke-width: 2px; transform-origin: 163.775px 236.035px;" id="eln2rwctcioqj" class="animable"></line><line x1="158.37" y1="238.94" x2="168.4" y2="240.47" style="fill: none; stroke: rgb(38, 50, 56); stroke-linecap: round; stroke-linejoin: round; stroke-width: 2px; transform-origin: 163.385px 239.705px;" id="elfaf10omc6a" class="animable"></line><rect x="54.74" y="260.92" width="245.63" height="6.28" style="fill: rgb(38, 50, 56); stroke: rgb(38, 50, 56); stroke-linecap: round; stroke-linejoin: round; transform-origin: 177.555px 264.06px;" id="el3usng3q80pb" class="animable"></rect></g><g id="freepik--Device--inject-75" class="animable" style="transform-origin: 381.205px 257.14px;"><path d="M398.94,305.93V294.21H363.67v11.72a16.73,16.73,0,0,1-3.75,10.54l-1.54,1.91h45.85l-1.54-1.91A16.73,16.73,0,0,1,398.94,305.93Z" style="fill: rgb(38, 50, 56); stroke: rgb(38, 50, 56); stroke-linecap: round; stroke-linejoin: round; transform-origin: 381.305px 306.295px;" id="eled20t5e9gva" class="animable"></path><path d="M396.94,305.93V294.21H361.67v11.72a16.73,16.73,0,0,1-3.75,10.54l-1.54,1.91h45.85l-1.54-1.91A16.73,16.73,0,0,1,396.94,305.93Z" style="fill: rgb(255, 255, 255); stroke: rgb(38, 50, 56); stroke-linecap: round; stroke-linejoin: round; transform-origin: 379.305px 306.295px;" id="elrjn9gse71ns" class="animable"></path><rect x="361.81" y="297.52" width="35.41" height="3.59" style="fill: rgb(38, 50, 56); transform-origin: 379.515px 299.315px;" id="elpbxn0iogvsh" class="animable"></rect><rect x="308.42" y="193.81" width="141.76" height="104.09" rx="8.48" style="fill: rgb(38, 50, 56); stroke: rgb(38, 50, 56); stroke-linecap: round; stroke-linejoin: round; transform-origin: 379.3px 245.855px;" id="el9xv04ucsfdl" class="animable"></rect><rect x="312.23" y="193.81" width="141.76" height="104.09" rx="8.48" style="fill: rgb(38, 50, 56); stroke: rgb(38, 50, 56); stroke-linecap: round; stroke-linejoin: round; transform-origin: 383.11px 245.855px;" id="elayjpo5mqjgb" class="animable"></rect><path d="M308.42,281.72H450.19a0,0,0,0,1,0,0v7.7a8.48,8.48,0,0,1-8.48,8.48H316.91a8.48,8.48,0,0,1-8.48-8.48v-7.7A0,0,0,0,1,308.42,281.72Z" style="fill: rgb(255, 255, 255); stroke: rgb(38, 50, 56); stroke-linecap: round; stroke-linejoin: round; transform-origin: 379.305px 289.81px;" id="el3dxng7y0kk2" class="animable"></path><rect x="315.55" y="200.29" width="127.5" height="73.54" style="fill: rgb(255, 255, 255); transform-origin: 379.3px 237.06px;" id="elbhqlz70ozaa" class="animable"></rect><rect x="331.8" y="207.95" width="31.16" height="57.88" rx="3.04" style="fill: rgb(38, 50, 56); transform-origin: 347.38px 236.89px;" id="elw7wlegg46as" class="animable"></rect><rect x="334.42" y="212.8" width="25.93" height="48.16" style="fill: rgb(249, 135, 0); transform-origin: 347.385px 236.88px;" id="elrio7dxhzbw9" class="animable"></rect><rect x="371.06" y="213.61" width="23.47" height="2.43" style="fill: rgb(38, 50, 56); transform-origin: 382.795px 214.825px;" id="elumywfw0nzf" class="animable"></rect><rect x="371.47" y="218.88" width="10.93" height="11.33" style="fill: rgb(249, 135, 0); transform-origin: 376.935px 224.545px;" id="els9tq5easxzb" class="animable"></rect><rect x="387.06" y="253.68" width="5.85" height="6.07" style="fill: rgb(249, 135, 0); transform-origin: 389.985px 256.715px;" id="eltm5i6eegq4f" class="animable"></rect><rect x="371.74" y="238.3" width="22.26" height="11.33" style="fill: rgb(249, 135, 0); transform-origin: 382.87px 243.965px;" id="elol3siwonyy" class="animable"></rect><line x1="384.42" y1="219.69" x2="393.32" y2="219.69" style="fill: none; stroke: rgb(38, 50, 56); stroke-linecap: round; stroke-linejoin: round; transform-origin: 388.87px 219.69px;" id="elcui1vr4q4wc" class="animable"></line><line x1="384.42" y1="222.52" x2="393.32" y2="222.52" style="fill: none; stroke: rgb(38, 50, 56); stroke-linecap: round; stroke-linejoin: round; transform-origin: 388.87px 222.52px;" id="el1nsxtd75egf" class="animable"></line><line x1="384.42" y1="225.35" x2="393.32" y2="225.35" style="fill: none; stroke: rgb(38, 50, 56); stroke-linecap: round; stroke-linejoin: round; transform-origin: 388.87px 225.35px;" id="el6r1kc7anvc9" class="animable"></line><line x1="384.42" y1="228.18" x2="393.32" y2="228.18" style="fill: none; stroke: rgb(38, 50, 56); stroke-linecap: round; stroke-linejoin: round; transform-origin: 388.87px 228.18px;" id="elxspwh0a9889" class="animable"></line><line x1="372.14" y1="234.66" x2="393.59" y2="234.66" style="fill: none; stroke: rgb(38, 50, 56); stroke-linecap: round; stroke-linejoin: round; transform-origin: 382.865px 234.66px;" id="elfo6s86burn8" class="animable"></line><line x1="372.14" y1="252.47" x2="393.59" y2="252.47" style="fill: none; stroke: rgb(38, 50, 56); stroke-linecap: round; stroke-linejoin: round; transform-origin: 382.865px 252.47px;" id="elj2doiqjhzff" class="animable"></line><rect x="369.04" y="211.19" width="27.52" height="51" style="fill: none; stroke: rgb(38, 50, 56); stroke-linecap: round; stroke-linejoin: round; transform-origin: 382.8px 236.69px;" id="eljv3nd2xh1g" class="animable"></rect><rect x="404.25" y="211.19" width="25.9" height="19.02" style="fill: rgb(191, 191, 191); transform-origin: 417.2px 220.7px;" id="el6fbmynhsh72" class="animable"></rect><rect x="404.25" y="211.19" width="25.9" height="4.05" style="fill: rgb(38, 50, 56); transform-origin: 417.2px 213.215px;" id="elj7srgbzqocj" class="animable"></rect><rect x="406.26" y="218.18" width="6.77" height="6.55" style="fill: none; stroke: rgb(38, 50, 56); stroke-linecap: round; stroke-linejoin: round; transform-origin: 409.645px 221.455px;" id="elk61036z7p3d" class="animable"></rect><rect x="419.8" y="218.18" width="6.77" height="6.55" style="fill: none; stroke: rgb(38, 50, 56); stroke-linecap: round; stroke-linejoin: round; transform-origin: 423.185px 221.455px;" id="elj0besayf5y" class="animable"></rect><path d="M427.66,213.49a1,1,0,1,1-1-1A1,1,0,0,1,427.66,213.49Z" style="fill: rgb(255, 255, 255); transform-origin: 426.66px 213.49px;" id="eloviak7ujphq" class="animable"></path><circle cx="421.98" cy="213.49" r="0.98" style="fill: rgb(255, 255, 255); transform-origin: 421.98px 213.49px;" id="elqsxknk9ksfm" class="animable"></circle><rect x="408.25" y="240.52" width="19.83" height="14.57" style="fill: rgb(191, 191, 191); transform-origin: 418.165px 247.805px;" id="eljm5l3zurec" class="animable"></rect><rect x="408.25" y="240.52" width="19.83" height="3.1" style="fill: rgb(38, 50, 56); transform-origin: 418.165px 242.07px;" id="elxxhr8tjhbdg" class="animable"></rect><path d="M426.18,242.28a.76.76,0,1,1-.76-.75A.76.76,0,0,1,426.18,242.28Z" style="fill: rgb(255, 255, 255); transform-origin: 425.42px 242.29px;" id="ele0jl4ju4s8r" class="animable"></path><path d="M422.58,242.28a.75.75,0,1,1-1.5,0,.75.75,0,0,1,1.5,0Z" style="fill: rgb(255, 255, 255); transform-origin: 421.83px 242.28px;" id="elhllhj7v7q6c" class="animable"></path><rect x="319.75" y="204.15" width="8.33" height="65.33" style="fill: rgb(191, 191, 191); transform-origin: 323.915px 236.815px;" id="el1h800fp4pqr" class="animable"></rect><rect x="319.75" y="204.15" width="8.33" height="3" style="fill: rgb(38, 50, 56); transform-origin: 323.915px 205.65px;" id="el55baqrmr0mt" class="animable"></rect><rect x="321.75" y="209.15" width="4" height="4.67" style="fill: none; stroke: rgb(38, 50, 56); stroke-linecap: round; stroke-linejoin: round; transform-origin: 323.75px 211.485px;" id="elho1z7dnnar" class="animable"></rect><rect x="321.75" y="216.81" width="4" height="4.67" style="fill: none; stroke: rgb(38, 50, 56); stroke-linecap: round; stroke-linejoin: round; transform-origin: 323.75px 219.145px;" id="elzdsy2z4931p" class="animable"></rect><rect x="321.75" y="224.48" width="4" height="4.67" style="fill: none; stroke: rgb(38, 50, 56); stroke-linecap: round; stroke-linejoin: round; transform-origin: 323.75px 226.815px;" id="elhylj58we7et" class="animable"></rect><rect x="321.75" y="232.15" width="4" height="4.67" style="fill: none; stroke: rgb(38, 50, 56); stroke-linecap: round; stroke-linejoin: round; transform-origin: 323.75px 234.485px;" id="ele4f0qr3y4z4" class="animable"></rect><rect x="321.75" y="239.81" width="4" height="4.67" style="fill: none; stroke: rgb(38, 50, 56); stroke-linecap: round; stroke-linejoin: round; transform-origin: 323.75px 242.145px;" id="elq8o8dqiawgh" class="animable"></rect><rect x="321.75" y="247.48" width="4" height="4.67" style="fill: none; stroke: rgb(38, 50, 56); stroke-linecap: round; stroke-linejoin: round; transform-origin: 323.75px 249.815px;" id="el30haj0444jh" class="animable"></rect><rect x="321.75" y="255.15" width="4" height="4.67" style="fill: none; stroke: rgb(38, 50, 56); stroke-linecap: round; stroke-linejoin: round; transform-origin: 323.75px 257.485px;" id="elrezllewx5pr" class="animable"></rect><rect x="321.75" y="262.81" width="4" height="4.67" style="fill: none; stroke: rgb(38, 50, 56); stroke-linecap: round; stroke-linejoin: round; transform-origin: 323.75px 265.145px;" id="el66jdhjx3vek" class="animable"></rect><rect x="333.42" y="203.48" width="106" height="2.67" style="fill: rgb(191, 191, 191); transform-origin: 386.42px 204.815px;" id="elynazn9as7v" class="animable"></rect><rect x="333.42" y="268.15" width="106" height="2.67" style="fill: rgb(191, 191, 191); transform-origin: 386.42px 269.485px;" id="eltn2rse6iz5n" class="animable"></rect><rect x="356.38" y="318.38" width="45.86" height="2.09" style="fill: rgb(38, 50, 56); stroke: rgb(38, 50, 56); stroke-linecap: round; stroke-linejoin: round; transform-origin: 379.31px 319.425px;" id="el5admhdeo3fx" class="animable"></rect><rect x="325.75" y="316.67" width="106.47" height="3.8" style="fill: rgb(255, 255, 255); stroke: rgb(38, 50, 56); stroke-linecap: round; stroke-linejoin: round; transform-origin: 378.985px 318.57px;" id="el9bdrza8qza" class="animable"></rect></g><g id="freepik--Desk--inject-75" class="animable" style="transform-origin: 348.735px 392.5px;"><polygon points="230.34 465 226.01 465 223.84 332.33 232.51 332.33 230.34 465" style="fill: rgb(255, 255, 255); stroke: rgb(38, 50, 56); stroke-linecap: round; stroke-linejoin: round; transform-origin: 228.175px 398.665px;" id="elms5zexedu6o" class="animable"></polygon><polygon points="230.34 465 228.43 465 228.69 332.33 232.51 332.33 230.34 465" style="fill: rgb(38, 50, 56); stroke: rgb(38, 50, 56); stroke-linecap: round; stroke-linejoin: round; transform-origin: 230.47px 398.665px;" id="elu2cp5bn782" class="animable"></polygon><polygon points="292.07 465 287.74 465 285.57 332.33 294.24 332.33 292.07 465" style="fill: rgb(255, 255, 255); stroke: rgb(38, 50, 56); stroke-linecap: round; stroke-linejoin: round; transform-origin: 289.905px 398.665px;" id="el3tu4yrfvp3p" class="animable"></polygon><polygon points="292.07 465 290.16 465 290.42 332.33 294.24 332.33 292.07 465" style="fill: rgb(38, 50, 56); stroke: rgb(38, 50, 56); stroke-linecap: round; stroke-linejoin: round; transform-origin: 292.2px 398.665px;" id="elu8rj3jqokpd" class="animable"></polygon><polygon points="269.97 465 265.63 465 263.47 332.33 272.13 332.33 269.97 465" style="fill: rgb(38, 50, 56); stroke: rgb(38, 50, 56); stroke-linecap: round; stroke-linejoin: round; transform-origin: 267.8px 398.665px;" id="eloy5b58msa9i" class="animable"></polygon><polygon points="269.97 465 268.06 465 268.31 332.33 272.13 332.33 269.97 465" style="fill: rgb(38, 50, 56); stroke: rgb(38, 50, 56); stroke-linecap: round; stroke-linejoin: round; transform-origin: 270.095px 398.665px;" id="elqgsoat68bik" class="animable"></polygon><polygon points="311.68 465 307.34 465 305.18 332.33 313.84 332.33 311.68 465" style="fill: rgb(38, 50, 56); stroke: rgb(38, 50, 56); stroke-linecap: round; stroke-linejoin: round; transform-origin: 309.51px 398.665px;" id="elirjar8mkxlk" class="animable"></polygon><polygon points="311.68 465 309.76 465 310.02 332.33 313.84 332.33 311.68 465" style="fill: rgb(38, 50, 56); stroke: rgb(38, 50, 56); stroke-linecap: round; stroke-linejoin: round; transform-origin: 311.8px 398.665px;" id="ellir7t3bhkjf" class="animable"></polygon><rect x="246.95" y="334.36" width="67.98" height="83" style="fill: rgb(38, 50, 56); stroke: rgb(38, 50, 56); stroke-linecap: round; stroke-linejoin: round; transform-origin: 280.94px 375.86px;" id="el86v31g37b6x" class="animable"></rect><rect x="228.18" y="334.36" width="67.98" height="83" style="fill: rgb(255, 255, 255); stroke: rgb(38, 50, 56); stroke-linecap: round; stroke-linejoin: round; transform-origin: 262.17px 375.86px;" id="elhcksj59ifb4" class="animable"></rect><polygon points="433.46 465 429.13 465 426.96 332.33 435.63 332.33 433.46 465" style="fill: rgb(255, 255, 255); stroke: rgb(38, 50, 56); stroke-linecap: round; stroke-linejoin: round; transform-origin: 431.295px 398.665px;" id="el0o90auzbnm1" class="animable"></polygon><polygon points="433.46 465 431.55 465 431.81 332.33 435.63 332.33 433.46 465" style="fill: rgb(38, 50, 56); stroke: rgb(38, 50, 56); stroke-linecap: round; stroke-linejoin: round; transform-origin: 433.59px 398.665px;" id="elzy5j01i5imd" class="animable"></polygon><polygon points="473.09 465 468.75 465 466.59 332.33 475.25 332.33 473.09 465" style="fill: rgb(38, 50, 56); stroke: rgb(38, 50, 56); stroke-linecap: round; stroke-linejoin: round; transform-origin: 470.92px 398.665px;" id="elxau3e2rmu8h" class="animable"></polygon><polygon points="473.09 465 471.18 465 471.43 332.33 475.25 332.33 473.09 465" style="fill: rgb(38, 50, 56); stroke: rgb(38, 50, 56); stroke-linecap: round; stroke-linejoin: round; transform-origin: 473.215px 398.665px;" id="el1zt56suwofej" class="animable"></polygon><rect x="218.13" y="327.33" width="259.86" height="9.13" style="fill: rgb(255, 255, 255); stroke: rgb(38, 50, 56); stroke-linecap: round; stroke-linejoin: round; transform-origin: 348.06px 331.895px;" id="elzcivi6igvpk" class="animable"></rect><rect x="218.13" y="327.33" width="259.86" height="4.56" style="fill: rgb(38, 50, 56); stroke: rgb(38, 50, 56); stroke-linecap: round; stroke-linejoin: round; transform-origin: 348.06px 329.61px;" id="elonnez2o6pbb" class="animable"></rect><rect x="439.63" y="327.33" width="38.36" height="9.13" style="fill: rgb(38, 50, 56); stroke: rgb(38, 50, 56); stroke-linecap: round; stroke-linejoin: round; transform-origin: 458.81px 331.895px;" id="eleb84rbyv3zs" class="animable"></rect><rect x="211.08" y="320" width="275.31" height="9.13" style="fill: rgb(255, 255, 255); stroke: rgb(38, 50, 56); stroke-linecap: round; stroke-linejoin: round; transform-origin: 348.735px 324.565px;" id="eltkanbwhnjjc" class="animable"></rect><rect x="448.03" y="320" width="38.36" height="9.13" style="fill: rgb(38, 50, 56); stroke: rgb(38, 50, 56); stroke-linecap: round; stroke-linejoin: round; transform-origin: 467.21px 324.565px;" id="elnhbvutu6p8" class="animable"></rect><rect x="232.5" y="342.33" width="59.5" height="29" style="fill: rgb(255, 255, 255); stroke: rgb(38, 50, 56); stroke-linecap: round; stroke-linejoin: round; transform-origin: 262.25px 356.83px;" id="el7x5dvcx1vjp" class="animable"></rect><rect x="255.75" y="353.83" width="13" height="4.5" style="fill: rgb(38, 50, 56); stroke: rgb(38, 50, 56); stroke-linecap: round; stroke-linejoin: round; transform-origin: 262.25px 356.08px;" id="ela2di9hxunwp" class="animable"></rect><rect x="232.5" y="378.83" width="59.5" height="29" style="fill: rgb(255, 255, 255); stroke: rgb(38, 50, 56); stroke-linecap: round; stroke-linejoin: round; transform-origin: 262.25px 393.33px;" id="elo0yjwi0wam" class="animable"></rect><rect x="255.75" y="390.33" width="13" height="4.5" style="fill: rgb(38, 50, 56); stroke: rgb(38, 50, 56); stroke-linecap: round; stroke-linejoin: round; transform-origin: 262.25px 392.58px;" id="elon46kozfzyb" class="animable"></rect></g><g id="freepik--Chair--inject-75" class="animable" style="transform-origin: 392.925px 356.768px;"><g id="elb47fuo6ucf"><rect x="383.6" y="351.71" width="17.78" height="35.76" style="fill: rgb(38, 50, 56); transform-origin: 392.49px 369.59px; transform: rotate(180deg);" class="animable"></rect></g><g id="eln4flg0a05u"><rect x="388.04" y="374.77" width="8.89" height="49.52" style="fill: rgb(38, 50, 56); transform-origin: 392.485px 399.53px; transform: rotate(180deg);" class="animable"></rect></g><path d="M396.1,420.48s7.47,8.48,26.67,11.43c10.14,1.56,20.7,3.5,29.86,8.35,5.89,3.12,17.62,9.95,17.62,17.75a7,7,0,1,1-12.08-4.76,33.07,33.07,0,0,0-20.71-14.05c-14.6-3.18-25.26-1.88-45.8-15.54Z" style="fill: rgb(38, 50, 56); transform-origin: 430.955px 442.773px;" id="el240si2itajr" class="animable"></path><path d="M389.75,420.48s-7.47,8.48-26.67,11.43c-10.14,1.56-20.7,3.5-29.86,8.35-5.9,3.12-17.62,9.95-17.62,17.75a7,7,0,1,0,12.07-4.76,33.1,33.1,0,0,1,20.71-14.05c14.61-3.18,25.27-1.88,45.81-15.54Z" style="fill: rgb(38, 50, 56); transform-origin: 354.895px 442.778px;" id="el71pxe1c2w3d" class="animable"></path><g id="el5ipnhfrjo3j"><rect x="388.79" y="451.88" width="8.03" height="13.12" rx="0.66" style="fill: rgb(38, 50, 56); transform-origin: 392.805px 458.44px; transform: rotate(180deg);" class="animable"></rect></g><g id="elpfv4gz5u5e"><rect x="390.9" y="421.67" width="3.81" height="43.33" style="fill: rgb(38, 50, 56); transform-origin: 392.805px 443.335px; transform: rotate(180deg);" class="animable"></rect></g><path d="M435.54,248.46a243.09,243.09,0,0,0-4,35.86c-.29,9.28-.44,17.23-.58,24.24-.42,21.79-.66,33.87-4.09,37.12-.44.3-3.28,2.05-9.22,2.55-1.66.14-6.94.21-14.12.25-22.77-.07-46.7-.26-47.08-.26h-1.39c-.06,0-.11.11-.16.16-13.68-.08-17.2-.16-17.45-.16h-1.39c-2.87,2.49-1.16,5.69,1.34,5.71,1.87,0,34.46.29,56.75.29,3.94,0,7.65,0,10.94,0l15.06,0c11.67,0,21.34-.08,24-.3,8.25-.68,11.95-3.47,12.34-3.79,5.5-4.88,5.71-15.59,6.22-41.45.13-7,.29-14.94.57-24.18a237.9,237.9,0,0,1,4.1-36Z" style="fill: rgb(38, 50, 56); transform-origin: 400.972px 301.34px;" id="eluzqudns8sz" class="animable"></path></g><g id="freepik--Character--inject-75" class="animable" style="transform-origin: 232.844px 275.035px;"><path d="M258.75,435.17,261,446.92s-2,4.25-9.75,7.75-11.5,5-11.5,6-.5,3.25,1.5,4,44.5,0,44.5,0,2.25-1,2.25-5.75-2-13.5-2-15.5-1.41-6.82-1.41-7.5-17.09.25-17.09.25S262.5,431.42,258.75,435.17Z" style="fill: rgb(255, 255, 255); stroke: rgb(38, 50, 56); stroke-linecap: round; stroke-linejoin: round; transform-origin: 263.847px 449.366px;" id="elskaaehg6oud" class="animable"></path><path d="M267.5,436.17s1.25,11.25,2,12,16.5.75,16.5.75" style="fill: rgb(255, 255, 255); stroke: rgb(38, 50, 56); stroke-linecap: round; stroke-linejoin: round; transform-origin: 276.75px 442.545px;" id="elorhlufzhi3c" class="animable"></path><line x1="286" y1="443.42" x2="268.5" y2="443.67" style="fill: rgb(255, 255, 255); stroke: rgb(38, 50, 56); stroke-linecap: round; stroke-linejoin: round; transform-origin: 277.25px 443.545px;" id="el7j7tpgxv8ly" class="animable"></line><line x1="239.75" y1="462.67" x2="287.5" y2="462.67" style="fill: rgb(255, 255, 255); stroke: rgb(38, 50, 56); stroke-linecap: round; stroke-linejoin: round; transform-origin: 263.625px 462.67px;" id="el4kaeh48bqcx" class="animable"></line><path d="M290,294.25s-13.86,46.66-15.56,53.09,8.12,62.89,8.12,63.9,1.35,4.06,1.35,7.44-1.35,4.39-.67,5.41,3,3.38,2.7,5.41a5.93,5.93,0,0,1-2,4.06,6.5,6.5,0,0,1-2.7,1.69h-8.12s-2-15.22-7.44-55.45,3.39-63.23,5.08-70.67a64.1,64.1,0,0,1,5.07-13.86Z" style="fill: rgb(38, 50, 56); stroke: rgb(38, 50, 56); stroke-linecap: round; stroke-linejoin: round; transform-origin: 276.965px 364.75px;" id="el20zspwfy8oe" class="animable"></path><path d="M247.25,435.17l2.25,11.75s-2,4.25-9.75,7.75-11.5,5-11.5,6-.5,3.25,1.5,4,44.5,0,44.5,0,2.25-1,2.25-5.75-2-13.5-2-15.5-1.41-6.82-1.41-7.5-17.09.25-17.09.25S251,431.42,247.25,435.17Z" style="fill: rgb(255, 255, 255); stroke: rgb(38, 50, 56); stroke-linecap: round; stroke-linejoin: round; transform-origin: 252.347px 449.366px;" id="el3bgeuuowl9g" class="animable"></path><path d="M256,436.17s1.25,11.25,2,12,16.5.75,16.5.75" style="fill: rgb(255, 255, 255); stroke: rgb(38, 50, 56); stroke-linecap: round; stroke-linejoin: round; transform-origin: 265.25px 442.545px;" id="elwmia00e7nj" class="animable"></path><line x1="274.5" y1="443.42" x2="257" y2="443.67" style="fill: rgb(255, 255, 255); stroke: rgb(38, 50, 56); stroke-linecap: round; stroke-linejoin: round; transform-origin: 265.75px 443.545px;" id="elj51pak77ebe" class="animable"></line><line x1="228.25" y1="462.67" x2="276" y2="462.67" style="fill: rgb(255, 255, 255); stroke: rgb(38, 50, 56); stroke-linecap: round; stroke-linejoin: round; transform-origin: 252.125px 462.67px;" id="elphlnun5hd4h" class="animable"></line><path d="M234.21,294.25s-.34,29.42,1.35,41.93,8.12,41.59,9.13,57.48S247.4,417,247.4,417,245,419,245,421s1.35,2,1,5.08-1.69,4.05-.67,5.41,1.69,4.05,5.07,4.73,19.27.34,22.65-.34,5.07-4.06,5.07-6.76-1-4.73-1-7.78,1.69-5.74,1.69-7.77-.68-3.05-.68-5.08-4.39-34.48-4.39-41.24-.34-29.76.67-35.51,6.09-33.13,6.09-33.13Z" style="fill: rgb(249, 135, 0); stroke: rgb(38, 50, 56); stroke-linecap: round; stroke-linejoin: round; transform-origin: 257.341px 365.42px;" id="elfy6zdi6qjn" class="animable"></path><path d="M255.64,304.17a46.24,46.24,0,0,0,12.44,2.43,74.63,74.63,0,0,1,9.72.91l1.82-8.5Z" style="fill: rgb(38, 50, 56); stroke: rgb(38, 50, 56); stroke-linecap: round; stroke-linejoin: round; transform-origin: 267.63px 303.26px;" id="el9ch5jipwn6" class="animable"></path><path d="M251.93,305.63s1.66,46.46,5,61.95,7.74,40.93,6.64,44.25-2.77,11.06-2.77,11.06,6.09-1.1,6.09,2.21-8.85,5.54-6.64,7.2,4.41,3.48,4.41,3.48" style="fill: none; stroke: rgb(38, 50, 56); stroke-linecap: round; stroke-linejoin: round; transform-origin: 259.41px 370.705px;" id="ela7n3osrg2tb" class="animable"></path><path d="M271.58,424.37s-18.36,3-13.15,4,15.14-.25,15.64-1.49S273.07,424.12,271.58,424.37Z" style="fill: rgb(38, 50, 56); stroke: rgb(38, 50, 56); stroke-linecap: round; stroke-linejoin: round; transform-origin: 265.834px 426.538px;" id="elhqua3q55i4t" class="animable"></path><polygon points="190.54 103.15 190.03 123.91 209.61 123.74 209.78 102.98 190.54 103.15" style="fill: rgb(249, 135, 0); transform-origin: 199.905px 113.445px;" id="eloy5md6vrfi" class="animable"></polygon><path d="M212.82,141.46s-4.22-4.22-6.08-8.1-4.55-6.24-4.55-8.94,1.18-9,.67-11.48,0-7.76,1.69-7.76a2.6,2.6,0,0,1,2.53,3.2c-.34,1.69,1,7.6,1,7.6s1.35-11.31,1.52-12,2.53-.68,3.55-.17,2.19.33,2.19,2.53-.51,4.72-.51,5.23,4.73,3.21,4.9,5.23-.34,6.92-1.52,9a21,21,0,0,0-2,4c-.17.67,4.56,7.76,4.56,7.76Z" style="fill: rgb(255, 255, 255); stroke: rgb(38, 50, 56); stroke-linecap: round; stroke-linejoin: round; transform-origin: 211.48px 122.451px;" id="elh83m8gr73js" class="animable"></path><path d="M220.69,134.33l-11.5,8.79S228.8,183.69,229.48,185s14.87,10.15,14.87,10.15l21.3-26.38s-26.71-8.45-27.38-9.46S220.69,134.33,220.69,134.33Z" style="fill: rgb(38, 50, 56); stroke: rgb(38, 50, 56); stroke-linecap: round; stroke-linejoin: round; transform-origin: 237.42px 164.74px;" id="el7muqdjwtxlo" class="animable"></path><path d="M234.25,283.42l-1,15.75s13,5.5,27,5.25S293,298.67,293,298.67l2.75-15.5s-33.75,2.75-44,1.75S234.25,283.42,234.25,283.42Z" style="fill: rgb(255, 255, 255); stroke: rgb(38, 50, 56); stroke-linecap: round; stroke-linejoin: round; transform-origin: 264.5px 293.799px;" id="ell1arc2izlql" class="animable"></path><path d="M224.25,278.42l-.75,4.5s10.59,5.78,34,8a109.92,109.92,0,0,0,42.75-4.5l.25-7.75a165.1,165.1,0,0,1-38,4.5A197.65,197.65,0,0,1,224.25,278.42Z" style="fill: rgb(38, 50, 56); stroke: rgb(38, 50, 56); stroke-linecap: round; stroke-linejoin: round; transform-origin: 262px 284.902px;" id="eljr0tyk2ojwr" class="animable"></path><path d="M243.25,185.42s-8.25,14.5-11,25.75-8.25,63.25-9,66.25,16.75,9,28.25,9.25,37.25.75,41.75-1,8.75-4.25,8.75-7,.25-13,.25-21.25-2.5-51.75-4.75-61.75-3.75-17-4.5-18.25-6.25-7.25-17.5-6.5a60.36,60.36,0,0,0-25,7.5A25.89,25.89,0,0,0,243.25,185.42Z" style="fill: rgb(38, 50, 56); stroke: rgb(38, 50, 56); stroke-linecap: round; stroke-linejoin: round; transform-origin: 262.738px 228.894px;" id="elsb5ehesu45k" class="animable"></path><path d="M167.85,201.58s-4.06,1.69-4.4,5.75,7.11,8.11,11.5,14.2S185.09,234,185.09,234l8.8,12.17,10.48-8.79L177.32,206s1.35-3-.34-4.06A11.84,11.84,0,0,0,167.85,201.58Z" style="fill: rgb(255, 255, 255); stroke: rgb(38, 50, 56); stroke-linecap: round; stroke-linejoin: round; transform-origin: 183.904px 223.502px;" id="elh75jvut1see" class="animable"></path><path d="M168.53,211.05,199,200.9s2,8.46,11.15,17.25a150.19,150.19,0,0,0,17.59,14.54l-27.39,15.55Z" style="fill: rgb(255, 255, 255); stroke: rgb(38, 50, 56); stroke-linecap: round; stroke-linejoin: round; transform-origin: 198.135px 224.57px;" id="elzjv3vjcqnto" class="animable"></path><path d="M168.53,211.05a9.48,9.48,0,0,0,2.36-5.41,3.77,3.77,0,0,0-3-4.06l30.09-8.79s5.75,2,1,8.11Z" style="fill: rgb(255, 255, 255); stroke: rgb(38, 50, 56); stroke-linecap: round; stroke-linejoin: round; transform-origin: 184.375px 201.92px;" id="el05gnhnx7jtrg" class="animable"></path><path d="M208.85,243.2s-6.76-1-7.1-3-1.69-6.42-3-8.11-7.78-5.07-9.81-7.44-3.38-5.75-4.73-5.41-3.38,1.69-2.71,3,3.72,7.11,3.72,7.11l.68,2.36s-6.09-1-7.1-1.35a1.87,1.87,0,0,0-2.37,2c0,1.69-1.35,1.69.34,2.7s3.72,2.37,3.72,2.37,2.37,5.41,3,6.42,6.09,3.39,7.1,4.06,6.43,2.37,9.13,3,8.79,3.05,8.79,3.05l1.69-7.78Z" style="fill: rgb(255, 255, 255); stroke: rgb(38, 50, 56); stroke-linecap: round; stroke-linejoin: round; transform-origin: 193.06px 236.588px;" id="elk3qledox31" class="animable"></path><path d="M280.53,196.54s-.68,28.74-.68,30.09,1,29.08-2,31.44-17.92,5.41-39.56,4.74-31.11-5.41-31.11-5.41l1.69-14.2,41.25-3s-4.39-31.44-3.72-42.26,9.47-16.57,9.47-16.57" style="fill: rgb(38, 50, 56); stroke: rgb(38, 50, 56); stroke-linecap: round; stroke-linejoin: round; transform-origin: 243.855px 222.137px;" id="elgxaj7p4vhte" class="animable"></path><path d="M235,264.07s40.94,1.43,43.1-3.6,2.15-54.59,2.15-54.59" style="fill: none; stroke: rgb(112, 112, 112); stroke-linecap: round; stroke-linejoin: round; transform-origin: 257.625px 235.069px;" id="elq7g64k0swc" class="animable"></path><path d="M253,187.2s-8.63,9.34-7.19,21.55,4.32,31.4,4.32,31.4l-15.81.93" style="fill: none; stroke: rgb(112, 112, 112); stroke-linecap: round; stroke-linejoin: round; transform-origin: 243.66px 214.14px;" id="elxo0dgra49q" class="animable"></path><path d="M235.53,109.12s-5.67,9.81-4.58,11.11.22,3.71.22,3.71-5.67,4.36-5.23,5.88,5,5.67,5,5.67.87,11.77,2,12.86,8.5,2.39,10,2.61a8.59,8.59,0,0,1,2.4.66l4.35,23.53,24.41-22-3.92-10.46s-2.18-14-2-20.48-11.12-14.39-17.87-16.35S235.53,109.12,235.53,109.12Z" style="fill: rgb(255, 255, 255); stroke: rgb(38, 50, 56); stroke-linecap: round; stroke-linejoin: round; transform-origin: 250.008px 140.285px;" id="elhp680797h4" class="animable"></path><path d="M240.1,95.82s-5.66-5.88-12.42-1.3-4.79,12,1.31,14.6,13.29.65,10.9,3.27-3,8.28.65,9.37,3.05,5.23,3.05,7,3,1.53,3.71,0,2.39-5.66,6.53-3.92,3.93,11.33,2.4,13.73-3.05,2.18-3.05,2.18,2.4.87.87,3.7l-1.52,2.84s3.48,4.14,12.2,2.61,10.68-5.45,9.37-8.71-4.36-3.71-1.09-8.5,11.34-10.47,10.68-21.36c-.43-7.19-17.43-14-17.43-14s3.92-6.54-5-10.68-19.17.66-18.52,5S240.1,95.82,240.1,95.82Z" style="fill: rgb(38, 50, 56); stroke: rgb(38, 50, 56); stroke-linecap: round; stroke-linejoin: round; transform-origin: 253.582px 117.653px;" id="el18e07e6hwh7k" class="animable"></path><path d="M230.89,119.45s-2.77-.74-3,.57,0,7.84,0,7.84a4.77,4.77,0,0,0,3.27.66c1.53-.44.65-5.89.65-5.89" style="fill: none; stroke: rgb(38, 50, 56); stroke-linecap: round; stroke-linejoin: round; transform-origin: 229.925px 123.911px;" id="elcnfj5h81f6d" class="animable"></path><polyline points="248.17 126.77 228.1 123.45 228.12 122.19 248.17 126.77" style="fill: rgb(38, 50, 56); stroke: rgb(38, 50, 56); stroke-linecap: round; stroke-linejoin: round; transform-origin: 238.135px 124.48px;" id="eldwqmzia94k" class="animable"></polyline><path d="M276.94,146.39s-11.12,8.06-18.75,16.34S241.41,180.17,241,183s.43,7.19,4.79,2.61,12.42-10.67,18.53-11.11,15.47,2.62,20.26,3.27,7.85,2,9.59-.65-2.83-8.5-2.83-11.56.65-8.28-1.53-12S280.64,145.3,276.94,146.39Z" style="fill: rgb(117, 117, 117); stroke: rgb(38, 50, 56); stroke-linecap: round; stroke-linejoin: round; transform-origin: 267.736px 166.915px;" id="el8v7qeph5syo" class="animable"></path><path d="M291.18,157.18a30.78,30.78,0,0,1-2.52,6.1c-1.27,1.89-19.14,5.47-19.14,5.47s14.72-.84,17.45-.84,5.89,2.52,5.89,2.52l-1.47-4S292,159.08,291.18,157.18Z" style="fill: rgb(38, 50, 56); stroke: rgb(38, 50, 56); stroke-linecap: round; stroke-linejoin: round; transform-origin: 281.19px 163.805px;" id="el3ujvdpaskzt" class="animable"></path></g><g id="freepik--Floor--inject-75" class="animable animator-hidden" style="transform-origin: 260.5px 465px;"><line x1="32" y1="465" x2="489" y2="465" style="fill: none; stroke: rgb(38, 50, 56); stroke-linecap: round; stroke-linejoin: round; transform-origin: 260.5px 465px;" id="elbr3wd2fnqup" class="animable"></line></g><defs>     <filter id="active" height="200%">         <feMorphology in="SourceAlpha" result="DILATED" operator="dilate" radius="2"></feMorphology>                <feFlood flood-color="#32DFEC" flood-opacity="1" result="PINK"></feFlood>        <feComposite in="PINK" in2="DILATED" operator="in" result="OUTLINE"></feComposite>        <feMerge>            <feMergeNode in="OUTLINE"></feMergeNode>            <feMergeNode in="SourceGraphic"></feMergeNode>        </feMerge>    </filter>    <filter id="hover" height="200%">        <feMorphology in="SourceAlpha" result="DILATED" operator="dilate" radius="2"></feMorphology>                <feFlood flood-color="#ff0000" flood-opacity="0.5" result="PINK"></feFlood>        <feComposite in="PINK" in2="DILATED" operator="in" result="OUTLINE"></feComposite>        <feMerge>            <feMergeNode in="OUTLINE"></feMergeNode>            <feMergeNode in="SourceGraphic"></feMergeNode>        </feMerge>            <feColorMatrix type="matrix" values="0   0   0   0   0                0   1   0   0   0                0   0   0   0   0                0   0   0   1   0 "></feColorMatrix>    </filter></defs></svg>