<svg class="animated" id="freepik_stories-conversion-rate-optimization" xmlns="http://www.w3.org/2000/svg" viewBox="0 0 750 500" version="1.1" xmlns:xlink="http://www.w3.org/1999/xlink" xmlns:svgjs="http://svgjs.com/svgjs"><style>svg#freepik_stories-conversion-rate-optimization:not(.animated) .animable {opacity: 0;}svg#freepik_stories-conversion-rate-optimization.animated #freepik--Device--inject-31 {animation: 1.5s Infinite  linear floating;animation-delay: 0s;}            @keyframes floating {                0% {                    opacity: 1;                    transform: translateY(0px);                }                50% {                    transform: translateY(-10px);                }                100% {                    opacity: 1;                    transform: translateY(0px);                }            }        .animator-hidden { display: none; }</style><g id="freepik--background-complete--inject-31" class="animable animator-active" style="transform-origin: 375.788px 256.064px;"><polygon points="601.46 63.35 682.58 52.07 675.14 133.01 601.46 63.35" style="fill: rgb(245, 245, 245); transform-origin: 642.02px 92.54px;" id="elm9ieirutqja" class="animable"></polygon><g id="el1f9bsq5v35t"><rect x="558.42" y="65.59" width="46.18" height="186.75" style="fill: rgb(245, 245, 245); transform-origin: 581.51px 158.965px; transform: rotate(43.39deg);" class="animable"></rect></g><polygon points="675.1 170.8 715.95 165.12 712.2 205.88 675.1 170.8" style="fill: rgb(245, 245, 245); transform-origin: 695.525px 185.5px;" id="elo54ovris3z" class="animable"></polygon><g id="elc4q9z2g3d2h"><rect x="653.43" y="171.93" width="23.25" height="94.04" style="fill: rgb(245, 245, 245); transform-origin: 665.055px 218.95px; transform: rotate(43.39deg);" class="animable"></rect></g><polygon points="93.53 222.75 134.38 217.07 130.63 257.82 93.53 222.75" style="fill: rgb(245, 245, 245); transform-origin: 113.955px 237.445px;" id="elcfzdrb5ez8e" class="animable"></polygon><g id="el6thywgnh3n"><rect x="71.86" y="223.88" width="23.25" height="94.04" style="fill: rgb(245, 245, 245); transform-origin: 83.485px 270.9px; transform: rotate(43.39deg);" class="animable"></rect></g><g id="elaphy4enlyki"><rect x="107.92" y="246.62" width="46.18" height="228.85" style="fill: rgb(245, 245, 245); transform-origin: 131.01px 361.045px; transform: rotate(43.39deg);" class="animable"></rect></g><path d="M154.5,112.9a44.24,44.24,0,1,1-50.13-37.32A44.19,44.19,0,0,1,154.5,112.9Z" style="fill: rgb(245, 245, 245); transform-origin: 110.734px 119.357px;" id="elssdvnhho15p" class="animable"></path><path d="M144.08,114.41A33.72,33.72,0,1,1,105.88,86,33.68,33.68,0,0,1,144.08,114.41Z" style="fill: rgb(235, 235, 235); transform-origin: 110.727px 119.367px;" id="el4jr5afc1xkd" class="animable"></path><path d="M143.92,113.37c-.2,0-.55-1.41-1.46-3.89a35.67,35.67,0,0,0-5.34-9.67,34.5,34.5,0,0,0-5.3-5.42,34.06,34.06,0,0,0-7.36-4.55,33.41,33.41,0,0,0-9.17-2.64,32.28,32.28,0,0,0-5-.29,35.32,35.32,0,0,0-5.18.5,36.53,36.53,0,0,0-5,1.31,33.7,33.7,0,0,0-4.63,2,32,32,0,0,0-4.13,2.6,31.14,31.14,0,0,0-3.57,3,33.67,33.67,0,0,0-5.34,6.82,34.07,34.07,0,0,0-3.11,6.91A35.56,35.56,0,0,0,77.57,121c0,2.64.16,4.12,0,4.15s-.65-1.39-1-4.1a31.18,31.18,0,0,1,.92-11.47A33.69,33.69,0,0,1,86,94.69a34.36,34.36,0,0,1,8.18-6.18,33.43,33.43,0,0,1,5-2.21,36.09,36.09,0,0,1,5.43-1.43,38,38,0,0,1,5.59-.53,34.86,34.86,0,0,1,5.44.36,33,33,0,0,1,5.13,1.16,32.16,32.16,0,0,1,4.69,1.83,33.68,33.68,0,0,1,13.12,11,31.21,31.21,0,0,1,4.83,10.46C144.05,111.83,144.07,113.34,143.92,113.37Z" style="fill: rgb(224, 224, 224); transform-origin: 110.197px 104.744px;" id="elozqnukqty8" class="animable"></path><path d="M117.38,138.61l.93,5.8-5.17.83-.91-5.65c-5.17.51-10.35-.3-13.55-2.07l1.83-6.78a21.07,21.07,0,0,0,10.64,2.07l-1.39-8.65c-6-.47-12.69-1.36-13.88-8.76-.88-5.49,2.35-10.84,10.38-13.08l-.92-5.75,5.18-.83.91,5.64a23.67,23.67,0,0,1,11,1.48l-1.57,6.78a21.47,21.47,0,0,0-8.35-1.42l1.41,8.8c6,.43,12.58,1.33,13.75,8.63C128.55,131,125.36,136.33,117.38,138.61Zm-8.84-22.06-1.17-7.35c-2.65,1.06-3.49,2.74-3.22,4.45S106.15,116.2,108.54,116.55Zm10.91,11.06c-.29-1.82-2-2.56-4.3-3l1.14,7.15C118.79,130.79,119.71,129.26,119.45,127.61Z" style="fill: rgb(224, 224, 224); transform-origin: 111.776px 120.49px;" id="elep2tkakb5nt" class="animable"></path><path d="M697,370.14a44.24,44.24,0,1,1-50.13-37.32A44.2,44.2,0,0,1,697,370.14Z" style="fill: rgb(245, 245, 245); transform-origin: 653.234px 376.597px;" id="elt7iz2boylj" class="animable"></path><path d="M686.58,371.65a33.72,33.72,0,1,1-38.2-28.43A33.68,33.68,0,0,1,686.58,371.65Z" style="fill: rgb(235, 235, 235); transform-origin: 653.224px 376.588px;" id="elpwsniogefpt" class="animable"></path><path d="M686.42,370.61c-.2,0-.56-1.41-1.46-3.88a35.8,35.8,0,0,0-5.34-9.67,34.5,34.5,0,0,0-5.3-5.42,33.7,33.7,0,0,0-7.36-4.56,32.37,32.37,0,0,0-4.4-1.62,30.56,30.56,0,0,0-4.77-1,32.27,32.27,0,0,0-5-.3,36.6,36.6,0,0,0-5.18.5,36.16,36.16,0,0,0-5,1.31,32.56,32.56,0,0,0-4.63,2,30.66,30.66,0,0,0-4.13,2.59,31.21,31.21,0,0,0-3.57,3,34,34,0,0,0-5.35,6.81,35.21,35.21,0,0,0-3.11,6.91,35.89,35.89,0,0,0-1.67,10.91c0,2.64.16,4.12,0,4.15s-.65-1.39-1-4.09a31.49,31.49,0,0,1,.93-11.48,33.8,33.8,0,0,1,8.52-14.89,33,33,0,0,1,3.78-3.33,33.64,33.64,0,0,1,4.41-2.85,34.49,34.49,0,0,1,5-2.21,38.29,38.29,0,0,1,5.43-1.43,36.67,36.67,0,0,1,5.59-.52,34.86,34.86,0,0,1,5.44.35,33.75,33.75,0,0,1,5.12,1.16,32.4,32.4,0,0,1,4.69,1.83,33.84,33.84,0,0,1,13.13,11,31.29,31.29,0,0,1,4.83,10.46C686.55,369.08,686.57,370.58,686.42,370.61Z" style="fill: rgb(224, 224, 224); transform-origin: 652.742px 361.938px;" id="el8mfz8qtxqun" class="animable"></path><path d="M659.88,395.85l.93,5.8-5.18.83-.9-5.64c-5.17.51-10.35-.31-13.55-2.08L643,388a21.29,21.29,0,0,0,10.64,2.07l-1.39-8.65c-6-.48-12.7-1.37-13.88-8.77-.88-5.49,2.35-10.84,10.38-13.08l-.92-5.75L653,353l.9,5.65a23.82,23.82,0,0,1,11,1.47l-1.57,6.79a21.49,21.49,0,0,0-8.35-1.43l1.41,8.8c6,.43,12.58,1.33,13.75,8.63C671,388.28,667.85,393.57,659.88,395.85ZM651,373.8l-1.18-7.35c-2.64,1.06-3.49,2.73-3.21,4.44S648.65,373.44,651,373.8ZM662,384.85c-.29-1.81-2-2.55-4.3-3l1.14,7.15C661.29,388,662.21,386.51,662,384.85Z" style="fill: rgb(224, 224, 224); transform-origin: 654.253px 377.74px;" id="elbn2dbugh3tv" class="animable"></path></g><g id="freepik--Floor--inject-31" class="animable animator-hidden" style="transform-origin: 375px 468.81px;"><path d="M713.38,468.81c0,.14-151.51.26-338.36.26s-338.4-.12-338.4-.26,151.48-.26,338.4-.26S713.38,468.66,713.38,468.81Z" style="fill: rgb(38, 50, 56); transform-origin: 375px 468.81px;" id="ell0awi70m718" class="animable"></path></g><g id="freepik--coins-2--inject-31" class="animable" style="transform-origin: 604.4px 379.82px;"><rect x="571.06" y="371.42" width="82.81" height="16.7" style="fill: rgb(249, 135, 0); transform-origin: 612.465px 379.77px;" id="eluyic4qeeg0a" class="animable"></rect><path d="M576.38,371.7c.2,0,.36,3.62.36,8.09s-.16,8.1-.36,8.1-.36-3.62-.36-8.1S576.18,371.7,576.38,371.7Z" style="fill: rgb(38, 50, 56); transform-origin: 576.38px 379.795px;" id="elc55w1e8789j" class="animable"></path><path d="M584.06,371.7c.2,0,.36,3.62.36,8.09s-.16,8.1-.36,8.1-.36-3.62-.36-8.1S583.86,371.7,584.06,371.7Z" style="fill: rgb(38, 50, 56); transform-origin: 584.06px 379.795px;" id="elpcedyh326m" class="animable"></path><path d="M591.65,371.7c.2,0,.36,3.62.36,8.09s-.16,8.1-.36,8.1-.36-3.62-.36-8.1S591.45,371.7,591.65,371.7Z" style="fill: rgb(38, 50, 56); transform-origin: 591.65px 379.795px;" id="el8r2ssuthv7" class="animable"></path><path d="M599.19,371.7c.2,0,.36,3.62.36,8.09s-.16,8.1-.36,8.1-.35-3.62-.35-8.1S599,371.7,599.19,371.7Z" style="fill: rgb(38, 50, 56); transform-origin: 599.195px 379.795px;" id="eltfb53dutu3" class="animable"></path><path d="M606.74,371.7c.2,0,.36,3.62.36,8.09s-.16,8.1-.36,8.1-.36-3.62-.36-8.1S606.54,371.7,606.74,371.7Z" style="fill: rgb(38, 50, 56); transform-origin: 606.74px 379.795px;" id="else9swxohc5r" class="animable"></path><path d="M614.29,371.7c.2,0,.36,3.62.36,8.09s-.16,8.1-.36,8.1-.36-3.62-.36-8.1S614.09,371.7,614.29,371.7Z" style="fill: rgb(38, 50, 56); transform-origin: 614.29px 379.795px;" id="elv15mj66x9d" class="animable"></path><path d="M621.84,371.7c.2,0,.36,3.62.36,8.09s-.16,8.1-.36,8.1-.36-3.62-.36-8.1S621.64,371.7,621.84,371.7Z" style="fill: rgb(38, 50, 56); transform-origin: 621.84px 379.795px;" id="el4lfeupnit96" class="animable"></path><path d="M629.39,371.7c.19,0,.36,3.62.36,8.09s-.17,8.1-.36,8.1-.36-3.62-.36-8.1S629.19,371.7,629.39,371.7Z" style="fill: rgb(38, 50, 56); transform-origin: 629.39px 379.795px;" id="elub935cpftsf" class="animable"></path><path d="M636.93,371.7c.2,0,.36,3.62.36,8.09s-.16,8.1-.36,8.1-.36-3.62-.36-8.1S636.74,371.7,636.93,371.7Z" style="fill: rgb(38, 50, 56); transform-origin: 636.93px 379.795px;" id="elxq4q5dzol3o" class="animable"></path><path d="M644.48,371.7c.2,0,.36,3.62.36,8.09s-.16,8.1-.36,8.1-.36-3.62-.36-8.1S644.28,371.7,644.48,371.7Z" style="fill: rgb(38, 50, 56); transform-origin: 644.48px 379.795px;" id="el68thfudzrw9" class="animable"></path><path d="M652,371.7c.2,0,.36,3.62.36,8.09s-.16,8.1-.36,8.1-.36-3.62-.36-8.1S651.83,371.7,652,371.7Z" style="fill: rgb(38, 50, 56); transform-origin: 652px 379.795px;" id="el93wjeq78da9" class="animable"></path><g id="el1if78at8xik"><g style="opacity: 0.3; transform-origin: 612.465px 372.775px;" class="animable"><path d="M572.39,371.44a302.09,302.09,0,0,0,80.15,0Z" id="elkoh26rxldm" class="animable" style="transform-origin: 612.465px 372.775px;"></path></g></g><path d="M653.89,371.47c0,.2-18.51.36-41.33.36s-41.34-.16-41.34-.36,18.51-.36,41.34-.36S653.89,371.27,653.89,371.47Z" style="fill: rgb(38, 50, 56); transform-origin: 612.555px 371.47px;" id="el6uzvrvco5ep" class="animable"></path><rect x="572.92" y="387.84" width="82.81" height="16.7" style="fill: rgb(249, 135, 0); transform-origin: 614.325px 396.19px;" id="elm28jlws4ra" class="animable"></rect><path d="M578.24,388.12c.2,0,.36,3.62.36,8.09s-.16,8.1-.36,8.1-.36-3.62-.36-8.1S578,388.12,578.24,388.12Z" style="fill: rgb(38, 50, 56); transform-origin: 578.24px 396.215px;" id="elohvb97h19en" class="animable"></path><path d="M585.92,388.12c.2,0,.36,3.62.36,8.09s-.16,8.1-.36,8.1-.36-3.62-.36-8.1S585.72,388.12,585.92,388.12Z" style="fill: rgb(38, 50, 56); transform-origin: 585.92px 396.215px;" id="elb2kh3h07m57" class="animable"></path><path d="M593.51,388.12c.2,0,.36,3.62.36,8.09s-.16,8.1-.36,8.1-.36-3.62-.36-8.1S593.31,388.12,593.51,388.12Z" style="fill: rgb(38, 50, 56); transform-origin: 593.51px 396.215px;" id="el6x5aqz6s95" class="animable"></path><path d="M601.05,388.12c.2,0,.36,3.62.36,8.09s-.16,8.1-.36,8.1-.35-3.62-.35-8.1S600.86,388.12,601.05,388.12Z" style="fill: rgb(38, 50, 56); transform-origin: 601.055px 396.215px;" id="elytanhfyoqx" class="animable"></path><path d="M608.6,388.12c.2,0,.36,3.62.36,8.09s-.16,8.1-.36,8.1-.36-3.62-.36-8.1S608.4,388.12,608.6,388.12Z" style="fill: rgb(38, 50, 56); transform-origin: 608.6px 396.215px;" id="elez8750416kq" class="animable"></path><path d="M616.15,388.12c.2,0,.36,3.62.36,8.09s-.16,8.1-.36,8.1-.36-3.62-.36-8.1S616,388.12,616.15,388.12Z" style="fill: rgb(38, 50, 56); transform-origin: 616.15px 396.215px;" id="els92or597meq" class="animable"></path><path d="M623.7,388.12c.2,0,.36,3.62.36,8.09s-.16,8.1-.36,8.1-.36-3.62-.36-8.1S623.5,388.12,623.7,388.12Z" style="fill: rgb(38, 50, 56); transform-origin: 623.7px 396.215px;" id="elkfxtzffi7ab" class="animable"></path><path d="M631.25,388.12c.19,0,.36,3.62.36,8.09s-.17,8.1-.36,8.1-.36-3.62-.36-8.1S631.05,388.12,631.25,388.12Z" style="fill: rgb(38, 50, 56); transform-origin: 631.25px 396.215px;" id="elguiklir8nw6" class="animable"></path><path d="M638.79,388.12c.2,0,.36,3.62.36,8.09s-.16,8.1-.36,8.1-.36-3.62-.36-8.1S638.6,388.12,638.79,388.12Z" style="fill: rgb(38, 50, 56); transform-origin: 638.79px 396.215px;" id="el1ynenl9kzlsi" class="animable"></path><path d="M646.34,388.12c.2,0,.36,3.62.36,8.09s-.16,8.1-.36,8.1-.36-3.62-.36-8.1S646.14,388.12,646.34,388.12Z" style="fill: rgb(38, 50, 56); transform-origin: 646.34px 396.215px;" id="elrkrob1mtkv" class="animable"></path><path d="M653.89,388.12c.2,0,.36,3.62.36,8.09s-.16,8.1-.36,8.1-.36-3.62-.36-8.1S653.69,388.12,653.89,388.12Z" style="fill: rgb(38, 50, 56); transform-origin: 653.89px 396.215px;" id="elht0hxj54mg" class="animable"></path><g id="el2s3dfwvwjkn"><g style="opacity: 0.3; transform-origin: 614.325px 389.195px;" class="animable"><path d="M574.25,387.86a302.09,302.09,0,0,0,80.15,0Z" id="elhzikb1gbsjr" class="animable" style="transform-origin: 614.325px 389.195px;"></path></g></g><path d="M655.75,387.89c0,.2-18.51.36-41.33.36s-41.34-.16-41.34-.36,18.51-.36,41.34-.36S655.75,387.69,655.75,387.89Z" style="fill: rgb(38, 50, 56); transform-origin: 614.415px 387.89px;" id="elj0tg79oc43" class="animable"></path><rect x="565.05" y="404" width="82.81" height="16.7" style="fill: rgb(249, 135, 0); transform-origin: 606.455px 412.35px;" id="eln3nzjjiuh0i" class="animable"></rect><path d="M570.38,404.28c.2,0,.36,3.62.36,8.09s-.16,8.1-.36,8.1-.36-3.62-.36-8.1S570.18,404.28,570.38,404.28Z" style="fill: rgb(38, 50, 56); transform-origin: 570.38px 412.375px;" id="elizr6sj91uxc" class="animable"></path><path d="M578.06,404.28c.19,0,.36,3.62.36,8.09s-.17,8.1-.36,8.1-.36-3.62-.36-8.1S577.86,404.28,578.06,404.28Z" style="fill: rgb(38, 50, 56); transform-origin: 578.06px 412.375px;" id="el68xashbpt8v" class="animable"></path><path d="M585.64,404.28c.2,0,.36,3.62.36,8.09s-.16,8.1-.36,8.1-.35-3.62-.35-8.1S585.45,404.28,585.64,404.28Z" style="fill: rgb(38, 50, 56); transform-origin: 585.645px 412.375px;" id="elm2qsjkhz2b" class="animable"></path><path d="M593.19,404.28c.2,0,.36,3.62.36,8.09s-.16,8.1-.36,8.1-.36-3.62-.36-8.1S593,404.28,593.19,404.28Z" style="fill: rgb(38, 50, 56); transform-origin: 593.19px 412.375px;" id="elu4l7usi6v6" class="animable"></path><path d="M600.74,404.28c.2,0,.36,3.62.36,8.09s-.16,8.1-.36,8.1-.36-3.62-.36-8.1S600.54,404.28,600.74,404.28Z" style="fill: rgb(38, 50, 56); transform-origin: 600.74px 412.375px;" id="elyeq8174pm2d" class="animable"></path><path d="M608.29,404.28c.2,0,.36,3.62.36,8.09s-.16,8.1-.36,8.1-.36-3.62-.36-8.1S608.09,404.28,608.29,404.28Z" style="fill: rgb(38, 50, 56); transform-origin: 608.29px 412.375px;" id="elj2zoq1wscpl" class="animable"></path><path d="M615.84,404.28c.19,0,.36,3.62.36,8.09s-.17,8.1-.36,8.1-.36-3.62-.36-8.1S615.64,404.28,615.84,404.28Z" style="fill: rgb(38, 50, 56); transform-origin: 615.84px 412.375px;" id="el99znucynase" class="animable"></path><path d="M623.38,404.28c.2,0,.36,3.62.36,8.09s-.16,8.1-.36,8.1-.36-3.62-.36-8.1S623.19,404.28,623.38,404.28Z" style="fill: rgb(38, 50, 56); transform-origin: 623.38px 412.375px;" id="elw3chfhgsk2" class="animable"></path><path d="M630.93,404.28c.2,0,.36,3.62.36,8.09s-.16,8.1-.36,8.1-.36-3.62-.36-8.1S630.73,404.28,630.93,404.28Z" style="fill: rgb(38, 50, 56); transform-origin: 630.93px 412.375px;" id="elje3no3l58p" class="animable"></path><path d="M638.48,404.28c.2,0,.36,3.62.36,8.09s-.16,8.1-.36,8.1-.36-3.62-.36-8.1S638.28,404.28,638.48,404.28Z" style="fill: rgb(38, 50, 56); transform-origin: 638.48px 412.375px;" id="el1a8zolqinm3" class="animable"></path><path d="M646,404.28c.2,0,.36,3.62.36,8.09s-.16,8.1-.36,8.1-.36-3.62-.36-8.1S645.83,404.28,646,404.28Z" style="fill: rgb(38, 50, 56); transform-origin: 646px 412.375px;" id="elnjzkrbw6te" class="animable"></path><g id="el73p7aaom4cv"><g style="opacity: 0.3; transform-origin: 606.465px 405.335px;" class="animable"><path d="M566.39,404a302.09,302.09,0,0,0,80.15,0Z" id="el9cdvvf7ms7" class="animable" style="transform-origin: 606.465px 405.335px;"></path></g></g><path d="M647.89,404.05c0,.2-18.51.36-41.33.36s-41.34-.16-41.34-.36,18.5-.36,41.34-.36S647.89,403.85,647.89,404.05Z" style="fill: rgb(38, 50, 56); transform-origin: 606.555px 404.05px;" id="elm9ivli7gq6" class="animable"></path><rect x="574.75" y="420.58" width="82.81" height="16.06" style="fill: rgb(249, 135, 0); transform-origin: 616.155px 428.61px;" id="elo21yfgfvmze" class="animable"></rect><path d="M580.08,420.84c.2,0,.36,3.49.36,7.79s-.16,7.79-.36,7.79-.36-3.49-.36-7.79S579.88,420.84,580.08,420.84Z" style="fill: rgb(38, 50, 56); transform-origin: 580.08px 428.63px;" id="elr1i0zgqq2p" class="animable"></path><path d="M587.76,420.84c.2,0,.36,3.49.36,7.79s-.16,7.79-.36,7.79-.36-3.49-.36-7.79S587.56,420.84,587.76,420.84Z" style="fill: rgb(38, 50, 56); transform-origin: 587.76px 428.63px;" id="elhk7jxr48c1g" class="animable"></path><path d="M595.35,420.84c.19,0,.35,3.49.35,7.79s-.16,7.79-.35,7.79-.36-3.49-.36-7.79S595.15,420.84,595.35,420.84Z" style="fill: rgb(38, 50, 56); transform-origin: 595.345px 428.63px;" id="eliicxvw0z1j" class="animable"></path><path d="M602.89,420.84c.2,0,.36,3.49.36,7.79s-.16,7.79-.36,7.79-.36-3.49-.36-7.79S602.69,420.84,602.89,420.84Z" style="fill: rgb(38, 50, 56); transform-origin: 602.89px 428.63px;" id="elzbjn9aaikv" class="animable"></path><path d="M610.44,420.84c.2,0,.36,3.49.36,7.79s-.16,7.79-.36,7.79-.36-3.49-.36-7.79S610.24,420.84,610.44,420.84Z" style="fill: rgb(38, 50, 56); transform-origin: 610.44px 428.63px;" id="elpw4kv7z8czp" class="animable"></path><path d="M618,420.84c.2,0,.36,3.49.36,7.79s-.16,7.79-.36,7.79-.36-3.49-.36-7.79S617.79,420.84,618,420.84Z" style="fill: rgb(38, 50, 56); transform-origin: 618px 428.63px;" id="elqv9uad5y89p" class="animable"></path><path d="M625.54,420.84c.2,0,.36,3.49.36,7.79s-.16,7.79-.36,7.79-.36-3.49-.36-7.79S625.34,420.84,625.54,420.84Z" style="fill: rgb(38, 50, 56); transform-origin: 625.54px 428.63px;" id="elbxwr9z4ixpn" class="animable"></path><path d="M633.08,420.84c.2,0,.36,3.49.36,7.79s-.16,7.79-.36,7.79-.35-3.49-.35-7.79S632.89,420.84,633.08,420.84Z" style="fill: rgb(38, 50, 56); transform-origin: 633.085px 428.63px;" id="el9w909ymfyu" class="animable"></path><path d="M640.63,420.84c.2,0,.36,3.49.36,7.79s-.16,7.79-.36,7.79-.36-3.49-.36-7.79S640.43,420.84,640.63,420.84Z" style="fill: rgb(38, 50, 56); transform-origin: 640.63px 428.63px;" id="elrokmopx96bn" class="animable"></path><path d="M648.18,420.84c.2,0,.36,3.49.36,7.79s-.16,7.79-.36,7.79-.36-3.49-.36-7.79S648,420.84,648.18,420.84Z" style="fill: rgb(38, 50, 56); transform-origin: 648.18px 428.63px;" id="el302pw8uxlc8" class="animable"></path><path d="M655.73,420.84c.2,0,.36,3.49.36,7.79s-.16,7.79-.36,7.79-.36-3.49-.36-7.79S655.53,420.84,655.73,420.84Z" style="fill: rgb(38, 50, 56); transform-origin: 655.73px 428.63px;" id="eln0cf3rhe3hd" class="animable"></path><g id="eld4135wz8ocf"><g style="opacity: 0.3; transform-origin: 616.165px 422.298px;" class="animable"><path d="M576.09,420.59a236.76,236.76,0,0,0,80.15,0Z" id="elprtgh4yfgj" class="animable" style="transform-origin: 616.165px 422.298px;"></path></g></g><path d="M657.59,420.63c0,.19-18.51.36-41.33.36s-41.34-.17-41.34-.36,18.51-.36,41.34-.36S657.59,420.43,657.59,420.63Z" style="fill: rgb(38, 50, 56); transform-origin: 616.255px 420.63px;" id="elk4qsghyirm" class="animable"></path><rect x="569.43" y="436.65" width="82.81" height="16.06" style="fill: rgb(249, 135, 0); transform-origin: 610.835px 444.68px;" id="el1hjfi0idtiz" class="animable"></rect><path d="M574.75,436.91c.2,0,.36,3.49.36,7.79s-.16,7.79-.36,7.79-.36-3.49-.36-7.79S574.56,436.91,574.75,436.91Z" style="fill: rgb(38, 50, 56); transform-origin: 574.75px 444.7px;" id="elmowab5y247l" class="animable"></path><path d="M582.43,436.91c.2,0,.36,3.49.36,7.79s-.16,7.79-.36,7.79-.36-3.49-.36-7.79S582.23,436.91,582.43,436.91Z" style="fill: rgb(38, 50, 56); transform-origin: 582.43px 444.7px;" id="el0puqbsked54" class="animable"></path><path d="M590,436.91c.2,0,.36,3.49.36,7.79s-.16,7.79-.36,7.79-.36-3.49-.36-7.79S589.82,436.91,590,436.91Z" style="fill: rgb(38, 50, 56); transform-origin: 590px 444.7px;" id="elg0r3f7qoukg" class="animable"></path><path d="M597.57,436.91c.2,0,.36,3.49.36,7.79s-.16,7.79-.36,7.79-.36-3.49-.36-7.79S597.37,436.91,597.57,436.91Z" style="fill: rgb(38, 50, 56); transform-origin: 597.57px 444.7px;" id="elmzg3o6bydkg" class="animable"></path><path d="M605.12,436.91c.2,0,.36,3.49.36,7.79s-.16,7.79-.36,7.79-.36-3.49-.36-7.79S604.92,436.91,605.12,436.91Z" style="fill: rgb(38, 50, 56); transform-origin: 605.12px 444.7px;" id="elj5du5w0kgqd" class="animable"></path><path d="M612.66,436.91c.2,0,.36,3.49.36,7.79s-.16,7.79-.36,7.79-.36-3.49-.36-7.79S612.47,436.91,612.66,436.91Z" style="fill: rgb(38, 50, 56); transform-origin: 612.66px 444.7px;" id="elxgd0emm5lx" class="animable"></path><path d="M620.21,436.91c.2,0,.36,3.49.36,7.79s-.16,7.79-.36,7.79-.36-3.49-.36-7.79S620,436.91,620.21,436.91Z" style="fill: rgb(38, 50, 56); transform-origin: 620.21px 444.7px;" id="elv7d9lfhhknb" class="animable"></path><path d="M627.76,436.91c.2,0,.36,3.49.36,7.79s-.16,7.79-.36,7.79-.36-3.49-.36-7.79S627.56,436.91,627.76,436.91Z" style="fill: rgb(38, 50, 56); transform-origin: 627.76px 444.7px;" id="elgz4syugiqy6" class="animable"></path><path d="M635.31,436.91c.2,0,.36,3.49.36,7.79s-.16,7.79-.36,7.79S635,449,635,444.7,635.11,436.91,635.31,436.91Z" style="fill: rgb(38, 50, 56); transform-origin: 635.335px 444.7px;" id="elzfqan8ejcxs" class="animable"></path><path d="M642.86,436.91c.19,0,.35,3.49.35,7.79s-.16,7.79-.35,7.79-.36-3.49-.36-7.79S642.66,436.91,642.86,436.91Z" style="fill: rgb(38, 50, 56); transform-origin: 642.855px 444.7px;" id="elg5qjqb9rlen" class="animable"></path><path d="M650.4,436.91c.2,0,.36,3.49.36,7.79s-.16,7.79-.36,7.79S650,449,650,444.7,650.2,436.91,650.4,436.91Z" style="fill: rgb(38, 50, 56); transform-origin: 650.38px 444.7px;" id="elaij0uwy721" class="animable"></path><g id="el77580av6j9f"><g style="opacity: 0.3; transform-origin: 610.84px 438.591px;" class="animable"><path d="M570.76,436.66a209.88,209.88,0,0,0,80.16,0Z" id="elxhvhzag4xh9" class="animable" style="transform-origin: 610.84px 438.591px;"></path></g></g><path d="M652.26,436.7c0,.19-18.5.35-41.33.35s-41.33-.16-41.33-.35,18.5-.36,41.33-.36S652.26,436.5,652.26,436.7Z" style="fill: rgb(38, 50, 56); transform-origin: 610.93px 436.695px;" id="elhv3qyxcw9w5" class="animable"></path><rect x="574.16" y="452.49" width="82.81" height="16.06" style="fill: rgb(249, 135, 0); transform-origin: 615.565px 460.52px;" id="elc4d073icmap" class="animable"></rect><path d="M579.49,452.75c.19,0,.35,3.49.35,7.79s-.16,7.79-.35,7.79-.36-3.49-.36-7.79S579.29,452.75,579.49,452.75Z" style="fill: rgb(38, 50, 56); transform-origin: 579.485px 460.54px;" id="elanhv1lrmesp" class="animable"></path><path d="M587.16,452.75c.2,0,.36,3.49.36,7.79s-.16,7.79-.36,7.79-.36-3.49-.36-7.79S587,452.75,587.16,452.75Z" style="fill: rgb(38, 50, 56); transform-origin: 587.16px 460.54px;" id="elj2mars2yj5c" class="animable"></path><path d="M594.75,452.75c.2,0,.36,3.49.36,7.79s-.16,7.79-.36,7.79-.36-3.49-.36-7.79S594.55,452.75,594.75,452.75Z" style="fill: rgb(38, 50, 56); transform-origin: 594.75px 460.54px;" id="elb9dtvtdl8gv" class="animable"></path><path d="M602.3,452.75c.2,0,.36,3.49.36,7.79s-.16,7.79-.36,7.79-.36-3.49-.36-7.79S602.1,452.75,602.3,452.75Z" style="fill: rgb(38, 50, 56); transform-origin: 602.3px 460.54px;" id="elydk1llepmem" class="animable"></path><path d="M609.85,452.75c.2,0,.36,3.49.36,7.79s-.16,7.79-.36,7.79-.36-3.49-.36-7.79S609.65,452.75,609.85,452.75Z" style="fill: rgb(38, 50, 56); transform-origin: 609.85px 460.54px;" id="elvm0sj6fvx0n" class="animable"></path><path d="M617.4,452.75c.19,0,.36,3.49.36,7.79s-.17,7.79-.36,7.79-.36-3.49-.36-7.79S617.2,452.75,617.4,452.75Z" style="fill: rgb(38, 50, 56); transform-origin: 617.4px 460.54px;" id="elgthj4uxokqi" class="animable"></path><path d="M624.94,452.75c.2,0,.36,3.49.36,7.79s-.16,7.79-.36,7.79-.36-3.49-.36-7.79S624.74,452.75,624.94,452.75Z" style="fill: rgb(38, 50, 56); transform-origin: 624.94px 460.54px;" id="elmv0pvg97m1" class="animable"></path><path d="M632.49,452.75c.2,0,.36,3.49.36,7.79s-.16,7.79-.36,7.79-.36-3.49-.36-7.79S632.29,452.75,632.49,452.75Z" style="fill: rgb(38, 50, 56); transform-origin: 632.49px 460.54px;" id="el9dzgylv05bg" class="animable"></path><path d="M640,452.75c.2,0,.36,3.49.36,7.79s-.16,7.79-.36,7.79-.36-3.49-.36-7.79S639.84,452.75,640,452.75Z" style="fill: rgb(38, 50, 56); transform-origin: 640px 460.54px;" id="eltz78jgll5kp" class="animable"></path><path d="M647.59,452.75c.2,0,.36,3.49.36,7.79s-.16,7.79-.36,7.79-.36-3.49-.36-7.79S647.39,452.75,647.59,452.75Z" style="fill: rgb(38, 50, 56); transform-origin: 647.59px 460.54px;" id="eltqni99mpki" class="animable"></path><path d="M655.13,452.75c.2,0,.36,3.49.36,7.79s-.16,7.79-.36,7.79-.35-3.49-.35-7.79S654.94,452.75,655.13,452.75Z" style="fill: rgb(38, 50, 56); transform-origin: 655.135px 460.54px;" id="elciywvb9fnjm" class="animable"></path><g id="ell6b845no4gr"><g style="opacity: 0.3; transform-origin: 615.57px 454.208px;" class="animable"><path d="M575.49,452.5a236.82,236.82,0,0,0,80.16,0Z" id="el7pjg2zrs6lr" class="animable" style="transform-origin: 615.57px 454.208px;"></path></g></g><path d="M657,452.54c0,.19-18.5.36-41.33.36s-41.33-.17-41.33-.36,18.5-.36,41.33-.36S657,452.34,657,452.54Z" style="fill: rgb(38, 50, 56); transform-origin: 615.67px 452.54px;" id="elsgzdbudqvu7" class="animable"></path><path d="M574.16,468.55a1.07,1.07,0,0,0,0-.28c0-.21,0-.47,0-.81,0-.75,0-1.79,0-3.12,0-2.76,0-6.71.08-11.63v-.18h-.18l-4.56,0,.2.19c0-4.69,0-10.12,0-16.06l-.24.24h5.58v-.25c0-5,0-10.35,0-15.94v-.27h-10l.27.27c0-5.94,0-11.65,0-17l-.26.26,7.86,0h.25v-.24c0-5.81,0-11.05,0-15.57v-.19h-2.21l.18.18c0-5.17,0-9.32,0-12.22,0-1.41,0-2.5,0-3.29,0-.35,0-.63,0-.85a1.11,1.11,0,0,0,0-.29,2.25,2.25,0,0,0,0,.29l0,.85c0,.78,0,1.88-.08,3.28-.05,2.9-.12,7.05-.21,12.23v.18h2.21l-.19-.19c0,4.52,0,9.76,0,15.57l.24-.24H565v.25c0,5.36,0,11.07,0,17V421h10l-.27-.27c0,5.59,0,11,0,15.94l.25-.26h-5.57v.25c0,5.94,0,11.37,0,16.06v.2h.2l4.56,0-.18-.17c0,4.92.06,8.87.08,11.63,0,1.33,0,2.38.05,3.12,0,.34,0,.6,0,.81A.9.9,0,0,0,574.16,468.55Z" style="fill: rgb(38, 50, 56); transform-origin: 570.02px 420.025px;" id="el7d6kkxw828" class="animable"></path><rect x="564.27" y="323.14" width="82.81" height="16.06" style="fill: rgb(249, 135, 0); transform-origin: 605.675px 331.17px;" id="elrob4kuqcoho" class="animable"></rect><path d="M569.59,323.41c.2,0,.36,3.49.36,7.79s-.16,7.78-.36,7.78-.36-3.48-.36-7.78S569.39,323.41,569.59,323.41Z" style="fill: rgb(38, 50, 56); transform-origin: 569.59px 331.195px;" id="el269tm3502j" class="animable"></path><path d="M577.27,323.41c.2,0,.36,3.49.36,7.79s-.16,7.78-.36,7.78-.36-3.48-.36-7.78S577.07,323.41,577.27,323.41Z" style="fill: rgb(38, 50, 56); transform-origin: 577.27px 331.195px;" id="el7b71pq8nsib" class="animable"></path><path d="M584.86,323.41c.2,0,.36,3.49.36,7.79s-.16,7.78-.36,7.78-.36-3.48-.36-7.78S584.66,323.41,584.86,323.41Z" style="fill: rgb(38, 50, 56); transform-origin: 584.86px 331.195px;" id="el4mzmwzann4f" class="animable"></path><path d="M592.41,323.41c.2,0,.36,3.49.36,7.79s-.16,7.78-.36,7.78-.36-3.48-.36-7.78S592.21,323.41,592.41,323.41Z" style="fill: rgb(38, 50, 56); transform-origin: 592.41px 331.195px;" id="elj32v1flk03" class="animable"></path><path d="M600,323.41c.19,0,.36,3.49.36,7.79S600.15,339,600,339s-.36-3.48-.36-7.78S599.76,323.41,600,323.41Z" style="fill: rgb(38, 50, 56); transform-origin: 600px 331.205px;" id="ellxj9xm6y1z9" class="animable"></path><path d="M607.5,323.41c.2,0,.36,3.49.36,7.79s-.16,7.78-.36,7.78-.36-3.48-.36-7.78S607.3,323.41,607.5,323.41Z" style="fill: rgb(38, 50, 56); transform-origin: 607.5px 331.195px;" id="el4ducxczd3g8" class="animable"></path><path d="M615.05,323.41c.2,0,.36,3.49.36,7.79s-.16,7.78-.36,7.78-.36-3.48-.36-7.78S614.85,323.41,615.05,323.41Z" style="fill: rgb(38, 50, 56); transform-origin: 615.05px 331.195px;" id="el7u974cjq4m" class="animable"></path><path d="M622.6,323.41c.2,0,.36,3.49.36,7.79s-.16,7.78-.36,7.78-.36-3.48-.36-7.78S622.4,323.41,622.6,323.41Z" style="fill: rgb(38, 50, 56); transform-origin: 622.6px 331.195px;" id="elswiuqq02pl" class="animable"></path><path d="M630.15,323.41c.2,0,.36,3.49.36,7.79s-.16,7.78-.36,7.78-.36-3.48-.36-7.78S630,323.41,630.15,323.41Z" style="fill: rgb(38, 50, 56); transform-origin: 630.15px 331.195px;" id="el4ck3f9r13up" class="animable"></path><path d="M637.69,323.41c.2,0,.36,3.49.36,7.79s-.16,7.78-.36,7.78-.35-3.48-.35-7.78S637.5,323.41,637.69,323.41Z" style="fill: rgb(38, 50, 56); transform-origin: 637.695px 331.195px;" id="elldn2nxqeqd9" class="animable"></path><path d="M645.24,323.41c.2,0,.36,3.49.36,7.79s-.16,7.78-.36,7.78-.36-3.48-.36-7.78S645,323.41,645.24,323.41Z" style="fill: rgb(38, 50, 56); transform-origin: 645.24px 331.195px;" id="elnyimeflter" class="animable"></path><g id="el9vhrixfxwh"><g style="opacity: 0.3; transform-origin: 605.68px 324.868px;" class="animable"><path d="M565.6,323.16a236.82,236.82,0,0,0,80.16,0Z" id="eli5u67vz36ws" class="animable" style="transform-origin: 605.68px 324.868px;"></path></g></g><path d="M647.1,323.19c0,.2-18.5.36-41.33.36s-41.33-.16-41.33-.36,18.5-.36,41.33-.36S647.1,323,647.1,323.19Z" style="fill: rgb(38, 50, 56); transform-origin: 605.77px 323.19px;" id="eljqrcsoq6p1d" class="animable"></path><rect x="558.94" y="339.21" width="82.81" height="16.06" style="fill: rgb(249, 135, 0); transform-origin: 600.345px 347.24px;" id="el5e35qjgwkbm" class="animable"></rect><path d="M564.27,339.48c.2,0,.36,3.49.36,7.79s-.16,7.78-.36,7.78-.36-3.48-.36-7.78S564.07,339.48,564.27,339.48Z" style="fill: rgb(38, 50, 56); transform-origin: 564.27px 347.265px;" id="elbf4i5dkzace" class="animable"></path><path d="M572,339.48c.2,0,.36,3.49.36,7.79s-.16,7.78-.36,7.78-.36-3.48-.36-7.78S571.75,339.48,572,339.48Z" style="fill: rgb(38, 50, 56); transform-origin: 572px 347.265px;" id="el5t87pi1dtdn" class="animable"></path><path d="M579.54,339.48c.19,0,.35,3.49.35,7.79s-.16,7.78-.35,7.78-.36-3.48-.36-7.78S579.34,339.48,579.54,339.48Z" style="fill: rgb(38, 50, 56); transform-origin: 579.535px 347.265px;" id="el82k0rje9zdk" class="animable"></path><path d="M587.08,339.48c.2,0,.36,3.49.36,7.79s-.16,7.78-.36,7.78-.36-3.48-.36-7.78S586.88,339.48,587.08,339.48Z" style="fill: rgb(38, 50, 56); transform-origin: 587.08px 347.265px;" id="elmifn67yacvl" class="animable"></path><path d="M594.63,339.48c.2,0,.36,3.49.36,7.79s-.16,7.78-.36,7.78-.36-3.48-.36-7.78S594.43,339.48,594.63,339.48Z" style="fill: rgb(38, 50, 56); transform-origin: 594.63px 347.265px;" id="elpjcb29wneu" class="animable"></path><path d="M602.18,339.48c.2,0,.36,3.49.36,7.79s-.16,7.78-.36,7.78-.36-3.48-.36-7.78S602,339.48,602.18,339.48Z" style="fill: rgb(38, 50, 56); transform-origin: 602.18px 347.265px;" id="ellureqr0zqm" class="animable"></path><path d="M609.73,339.48c.2,0,.36,3.49.36,7.79s-.16,7.78-.36,7.78-.36-3.48-.36-7.78S609.53,339.48,609.73,339.48Z" style="fill: rgb(38, 50, 56); transform-origin: 609.73px 347.265px;" id="elelu3hinwcf" class="animable"></path><path d="M617.27,339.48c.2,0,.36,3.49.36,7.79s-.16,7.78-.36,7.78-.35-3.48-.35-7.78S617.08,339.48,617.27,339.48Z" style="fill: rgb(38, 50, 56); transform-origin: 617.275px 347.265px;" id="elbaf8tdbnixi" class="animable"></path><path d="M624.82,339.48c.2,0,.36,3.49.36,7.79s-.16,7.78-.36,7.78-.36-3.48-.36-7.78S624.62,339.48,624.82,339.48Z" style="fill: rgb(38, 50, 56); transform-origin: 624.82px 347.265px;" id="elwpsezdd1zqo" class="animable"></path><path d="M632.37,339.48c.2,0,.36,3.49.36,7.79s-.16,7.78-.36,7.78-.36-3.48-.36-7.78S632.17,339.48,632.37,339.48Z" style="fill: rgb(38, 50, 56); transform-origin: 632.37px 347.265px;" id="eli4z7pxv7wqe" class="animable"></path><path d="M639.92,339.48c.2,0,.36,3.49.36,7.79s-.16,7.78-.36,7.78-.36-3.48-.36-7.78S639.72,339.48,639.92,339.48Z" style="fill: rgb(38, 50, 56); transform-origin: 639.92px 347.265px;" id="elw3jhlht2bg" class="animable"></path><g id="elqrxc634e8cb"><g style="opacity: 0.3; transform-origin: 600.355px 341.163px;" class="animable"><path d="M560.28,339.23a209.63,209.63,0,0,0,80.15,0Z" id="elyrwpaa2b6e" class="animable" style="transform-origin: 600.355px 341.163px;"></path></g></g><path d="M641.78,339.26c0,.2-18.51.36-41.33.36s-41.34-.16-41.34-.36,18.51-.36,41.34-.36S641.78,339.06,641.78,339.26Z" style="fill: rgb(38, 50, 56); transform-origin: 600.445px 339.26px;" id="elt1tcej71y4" class="animable"></path><rect x="563.68" y="355.05" width="82.81" height="16.06" style="fill: rgb(249, 135, 0); transform-origin: 605.085px 363.08px;" id="el95550f7ahvt" class="animable"></rect><path d="M569,355.32c.2,0,.36,3.49.36,7.79s-.16,7.78-.36,7.78-.36-3.48-.36-7.78S568.8,355.32,569,355.32Z" style="fill: rgb(38, 50, 56); transform-origin: 569px 363.105px;" id="el7dx8gbx6peq" class="animable"></path><path d="M576.68,355.32c.2,0,.36,3.49.36,7.79s-.16,7.78-.36,7.78-.36-3.48-.36-7.78S576.48,355.32,576.68,355.32Z" style="fill: rgb(38, 50, 56); transform-origin: 576.68px 363.105px;" id="elyja71izzvs" class="animable"></path><path d="M584.27,355.32c.2,0,.36,3.49.36,7.79s-.16,7.78-.36,7.78-.36-3.48-.36-7.78S584.07,355.32,584.27,355.32Z" style="fill: rgb(38, 50, 56); transform-origin: 584.27px 363.105px;" id="elrw5ot8d57bg" class="animable"></path><path d="M591.81,355.32c.2,0,.36,3.49.36,7.79s-.16,7.78-.36,7.78-.35-3.48-.35-7.78S591.62,355.32,591.81,355.32Z" style="fill: rgb(38, 50, 56); transform-origin: 591.815px 363.105px;" id="ellkyl8lud0x" class="animable"></path><path d="M599.36,355.32c.2,0,.36,3.49.36,7.79s-.16,7.78-.36,7.78-.36-3.48-.36-7.78S599.16,355.32,599.36,355.32Z" style="fill: rgb(38, 50, 56); transform-origin: 599.36px 363.105px;" id="elhim20fz78uv" class="animable"></path><path d="M606.91,355.32c.2,0,.36,3.49.36,7.79s-.16,7.78-.36,7.78-.36-3.48-.36-7.78S606.71,355.32,606.91,355.32Z" style="fill: rgb(38, 50, 56); transform-origin: 606.91px 363.105px;" id="elkwnvvlztv2s" class="animable"></path><path d="M614.46,355.32c.2,0,.36,3.49.36,7.79s-.16,7.78-.36,7.78-.36-3.48-.36-7.78S614.26,355.32,614.46,355.32Z" style="fill: rgb(38, 50, 56); transform-origin: 614.46px 363.105px;" id="elf23o3wazzw" class="animable"></path><path d="M622,355.32c.19,0,.36,3.49.36,7.79s-.17,7.78-.36,7.78-.36-3.48-.36-7.78S621.81,355.32,622,355.32Z" style="fill: rgb(38, 50, 56); transform-origin: 622px 363.105px;" id="elqnpihgrny2d" class="animable"></path><path d="M629.55,355.32c.2,0,.36,3.49.36,7.79s-.16,7.78-.36,7.78-.36-3.48-.36-7.78S629.36,355.32,629.55,355.32Z" style="fill: rgb(38, 50, 56); transform-origin: 629.55px 363.105px;" id="eljwr1trnh86" class="animable"></path><path d="M637.1,355.32c.2,0,.36,3.49.36,7.79s-.16,7.78-.36,7.78-.36-3.48-.36-7.78S636.9,355.32,637.1,355.32Z" style="fill: rgb(38, 50, 56); transform-origin: 637.1px 363.105px;" id="el8lzf0b1457e" class="animable"></path><path d="M644.65,355.32c.2,0,.36,3.49.36,7.79s-.16,7.78-.36,7.78-.36-3.48-.36-7.78S644.45,355.32,644.65,355.32Z" style="fill: rgb(38, 50, 56); transform-origin: 644.65px 363.105px;" id="elsqsq39wi5v" class="animable"></path><g id="el637lzxb0b1v"><g style="opacity: 0.3; transform-origin: 605.075px 356.778px;" class="animable"><path d="M565,355.07a236.76,236.76,0,0,0,80.15,0Z" id="el5rywk0rk8a" class="animable" style="transform-origin: 605.075px 356.778px;"></path></g></g><path d="M646.51,355.1c0,.2-18.51.36-41.33.36s-41.34-.16-41.34-.36,18.51-.36,41.34-.36S646.51,354.91,646.51,355.1Z" style="fill: rgb(38, 50, 56); transform-origin: 605.175px 355.1px;" id="el716rj2j6vl6" class="animable"></path><rect x="551.21" y="291.4" width="82.81" height="16.06" style="fill: rgb(249, 135, 0); transform-origin: 592.615px 299.43px;" id="elmv7n9a7tei" class="animable"></rect><path d="M556.53,291.67c.2,0,.36,3.48.36,7.78s-.16,7.79-.36,7.79-.36-3.49-.36-7.79S556.33,291.67,556.53,291.67Z" style="fill: rgb(38, 50, 56); transform-origin: 556.53px 299.455px;" id="elh42s4b8u0c7" class="animable"></path><path d="M564.21,291.67c.2,0,.36,3.48.36,7.78s-.16,7.79-.36,7.79-.36-3.49-.36-7.79S564,291.67,564.21,291.67Z" style="fill: rgb(38, 50, 56); transform-origin: 564.21px 299.455px;" id="el45we9njn6eo" class="animable"></path><path d="M571.8,291.67c.2,0,.36,3.48.36,7.78s-.16,7.79-.36,7.79-.36-3.49-.36-7.79S571.6,291.67,571.8,291.67Z" style="fill: rgb(38, 50, 56); transform-origin: 571.8px 299.455px;" id="eleqn0nsfd39s" class="animable"></path><path d="M579.35,291.67c.2,0,.36,3.48.36,7.78s-.16,7.79-.36,7.79-.36-3.49-.36-7.79S579.15,291.67,579.35,291.67Z" style="fill: rgb(38, 50, 56); transform-origin: 579.35px 299.455px;" id="elqd8yi778n7p" class="animable"></path><path d="M586.9,291.67c.19,0,.35,3.48.35,7.78s-.16,7.79-.35,7.79-.36-3.49-.36-7.79S586.7,291.67,586.9,291.67Z" style="fill: rgb(38, 50, 56); transform-origin: 586.895px 299.455px;" id="elmpdivc1gu4" class="animable"></path><path d="M594.44,291.67c.2,0,.36,3.48.36,7.78s-.16,7.79-.36,7.79-.36-3.49-.36-7.79S594.24,291.67,594.44,291.67Z" style="fill: rgb(38, 50, 56); transform-origin: 594.44px 299.455px;" id="elszsh3scbb89" class="animable"></path><path d="M602,291.67c.2,0,.36,3.48.36,7.78s-.16,7.79-.36,7.79-.36-3.49-.36-7.79S601.79,291.67,602,291.67Z" style="fill: rgb(38, 50, 56); transform-origin: 602px 299.455px;" id="els9vu77sz119" class="animable"></path><path d="M609.54,291.67c.2,0,.36,3.48.36,7.78s-.16,7.79-.36,7.79-.36-3.49-.36-7.79S609.34,291.67,609.54,291.67Z" style="fill: rgb(38, 50, 56); transform-origin: 609.54px 299.455px;" id="eltyb1r9ezp9j" class="animable"></path><path d="M617.09,291.67c.19,0,.36,3.48.36,7.78s-.17,7.79-.36,7.79-.36-3.49-.36-7.79S616.89,291.67,617.09,291.67Z" style="fill: rgb(38, 50, 56); transform-origin: 617.09px 299.455px;" id="elxz6pr1kq01n" class="animable"></path><path d="M624.63,291.67c.2,0,.36,3.48.36,7.78s-.16,7.79-.36,7.79-.36-3.49-.36-7.79S624.44,291.67,624.63,291.67Z" style="fill: rgb(38, 50, 56); transform-origin: 624.63px 299.455px;" id="el1lirilg1d43" class="animable"></path><path d="M632.18,291.67c.2,0,.36,3.48.36,7.78s-.16,7.79-.36,7.79-.36-3.49-.36-7.79S632,291.67,632.18,291.67Z" style="fill: rgb(38, 50, 56); transform-origin: 632.18px 299.455px;" id="elcn93zf19eh6" class="animable"></path><g id="elh5sj2rcbg1n"><g style="opacity: 0.3; transform-origin: 592.62px 293.343px;" class="animable"><path d="M552.54,291.41a209.68,209.68,0,0,0,80.16,0Z" id="eletugsoc5e5g" class="animable" style="transform-origin: 592.62px 293.343px;"></path></g></g><path d="M634,291.45c0,.2-18.51.36-41.33.36s-41.33-.16-41.33-.36,18.5-.36,41.33-.36S634,291.25,634,291.45Z" style="fill: rgb(38, 50, 56); transform-origin: 592.67px 291.45px;" id="el6kfau5bw5qn" class="animable"></path><rect x="555.94" y="307.24" width="82.81" height="16.06" style="fill: rgb(249, 135, 0); transform-origin: 597.345px 315.27px;" id="ell58maelj64k" class="animable"></rect><path d="M561.26,307.51c.2,0,.36,3.48.36,7.78s-.16,7.79-.36,7.79-.36-3.49-.36-7.79S561.07,307.51,561.26,307.51Z" style="fill: rgb(38, 50, 56); transform-origin: 561.26px 315.295px;" id="elnexlrhjv5rf" class="animable"></path><path d="M568.94,307.51c.2,0,.36,3.48.36,7.78s-.16,7.79-.36,7.79-.36-3.49-.36-7.79S568.74,307.51,568.94,307.51Z" style="fill: rgb(38, 50, 56); transform-origin: 568.94px 315.295px;" id="elf7is785j0l9" class="animable"></path><path d="M576.53,307.51c.2,0,.36,3.48.36,7.78s-.16,7.79-.36,7.79-.36-3.49-.36-7.79S576.33,307.51,576.53,307.51Z" style="fill: rgb(38, 50, 56); transform-origin: 576.53px 315.295px;" id="elj54nz0afxwg" class="animable"></path><path d="M584.08,307.51c.2,0,.36,3.48.36,7.78s-.16,7.79-.36,7.79-.36-3.49-.36-7.79S583.88,307.51,584.08,307.51Z" style="fill: rgb(38, 50, 56); transform-origin: 584.08px 315.295px;" id="elri9ycgqrdm" class="animable"></path><path d="M591.63,307.51c.19,0,.36,3.48.36,7.78s-.17,7.79-.36,7.79-.36-3.49-.36-7.79S591.43,307.51,591.63,307.51Z" style="fill: rgb(38, 50, 56); transform-origin: 591.63px 315.295px;" id="elgui2zlff7ug" class="animable"></path><path d="M599.17,307.51c.2,0,.36,3.48.36,7.78s-.16,7.79-.36,7.79-.36-3.49-.36-7.79S599,307.51,599.17,307.51Z" style="fill: rgb(38, 50, 56); transform-origin: 599.17px 315.295px;" id="elono2y9t7f1q" class="animable"></path><path d="M606.72,307.51c.2,0,.36,3.48.36,7.78s-.16,7.79-.36,7.79-.36-3.49-.36-7.79S606.52,307.51,606.72,307.51Z" style="fill: rgb(38, 50, 56); transform-origin: 606.72px 315.295px;" id="ellof47pf8yn" class="animable"></path><path d="M614.27,307.51c.2,0,.36,3.48.36,7.78s-.16,7.79-.36,7.79-.36-3.49-.36-7.79S614.07,307.51,614.27,307.51Z" style="fill: rgb(38, 50, 56); transform-origin: 614.27px 315.295px;" id="el0f1nu4hl3gar" class="animable"></path><path d="M621.82,307.51c.2,0,.36,3.48.36,7.78s-.16,7.79-.36,7.79-.36-3.49-.36-7.79S621.62,307.51,621.82,307.51Z" style="fill: rgb(38, 50, 56); transform-origin: 621.82px 315.295px;" id="elcw74305d2j" class="animable"></path><path d="M629.37,307.51c.19,0,.35,3.48.35,7.78s-.16,7.79-.35,7.79-.36-3.49-.36-7.79S629.17,307.51,629.37,307.51Z" style="fill: rgb(38, 50, 56); transform-origin: 629.365px 315.295px;" id="eltddxipzh34n" class="animable"></path><path d="M636.91,307.51c.2,0,.36,3.48.36,7.78s-.16,7.79-.36,7.79-.36-3.49-.36-7.79S636.71,307.51,636.91,307.51Z" style="fill: rgb(38, 50, 56); transform-origin: 636.91px 315.295px;" id="el4v0bqy34zqv" class="animable"></path><g id="elzwpgeada7us"><g style="opacity: 0.3; transform-origin: 597.35px 308.966px;" class="animable"><path d="M557.27,307.26a237.08,237.08,0,0,0,80.16,0Z" id="el09fwdfhms226" class="animable" style="transform-origin: 597.35px 308.966px;"></path></g></g><path d="M638.77,307.29c0,.2-18.5.36-41.33.36s-41.33-.16-41.33-.36,18.5-.36,41.33-.36S638.77,307.09,638.77,307.29Z" style="fill: rgb(38, 50, 56); transform-origin: 597.44px 307.29px;" id="el7alqtdscu1p" class="animable"></path></g><g id="freepik--coins-1--inject-31" class="animable" style="transform-origin: 144.01px 419.965px;"><g id="elq9ifl6vedv"><rect x="101.4" y="371.55" width="82.81" height="16.7" style="fill: rgb(249, 135, 0); transform-origin: 142.805px 379.9px; transform: rotate(180deg);" class="animable"></rect></g><path d="M178.89,371.83c-.2,0-.36,3.63-.36,8.1s.16,8.1.36,8.1.36-3.63.36-8.1S179.09,371.83,178.89,371.83Z" style="fill: rgb(38, 50, 56); transform-origin: 178.89px 379.93px;" id="elrwy9tuiofrf" class="animable"></path><path d="M171.21,371.83c-.2,0-.36,3.63-.36,8.1s.16,8.1.36,8.1.36-3.63.36-8.1S171.41,371.83,171.21,371.83Z" style="fill: rgb(38, 50, 56); transform-origin: 171.21px 379.93px;" id="elg3zv0axk7u5" class="animable"></path><path d="M163.62,371.83c-.2,0-.36,3.63-.36,8.1s.16,8.1.36,8.1.36-3.63.36-8.1S163.82,371.83,163.62,371.83Z" style="fill: rgb(38, 50, 56); transform-origin: 163.62px 379.93px;" id="elkin5xbswm8" class="animable"></path><path d="M156.07,371.83c-.19,0-.36,3.63-.36,8.1s.17,8.1.36,8.1.36-3.63.36-8.1S156.27,371.83,156.07,371.83Z" style="fill: rgb(38, 50, 56); transform-origin: 156.07px 379.93px;" id="elw3elalmlzse" class="animable"></path><path d="M148.53,371.83c-.2,0-.36,3.63-.36,8.1s.16,8.1.36,8.1.36-3.63.36-8.1S148.72,371.83,148.53,371.83Z" style="fill: rgb(38, 50, 56); transform-origin: 148.53px 379.93px;" id="el4p1nrkcg7ux" class="animable"></path><path d="M141,371.83c-.2,0-.36,3.63-.36,8.1s.16,8.1.36,8.1.36-3.63.36-8.1S141.18,371.83,141,371.83Z" style="fill: rgb(38, 50, 56); transform-origin: 141px 379.93px;" id="elrk8zlrqj0xs" class="animable"></path><path d="M133.43,371.83c-.2,0-.36,3.63-.36,8.1s.16,8.1.36,8.1.36-3.63.36-8.1S133.63,371.83,133.43,371.83Z" style="fill: rgb(38, 50, 56); transform-origin: 133.43px 379.93px;" id="elxr692glfmr" class="animable"></path><path d="M125.88,371.83c-.2,0-.36,3.63-.36,8.1s.16,8.1.36,8.1.36-3.63.36-8.1S126.08,371.83,125.88,371.83Z" style="fill: rgb(38, 50, 56); transform-origin: 125.88px 379.93px;" id="el92mnxmdarf" class="animable"></path><path d="M118.34,371.83c-.2,0-.36,3.63-.36,8.1s.16,8.1.36,8.1.35-3.63.35-8.1S118.53,371.83,118.34,371.83Z" style="fill: rgb(38, 50, 56); transform-origin: 118.335px 379.93px;" id="elpbukh989ys9" class="animable"></path><path d="M110.79,371.83c-.2,0-.36,3.63-.36,8.1s.16,8.1.36,8.1.36-3.63.36-8.1S111,371.83,110.79,371.83Z" style="fill: rgb(38, 50, 56); transform-origin: 110.79px 379.93px;" id="elavbrrbkwoq" class="animable"></path><path d="M103.24,371.83c-.2,0-.36,3.63-.36,8.1s.16,8.1.36,8.1.36-3.63.36-8.1S103.44,371.83,103.24,371.83Z" style="fill: rgb(38, 50, 56); transform-origin: 103.24px 379.93px;" id="elxo8hkrhxdpa" class="animable"></path><g id="el42hf9oivvht"><g style="opacity: 0.3; transform-origin: 142.805px 372.907px;" class="animable"><path d="M182.88,371.57a301.67,301.67,0,0,1-80.15,0Z" id="elkv7rydor7da" class="animable" style="transform-origin: 142.805px 372.907px;"></path></g></g><path d="M101.38,371.61c0,.2,18.51.36,41.33.36s41.34-.16,41.34-.36-18.51-.36-41.34-.36S101.38,371.41,101.38,371.61Z" style="fill: rgb(38, 50, 56); transform-origin: 142.715px 371.61px;" id="ela6am69vt5ao" class="animable"></path><g id="elbq21ueqj4rh"><rect x="99.54" y="387.97" width="82.81" height="16.7" style="fill: rgb(249, 135, 0); transform-origin: 140.945px 396.32px; transform: rotate(180deg);" class="animable"></rect></g><path d="M177,388.25c-.2,0-.36,3.63-.36,8.1s.16,8.1.36,8.1.36-3.63.36-8.1S177.23,388.25,177,388.25Z" style="fill: rgb(38, 50, 56); transform-origin: 177px 396.35px;" id="el8d9w09bg82e" class="animable"></path><path d="M169.35,388.25c-.2,0-.36,3.63-.36,8.1s.16,8.1.36,8.1.36-3.63.36-8.1S169.55,388.25,169.35,388.25Z" style="fill: rgb(38, 50, 56); transform-origin: 169.35px 396.35px;" id="elurn40e39xsn" class="animable"></path><path d="M161.76,388.25c-.2,0-.36,3.63-.36,8.1s.16,8.1.36,8.1.36-3.63.36-8.1S162,388.25,161.76,388.25Z" style="fill: rgb(38, 50, 56); transform-origin: 161.76px 396.35px;" id="elb43bynu5vcp" class="animable"></path><path d="M154.21,388.25c-.19,0-.36,3.63-.36,8.1s.17,8.1.36,8.1.36-3.63.36-8.1S154.41,388.25,154.21,388.25Z" style="fill: rgb(38, 50, 56); transform-origin: 154.21px 396.35px;" id="elhcik23o1cdu" class="animable"></path><path d="M146.67,388.25c-.2,0-.36,3.63-.36,8.1s.16,8.1.36,8.1.36-3.63.36-8.1S146.86,388.25,146.67,388.25Z" style="fill: rgb(38, 50, 56); transform-origin: 146.67px 396.35px;" id="el87h2ii1uztq" class="animable"></path><path d="M139.12,388.25c-.2,0-.36,3.63-.36,8.1s.16,8.1.36,8.1.36-3.63.36-8.1S139.32,388.25,139.12,388.25Z" style="fill: rgb(38, 50, 56); transform-origin: 139.12px 396.35px;" id="ely9sr7uyhmpp" class="animable"></path><path d="M131.57,388.25c-.2,0-.36,3.63-.36,8.1s.16,8.1.36,8.1.36-3.63.36-8.1S131.77,388.25,131.57,388.25Z" style="fill: rgb(38, 50, 56); transform-origin: 131.57px 396.35px;" id="eliisabfswmsp" class="animable"></path><path d="M124,388.25c-.2,0-.36,3.63-.36,8.1s.16,8.1.36,8.1.36-3.63.36-8.1S124.22,388.25,124,388.25Z" style="fill: rgb(38, 50, 56); transform-origin: 124px 396.35px;" id="el9n9efxkojhc" class="animable"></path><path d="M116.48,388.25c-.2,0-.36,3.63-.36,8.1s.16,8.1.36,8.1.35-3.63.35-8.1S116.67,388.25,116.48,388.25Z" style="fill: rgb(38, 50, 56); transform-origin: 116.475px 396.35px;" id="el88mssn27zr8" class="animable"></path><path d="M108.93,388.25c-.2,0-.36,3.63-.36,8.1s.16,8.1.36,8.1.36-3.63.36-8.1S109.13,388.25,108.93,388.25Z" style="fill: rgb(38, 50, 56); transform-origin: 108.93px 396.35px;" id="elsi04ogyrpvj" class="animable"></path><path d="M101.38,388.25c-.2,0-.36,3.63-.36,8.1s.16,8.1.36,8.1.36-3.63.36-8.1S101.58,388.25,101.38,388.25Z" style="fill: rgb(38, 50, 56); transform-origin: 101.38px 396.35px;" id="elq2zmekq3jm" class="animable"></path><g id="elm5up12x5lh"><g style="opacity: 0.3; transform-origin: 140.925px 389.337px;" class="animable"><path d="M181,388a301.67,301.67,0,0,1-80.15,0Z" id="elljos9ypbvmg" class="animable" style="transform-origin: 140.925px 389.337px;"></path></g></g><path d="M99.52,388c0,.2,18.51.36,41.33.36s41.34-.16,41.34-.36-18.51-.36-41.34-.36S99.52,387.83,99.52,388Z" style="fill: rgb(38, 50, 56); transform-origin: 140.855px 388px;" id="el9nw2ow4vpq" class="animable"></path><g id="elk4lo1a9g84"><rect x="107.4" y="404.13" width="82.81" height="16.7" style="fill: rgb(249, 135, 0); transform-origin: 148.805px 412.48px; transform: rotate(180deg);" class="animable"></rect></g><path d="M184.89,404.41c-.2,0-.36,3.63-.36,8.1s.16,8.09.36,8.09.36-3.62.36-8.09S185.09,404.41,184.89,404.41Z" style="fill: rgb(38, 50, 56); transform-origin: 184.89px 412.505px;" id="eltym19faytg" class="animable"></path><path d="M177.21,404.41c-.2,0-.36,3.63-.36,8.1s.16,8.09.36,8.09.36-3.62.36-8.09S177.41,404.41,177.21,404.41Z" style="fill: rgb(38, 50, 56); transform-origin: 177.21px 412.505px;" id="el20eias3rv1k" class="animable"></path><path d="M169.62,404.41c-.19,0-.36,3.63-.36,8.1s.17,8.09.36,8.09.36-3.62.36-8.09S169.82,404.41,169.62,404.41Z" style="fill: rgb(38, 50, 56); transform-origin: 169.62px 412.505px;" id="el26t55x2u20s" class="animable"></path><path d="M162.08,404.41c-.2,0-.36,3.63-.36,8.1s.16,8.09.36,8.09.36-3.62.36-8.09S162.28,404.41,162.08,404.41Z" style="fill: rgb(38, 50, 56); transform-origin: 162.08px 412.505px;" id="el3zu3vf7k7ki" class="animable"></path><path d="M154.53,404.41c-.2,0-.36,3.63-.36,8.1s.16,8.09.36,8.09.36-3.62.36-8.09S154.73,404.41,154.53,404.41Z" style="fill: rgb(38, 50, 56); transform-origin: 154.53px 412.505px;" id="elp0aap7o033q" class="animable"></path><path d="M147,404.41c-.2,0-.36,3.63-.36,8.1s.16,8.09.36,8.09.36-3.62.36-8.09S147.18,404.41,147,404.41Z" style="fill: rgb(38, 50, 56); transform-origin: 147px 412.505px;" id="elk1mu9edpar9" class="animable"></path><path d="M139.43,404.41c-.2,0-.36,3.63-.36,8.1s.16,8.09.36,8.09.36-3.62.36-8.09S139.63,404.41,139.43,404.41Z" style="fill: rgb(38, 50, 56); transform-origin: 139.43px 412.505px;" id="elhnq8pqydfad" class="animable"></path><path d="M131.89,404.41c-.2,0-.36,3.63-.36,8.1s.16,8.09.36,8.09.35-3.62.35-8.09S132.08,404.41,131.89,404.41Z" style="fill: rgb(38, 50, 56); transform-origin: 131.885px 412.505px;" id="el1cahzgm6d5qj" class="animable"></path><path d="M124.34,404.41c-.2,0-.36,3.63-.36,8.1s.16,8.09.36,8.09.36-3.62.36-8.09S124.54,404.41,124.34,404.41Z" style="fill: rgb(38, 50, 56); transform-origin: 124.34px 412.505px;" id="elas8lcdjn6o6" class="animable"></path><path d="M116.79,404.41c-.2,0-.36,3.63-.36,8.1s.16,8.09.36,8.09.36-3.62.36-8.09S117,404.41,116.79,404.41Z" style="fill: rgb(38, 50, 56); transform-origin: 116.79px 412.505px;" id="elznfi665aph" class="animable"></path><path d="M109.24,404.41c-.2,0-.36,3.63-.36,8.1s.16,8.09.36,8.09.36-3.62.36-8.09S109.44,404.41,109.24,404.41Z" style="fill: rgb(38, 50, 56); transform-origin: 109.24px 412.505px;" id="el4sqw82ot0a4" class="animable"></path><g id="elh92w6h5omd7"><g style="opacity: 0.3; transform-origin: 148.805px 405.487px;" class="animable"><path d="M188.88,404.15a301.67,301.67,0,0,1-80.15,0Z" id="ellfpg6cvq5tf" class="animable" style="transform-origin: 148.805px 405.487px;"></path></g></g><path d="M107.38,404.19c0,.2,18.51.36,41.33.36s41.34-.16,41.34-.36-18.5-.36-41.34-.36S107.38,404,107.38,404.19Z" style="fill: rgb(38, 50, 56); transform-origin: 148.715px 404.19px;" id="elnrxrlw2adpb" class="animable"></path><g id="el8on8t9otov4"><rect x="97.7" y="420.71" width="82.81" height="16.06" style="fill: rgb(249, 135, 0); transform-origin: 139.105px 428.74px; transform: rotate(180deg);" class="animable"></rect></g><path d="M175.19,421c-.2,0-.36,3.48-.36,7.78s.16,7.79.36,7.79.36-3.49.36-7.79S175.39,421,175.19,421Z" style="fill: rgb(38, 50, 56); transform-origin: 175.19px 428.785px;" id="elrawq0hz9au" class="animable"></path><path d="M167.51,421c-.2,0-.36,3.48-.36,7.78s.16,7.79.36,7.79.36-3.49.36-7.79S167.71,421,167.51,421Z" style="fill: rgb(38, 50, 56); transform-origin: 167.51px 428.785px;" id="el0cd5o8cbj68v" class="animable"></path><path d="M159.92,421c-.2,0-.36,3.48-.36,7.78s.16,7.79.36,7.79.36-3.49.36-7.79S160.12,421,159.92,421Z" style="fill: rgb(38, 50, 56); transform-origin: 159.92px 428.785px;" id="el0us2y39pjgwo" class="animable"></path><path d="M152.38,421c-.2,0-.36,3.48-.36,7.78s.16,7.79.36,7.79.36-3.49.36-7.79S152.57,421,152.38,421Z" style="fill: rgb(38, 50, 56); transform-origin: 152.38px 428.785px;" id="el7pd7oam6tao" class="animable"></path><path d="M144.83,421c-.2,0-.36,3.48-.36,7.78s.16,7.79.36,7.79.36-3.49.36-7.79S145,421,144.83,421Z" style="fill: rgb(38, 50, 56); transform-origin: 144.83px 428.785px;" id="el6gsn3ub82ho" class="animable"></path><path d="M137.28,421c-.2,0-.36,3.48-.36,7.78s.16,7.79.36,7.79.36-3.49.36-7.79S137.48,421,137.28,421Z" style="fill: rgb(38, 50, 56); transform-origin: 137.28px 428.785px;" id="elcje0gkbhd2k" class="animable"></path><path d="M129.73,421c-.2,0-.36,3.48-.36,7.78s.16,7.79.36,7.79.36-3.49.36-7.79S129.93,421,129.73,421Z" style="fill: rgb(38, 50, 56); transform-origin: 129.73px 428.785px;" id="elnesmi2szqpd" class="animable"></path><path d="M122.18,421c-.19,0-.35,3.48-.35,7.78s.16,7.79.35,7.79.36-3.49.36-7.79S122.38,421,122.18,421Z" style="fill: rgb(38, 50, 56); transform-origin: 122.185px 428.785px;" id="eli5qmhl2pqa" class="animable"></path><path d="M114.64,421c-.2,0-.36,3.48-.36,7.78s.16,7.79.36,7.79.36-3.49.36-7.79S114.84,421,114.64,421Z" style="fill: rgb(38, 50, 56); transform-origin: 114.64px 428.785px;" id="eln885mywurgf" class="animable"></path><path d="M107.09,421c-.2,0-.36,3.48-.36,7.78s.16,7.79.36,7.79.36-3.49.36-7.79S107.29,421,107.09,421Z" style="fill: rgb(38, 50, 56); transform-origin: 107.09px 428.785px;" id="elft6hgaokq7" class="animable"></path><path d="M99.54,421c-.2,0-.36,3.48-.36,7.78s.16,7.79.36,7.79.36-3.49.36-7.79S99.74,421,99.54,421Z" style="fill: rgb(38, 50, 56); transform-origin: 99.54px 428.785px;" id="elviprhk70ch9" class="animable"></path><g id="el4d39xphgjr2"><g style="opacity: 0.3; transform-origin: 139.105px 422.436px;" class="animable"><path d="M179.18,420.73a237,237,0,0,1-80.15,0Z" id="elnqwa3frc97j" class="animable" style="transform-origin: 139.105px 422.436px;"></path></g></g><path d="M97.68,420.76c0,.2,18.51.36,41.33.36s41.34-.16,41.34-.36-18.51-.36-41.34-.36S97.68,420.56,97.68,420.76Z" style="fill: rgb(38, 50, 56); transform-origin: 139.015px 420.76px;" id="elyplc0khqg2" class="animable"></path><g id="elcn15c7mx77"><rect x="103.03" y="436.78" width="82.81" height="16.06" style="fill: rgb(249, 135, 0); transform-origin: 144.435px 444.81px; transform: rotate(180deg);" class="animable"></rect></g><path d="M180.51,437.05c-.19,0-.35,3.48-.35,7.78s.16,7.79.35,7.79.36-3.49.36-7.79S180.71,437.05,180.51,437.05Z" style="fill: rgb(38, 50, 56); transform-origin: 180.515px 444.835px;" id="elzwa384ee488" class="animable"></path><path d="M172.84,437.05c-.2,0-.36,3.48-.36,7.78s.16,7.79.36,7.79.36-3.49.36-7.79S173,437.05,172.84,437.05Z" style="fill: rgb(38, 50, 56); transform-origin: 172.84px 444.835px;" id="elguacshq2b5m" class="animable"></path><path d="M165.25,437.05c-.2,0-.36,3.48-.36,7.78s.16,7.79.36,7.79.36-3.49.36-7.79S165.45,437.05,165.25,437.05Z" style="fill: rgb(38, 50, 56); transform-origin: 165.25px 444.835px;" id="el7pbz4t9j92d" class="animable"></path><path d="M157.7,437.05c-.2,0-.36,3.48-.36,7.78s.16,7.79.36,7.79.36-3.49.36-7.79S157.9,437.05,157.7,437.05Z" style="fill: rgb(38, 50, 56); transform-origin: 157.7px 444.835px;" id="eljiobohj1apq" class="animable"></path><path d="M150.15,437.05c-.2,0-.36,3.48-.36,7.78s.16,7.79.36,7.79.36-3.49.36-7.79S150.35,437.05,150.15,437.05Z" style="fill: rgb(38, 50, 56); transform-origin: 150.15px 444.835px;" id="el23eer5sh71y" class="animable"></path><path d="M142.6,437.05c-.19,0-.35,3.48-.35,7.78s.16,7.79.35,7.79.36-3.49.36-7.79S142.8,437.05,142.6,437.05Z" style="fill: rgb(38, 50, 56); transform-origin: 142.605px 444.835px;" id="el6ero1xf579n" class="animable"></path><path d="M135.06,437.05c-.2,0-.36,3.48-.36,7.78s.16,7.79.36,7.79.36-3.49.36-7.79S135.26,437.05,135.06,437.05Z" style="fill: rgb(38, 50, 56); transform-origin: 135.06px 444.835px;" id="elyybyif8h58k" class="animable"></path><path d="M127.51,437.05c-.2,0-.36,3.48-.36,7.78s.16,7.79.36,7.79.36-3.49.36-7.79S127.71,437.05,127.51,437.05Z" style="fill: rgb(38, 50, 56); transform-origin: 127.51px 444.835px;" id="eloy3ogk5xt0h" class="animable"></path><path d="M120,437.05c-.2,0-.36,3.48-.36,7.78s.16,7.79.36,7.79.36-3.49.36-7.79S120.16,437.05,120,437.05Z" style="fill: rgb(38, 50, 56); transform-origin: 120px 444.835px;" id="eleq8bvow1yho" class="animable"></path><path d="M112.41,437.05c-.19,0-.36,3.48-.36,7.78s.17,7.79.36,7.79.36-3.49.36-7.79S112.61,437.05,112.41,437.05Z" style="fill: rgb(38, 50, 56); transform-origin: 112.41px 444.835px;" id="elxitrp2y725l" class="animable"></path><path d="M104.87,437.05c-.2,0-.36,3.48-.36,7.78s.16,7.79.36,7.79.36-3.49.36-7.79S105.06,437.05,104.87,437.05Z" style="fill: rgb(38, 50, 56); transform-origin: 104.87px 444.835px;" id="elo1te0vd3ira" class="animable"></path><g id="elb7jf9upd5gb"><g style="opacity: 0.3; transform-origin: 144.43px 438.731px;" class="animable"><path d="M184.51,436.8a209.88,209.88,0,0,1-80.16,0Z" id="elyydi0vpvvti" class="animable" style="transform-origin: 144.43px 438.731px;"></path></g></g><path d="M103,436.83c0,.2,18.5.36,41.33.36s41.33-.16,41.33-.36-18.5-.36-41.33-.36S103,436.63,103,436.83Z" style="fill: rgb(38, 50, 56); transform-origin: 144.33px 436.83px;" id="el4drcqedbq1h" class="animable"></path><g id="elwj89tjfdn5e"><rect x="98.3" y="452.62" width="82.81" height="16.06" style="fill: rgb(249, 135, 0); transform-origin: 139.705px 460.65px; transform: rotate(180deg);" class="animable"></rect></g><path d="M175.78,452.89c-.19,0-.36,3.48-.36,7.78s.17,7.79.36,7.79.36-3.49.36-7.79S176,452.89,175.78,452.89Z" style="fill: rgb(38, 50, 56); transform-origin: 175.78px 460.675px;" id="elgfdpy57rqc" class="animable"></path><path d="M168.11,452.89c-.2,0-.36,3.48-.36,7.78s.16,7.79.36,7.79.35-3.49.35-7.79S168.3,452.89,168.11,452.89Z" style="fill: rgb(38, 50, 56); transform-origin: 168.105px 460.675px;" id="elwrwal1x5gc7" class="animable"></path><path d="M160.52,452.89c-.2,0-.36,3.48-.36,7.78s.16,7.79.36,7.79.36-3.49.36-7.79S160.72,452.89,160.52,452.89Z" style="fill: rgb(38, 50, 56); transform-origin: 160.52px 460.675px;" id="elc2bntilrlcq" class="animable"></path><path d="M153,452.89c-.2,0-.36,3.48-.36,7.78s.16,7.79.36,7.79.36-3.49.36-7.79S153.17,452.89,153,452.89Z" style="fill: rgb(38, 50, 56); transform-origin: 153px 460.675px;" id="elazv4u4awh9" class="animable"></path><path d="M145.42,452.89c-.2,0-.36,3.48-.36,7.78s.16,7.79.36,7.79.36-3.49.36-7.79S145.62,452.89,145.42,452.89Z" style="fill: rgb(38, 50, 56); transform-origin: 145.42px 460.675px;" id="eldyzq4rq1o0j" class="animable"></path><path d="M137.87,452.89c-.2,0-.36,3.48-.36,7.78s.16,7.79.36,7.79.36-3.49.36-7.79S138.07,452.89,137.87,452.89Z" style="fill: rgb(38, 50, 56); transform-origin: 137.87px 460.675px;" id="elexvzi3excu" class="animable"></path><path d="M130.33,452.89c-.2,0-.36,3.48-.36,7.78s.16,7.79.36,7.79.36-3.49.36-7.79S130.52,452.89,130.33,452.89Z" style="fill: rgb(38, 50, 56); transform-origin: 130.33px 460.675px;" id="elvumrncy24ld" class="animable"></path><path d="M122.78,452.89c-.2,0-.36,3.48-.36,7.78s.16,7.79.36,7.79.36-3.49.36-7.79S123,452.89,122.78,452.89Z" style="fill: rgb(38, 50, 56); transform-origin: 122.78px 460.675px;" id="ellgx4t9iapcl" class="animable"></path><path d="M115.23,452.89c-.2,0-.36,3.48-.36,7.78s.16,7.79.36,7.79.36-3.49.36-7.79S115.43,452.89,115.23,452.89Z" style="fill: rgb(38, 50, 56); transform-origin: 115.23px 460.675px;" id="elf6x22aotaxp" class="animable"></path><path d="M107.68,452.89c-.2,0-.36,3.48-.36,7.78s.16,7.79.36,7.79.36-3.49.36-7.79S107.88,452.89,107.68,452.89Z" style="fill: rgb(38, 50, 56); transform-origin: 107.68px 460.675px;" id="eln0dy58ie8s" class="animable"></path><path d="M100.13,452.89c-.19,0-.35,3.48-.35,7.78s.16,7.79.35,7.79.36-3.49.36-7.79S100.33,452.89,100.13,452.89Z" style="fill: rgb(38, 50, 56); transform-origin: 100.135px 460.675px;" id="elqgkehfd0yto" class="animable"></path><g id="elxrduqzn2dvq"><g style="opacity: 0.3; transform-origin: 139.7px 454.346px;" class="animable"><path d="M179.78,452.64a237.08,237.08,0,0,1-80.16,0Z" id="ela4kfav370om" class="animable" style="transform-origin: 139.7px 454.346px;"></path></g></g><path d="M98.27,452.67c0,.2,18.51.36,41.34.36s41.33-.16,41.33-.36-18.5-.36-41.33-.36S98.27,452.47,98.27,452.67Z" style="fill: rgb(38, 50, 56); transform-origin: 139.605px 452.67px;" id="elrne235vkdv" class="animable"></path><path d="M181.11,468.68a.94.94,0,0,1,0-.27c0-.21,0-.48,0-.81,0-.75,0-1.79-.05-3.13,0-2.76,0-6.71-.08-11.63v-.18h.18l4.56,0-.2.2c0-4.69,0-10.13,0-16.07l.24.25h-5.58v-.26c0-5,0-10.35,0-15.94v-.27h10l-.27.27c0-5.94,0-11.65,0-17l.26.25h-8.11v-.24c0-5.82,0-11.06.05-15.58v-.19h2.22l-.18.18c0-5.17,0-9.32,0-12.22,0-1.4,0-2.5,0-3.28,0-.35,0-.63,0-.85a1,1,0,0,1,0-.29s0,.09,0,.29,0,.49,0,.84c0,.79,0,1.89.08,3.29.05,2.9.12,7.05.21,12.22v.18h-2.21l.19-.19c0,4.52,0,9.76.05,15.58l-.24-.24,7.86,0h.25v.26c0,5.35,0,11.06,0,17v.27h-10l.27-.27c0,5.59,0,11,0,15.94l-.25-.26h5.57v.25c0,5.94,0,11.38,0,16.07v.2h-.2l-4.56,0,.18-.18c0,4.92-.07,8.87-.08,11.63,0,1.34,0,2.38-.05,3.13q0,.5,0,.81A.8.8,0,0,1,181.11,468.68Z" style="fill: rgb(38, 50, 56); transform-origin: 185.26px 420.15px;" id="elvr3edn6r1ns" class="animable"></path></g><g id="freepik--Device--inject-31" class="animable" style="transform-origin: 379.28px 335.385px;"><rect x="180.97" y="201.94" width="394.51" height="260.89" rx="14.57" style="fill: rgb(69, 90, 100); transform-origin: 378.225px 332.385px;" id="elsog8qzkqrmo" class="animable"></rect><path d="M165.56,446H593a0,0,0,0,1,0,0v5.63a17.2,17.2,0,0,1-17.2,17.2h-393a17.2,17.2,0,0,1-17.2-17.2V446a0,0,0,0,1,0,0Z" style="fill: rgb(69, 90, 100); transform-origin: 379.28px 457.415px;" id="elgj2i7hgzoqq" class="animable"></path><polygon points="339.34 443.53 344.64 451.97 419.28 451.97 424.2 443.53 339.34 443.53" style="fill: rgb(38, 50, 56); transform-origin: 381.77px 447.75px;" id="el1k4esevwxke" class="animable"></polygon><path d="M572.1,443.53c0,.14-87.56.26-195.55.26S181,443.67,181,443.53s87.55-.25,195.58-.25S572.1,443.39,572.1,443.53Z" style="fill: rgb(38, 50, 56); transform-origin: 376.55px 443.535px;" id="el8zfttyg2y5r" class="animable"></path><polygon points="556.51 432.23 198.85 432.23 199.23 219.76 556.51 219.76 556.51 432.23" style="fill: rgb(250, 250, 250); transform-origin: 377.68px 325.995px;" id="elj1ihkp5kw68" class="animable"></polygon><path d="M556.51,432.23c0-1.64-.08-82.23-.2-212.47l.2.2L199.23,220l.26-.26v.17c-.14,75.18-.28,147-.4,212.3l-.24-.25,357.66.25-357.66.24h-.24v-.24c.11-65.34.23-137.12.36-212.3v-.43h.26l357.28.06h.2v.2C556.59,350,556.51,430.6,556.51,432.23Z" style="fill: rgb(38, 50, 56); transform-origin: 377.66px 325.965px;" id="el70srtx7pchg" class="animable"></path><path d="M548.74,386.54c0,.15-76,.26-169.79.26s-169.8-.11-169.8-.26,76-.26,169.8-.26S548.74,386.4,548.74,386.54Z" style="fill: rgb(224, 224, 224); transform-origin: 378.945px 386.54px;" id="elczek02434w9" class="animable"></path><path d="M548.74,351.84c0,.15-76,.26-169.79.26s-169.8-.11-169.8-.26,76-.26,169.8-.26S548.74,351.7,548.74,351.84Z" style="fill: rgb(224, 224, 224); transform-origin: 378.945px 351.84px;" id="elwe2nzqs0w8" class="animable"></path><path d="M548.74,421.24c0,.15-76,.26-169.79.26s-169.8-.11-169.8-.26,76-.26,169.8-.26S548.74,421.1,548.74,421.24Z" style="fill: rgb(224, 224, 224); transform-origin: 378.945px 421.24px;" id="el2dnscgt72fc" class="animable"></path><path d="M548.74,317.15c0,.14-76,.26-169.79.26s-169.8-.12-169.8-.26,76-.26,169.8-.26S548.74,317,548.74,317.15Z" style="fill: rgb(224, 224, 224); transform-origin: 378.945px 317.15px;" id="elftk21jctom7" class="animable"></path><path d="M548.74,282.45c0,.14-76,.26-169.79.26s-169.8-.12-169.8-.26,76-.26,169.8-.26S548.74,282.3,548.74,282.45Z" style="fill: rgb(224, 224, 224); transform-origin: 378.945px 282.45px;" id="elwt73p33fe7" class="animable"></path><path d="M548.74,247.75c0,.14-76,.26-169.79.26s-169.8-.12-169.8-.26,76-.26,169.8-.26S548.74,247.61,548.74,247.75Z" style="fill: rgb(224, 224, 224); transform-origin: 378.945px 247.75px;" id="el9kk1tlca0r5" class="animable"></path><polygon points="386.56 391 386.21 390.8 303.76 344.86 239.56 389.21 238.99 388.39 303.71 343.68 386.35 389.74 516.82 247.41 517.56 248.09 386.56 391" style="fill: rgb(38, 50, 56); transform-origin: 378.275px 319.205px;" id="el82gui1fjgxy" class="animable"></polygon><path d="M421.18,377.72a29.26,29.26,0,1,1-30.26-28.22A29.24,29.24,0,0,1,421.18,377.72Z" style="fill: rgb(249, 135, 0); transform-origin: 391.938px 378.742px;" id="elp8sbk715a9" class="animable"></path><g id="elv2jo2td3xp"><g style="opacity: 0.1; transform-origin: 376.945px 364.635px;" class="animable"><path d="M390.92,349.5a29.27,29.27,0,0,0-28.22,30.27s20.58.2,25.23-8.25S390.92,349.5,390.92,349.5Z" style="fill: rgb(255, 255, 255); transform-origin: 376.945px 364.635px;" id="el5h6ka8m30fj" class="animable"></path></g></g><path d="M413.69,377.52a22.24,22.24,0,1,1-23-21.45A22.24,22.24,0,0,1,413.69,377.52Z" style="fill: rgb(249, 135, 0); transform-origin: 391.464px 378.296px;" id="elkfua30hq3d" class="animable"></path><g id="el2etzgfauyat"><g style="opacity: 0.2; transform-origin: 391.464px 378.296px;" class="animable"><path d="M413.69,377.52a22.24,22.24,0,1,1-23-21.45A22.24,22.24,0,0,1,413.69,377.52Z" id="eli1hidf8oqr" class="animable" style="transform-origin: 391.464px 378.296px;"></path></g></g><path d="M414.35,378.42a21.94,21.94,0,1,1-22.69-21.16A21.94,21.94,0,0,1,414.35,378.42Z" style="fill: rgb(249, 135, 0); transform-origin: 392.423px 379.187px;" id="el0r0f76ovn38" class="animable"></path><g id="elx9qous5zqs"><g style="opacity: 0.2; transform-origin: 392.423px 379.187px;" class="animable"><path d="M414.35,378.42a21.94,21.94,0,1,1-22.69-21.16A21.94,21.94,0,0,1,414.35,378.42Z" style="fill: rgb(255, 255, 255); transform-origin: 392.423px 379.187px;" id="eltj76r7j5fk" class="animable"></path></g></g><path d="M393.23,377.26l-.2-5.61h0a11.12,11.12,0,0,1,3,.67,9.27,9.27,0,0,1,1.43.83l.07-.17.79-2.06.18-.47-1-1-.48.23a10.51,10.51,0,0,0-4.1-1l-.11-3.09-1-.74,0,.78-1.32,0,.11,3.15c-4.32.56-6.29,3.11-6.19,6,.13,3.86,3.48,4.74,6.59,5.39l.19,5.56a10.7,10.7,0,0,1-5.63-1.92l-1.16,2.85a12.2,12.2,0,0,0,6.9,2.07l.08,2.33-1.09.06,1.11.7,2.28-.08-.11-3.12c4.35-.6,6.35-3.11,6.25-5.95C399.74,378.76,396.34,377.9,393.23,377.26Zm-2.3-.51c-1.63-.41-2.85-1-2.89-2.32s.75-2.25,2.72-2.62Zm2.1-5.11Zm.49,13.9-.17-4.92c1.68.42,2.93,1,3,2.37C396.37,384.19,395.54,385.17,393.52,385.54Z" style="fill: rgb(249, 135, 0); transform-origin: 392.112px 378.335px;" id="elxlkff6va8x" class="animable"></path><g id="eljvs4temssek"><g style="opacity: 0.3; transform-origin: 392.112px 378.335px;" class="animable"><path d="M393.23,377.26l-.2-5.61h0a11.12,11.12,0,0,1,3,.67,9.27,9.27,0,0,1,1.43.83l.07-.17.79-2.06.18-.47-1-1-.48.23a10.51,10.51,0,0,0-4.1-1l-.11-3.09-1-.74,0,.78-1.32,0,.11,3.15c-4.32.56-6.29,3.11-6.19,6,.13,3.86,3.48,4.74,6.59,5.39l.19,5.56a10.7,10.7,0,0,1-5.63-1.92l-1.16,2.85a12.2,12.2,0,0,0,6.9,2.07l.08,2.33-1.09.06,1.11.7,2.28-.08-.11-3.12c4.35-.6,6.35-3.11,6.25-5.95C399.74,378.76,396.34,377.9,393.23,377.26Zm-2.3-.51c-1.63-.41-2.85-1-2.89-2.32s.75-2.25,2.72-2.62Zm2.1-5.11Zm.49,13.9-.17-4.92c1.68.42,2.93,1,3,2.37C396.37,384.19,395.54,385.17,393.52,385.54Z" id="eldhxcjf9l6r" class="animable" style="transform-origin: 392.112px 378.335px;"></path></g></g><path d="M392.66,387.84l.1,3.12-2.28.08-.1-3.09a12.2,12.2,0,0,1-6.9-2.07l1.16-2.85a10.7,10.7,0,0,0,5.63,1.92l-.19-5.56c-3.12-.65-6.46-1.53-6.59-5.4-.1-2.83,1.87-5.38,6.19-5.95l-.11-3.14,2.28-.08.11,3.09a11.92,11.92,0,0,1,5.7,1.5l-1,2.84a11.58,11.58,0,0,0-4.56-1.34l.2,5.62c3.11.64,6.51,1.5,6.65,5.36C399,384.73,397,387.25,392.66,387.84ZM390,376l-.17-4.95c-2,.38-2.77,1.41-2.72,2.63S388.33,375.61,390,376Zm5.4,6.24c-.05-1.36-1.3-1.95-3-2.37l.17,4.92C394.57,384.44,395.4,383.46,395.36,382.26Z" style="fill: rgb(249, 135, 0); transform-origin: 391.215px 377.93px;" id="el8juxe4rqxwn" class="animable"></path><path d="M385.47,376.25a1.81,1.81,0,0,1-.67-.62,3.43,3.43,0,0,1-.7-2.08,3.55,3.55,0,0,1,.7-2.08,2.08,2.08,0,0,1,.67-.62s-.24.25-.54.71a3.57,3.57,0,0,0,0,4C385.22,376,385.49,376.23,385.47,376.25Z" style="fill: rgb(255, 255, 255); transform-origin: 384.786px 373.55px;" id="eltmheg4biffp" class="animable"></path><path d="M390.13,367.57a2.09,2.09,0,0,1-.14-.91,2.11,2.11,0,0,1,.08-.92,2,2,0,0,1,.14.91A2,2,0,0,1,390.13,367.57Z" style="fill: rgb(255, 255, 255); transform-origin: 390.101px 366.655px;" id="eldt5ft53wuxd" class="animable"></path><path d="M392.68,355.42a3.38,3.38,0,0,1-.72,0c-.23,0-.51,0-.84,0s-.69,0-1.1,0-.86.05-1.34.1-1,.13-1.52.21A23.21,23.21,0,0,0,380.5,358c-.47.26-.93.49-1.34.75s-.79.5-1.12.73-.64.45-.9.64a7.66,7.66,0,0,0-.66.52,4.54,4.54,0,0,1-.57.43,4.24,4.24,0,0,1,.51-.5c.17-.16.38-.34.64-.54s.55-.45.89-.68.7-.5,1.12-.75.86-.51,1.34-.78a24.34,24.34,0,0,1,3.27-1.4,25.31,25.31,0,0,1,3.44-.85c.55-.07,1.06-.15,1.54-.19s.94-.06,1.35-.07.79,0,1.12,0a15.41,15.41,0,0,1,1.55.13Z" style="fill: rgb(255, 255, 255); transform-origin: 384.295px 358.188px;" id="elnz0zj6d1h6" class="animable"></path><g id="ell4bigde8vgd"><circle cx="445.95" cy="390.36" r="14.06" style="fill: rgb(249, 135, 0); transform-origin: 445.95px 390.36px; transform: rotate(-0.55deg);" class="animable"></circle></g><g id="el67cevrb2zxt"><g style="opacity: 0.1; transform-origin: 438.744px 383.58px;" class="animable"><path d="M445.46,376.31a14.06,14.06,0,0,0-13.56,14.54s9.89.1,12.12-4S445.46,376.31,445.46,376.31Z" style="fill: rgb(255, 255, 255); transform-origin: 438.744px 383.58px;" id="elb9lggcmqs6" class="animable"></path></g></g><path d="M456.39,389.77a10.68,10.68,0,1,1-11.05-10.3A10.67,10.67,0,0,1,456.39,389.77Z" style="fill: rgb(249, 135, 0); transform-origin: 445.717px 390.143px;" id="elu7e4t0nxek" class="animable"></path><g id="elbahtcp6q7ki"><g style="opacity: 0.2; transform-origin: 445.717px 390.143px;" class="animable"><path d="M456.39,389.77a10.68,10.68,0,1,1-11.05-10.3A10.67,10.67,0,0,1,456.39,389.77Z" id="elth0xlla979d" class="animable" style="transform-origin: 445.717px 390.143px;"></path></g></g><g id="elfwaycanghv"><circle cx="446.18" cy="390.57" r="10.54" style="fill: rgb(249, 135, 0); transform-origin: 446.18px 390.57px; transform: rotate(-12.56deg);" class="animable"></circle></g><g id="elsyy2zopn9l"><g style="opacity: 0.2; transform-origin: 446.18px 390.57px;" class="animable"><g id="el2yz2p7mugmx"><circle cx="446.18" cy="390.57" r="10.54" style="fill: rgb(255, 255, 255); transform-origin: 446.18px 390.57px; transform: rotate(-12.56deg);" class="animable"></circle></g></g></g><path d="M446.56,389.65l-.09-2.7h0a6,6,0,0,1,1.45.32,4.76,4.76,0,0,1,.68.4l0-.08.38-1,.09-.22-.5-.49-.23.11a5.06,5.06,0,0,0-2-.49l-.05-1.49-.48-.35,0,.37-.64,0,.06,1.51c-2.08.27-3,1.5-3,2.86.07,1.86,1.67,2.28,3.17,2.59l.09,2.67a5.19,5.19,0,0,1-2.71-.92l-.55,1.37a5.78,5.78,0,0,0,3.31,1l0,1.12-.52,0,.53.34,1.1,0-.06-1.5c2.09-.29,3.05-1.5,3-2.86C449.69,390.37,448.06,390,446.56,389.65Zm-1.1-.25c-.78-.2-1.37-.47-1.39-1.11s.36-1.08,1.31-1.26Zm1-2.45Zm.23,6.68-.08-2.37c.81.2,1.41.49,1.43,1.14S447.67,393.44,446.7,393.63Z" style="fill: rgb(249, 135, 0); transform-origin: 445.912px 390.115px;" id="el00kfefc7d49zr" class="animable"></path><g id="elksngmpkfufo"><g style="opacity: 0.3; transform-origin: 445.912px 390.115px;" class="animable"><path d="M446.56,389.65l-.09-2.7h0a6,6,0,0,1,1.45.32,4.76,4.76,0,0,1,.68.4l0-.08.38-1,.09-.22-.5-.49-.23.11a5.06,5.06,0,0,0-2-.49l-.05-1.49-.48-.35,0,.37-.64,0,.06,1.51c-2.08.27-3,1.5-3,2.86.07,1.86,1.67,2.28,3.17,2.59l.09,2.67a5.19,5.19,0,0,1-2.71-.92l-.55,1.37a5.78,5.78,0,0,0,3.31,1l0,1.12-.52,0,.53.34,1.1,0-.06-1.5c2.09-.29,3.05-1.5,3-2.86C449.69,390.37,448.06,390,446.56,389.65Zm-1.1-.25c-.78-.2-1.37-.47-1.39-1.11s.36-1.08,1.31-1.26Zm1-2.45Zm.23,6.68-.08-2.37c.81.2,1.41.49,1.43,1.14S447.67,393.44,446.7,393.63Z" id="eljus019gm9nf" class="animable" style="transform-origin: 445.912px 390.115px;"></path></g></g><path d="M446.29,394.73l0,1.5-1.09,0-.06-1.49a5.8,5.8,0,0,1-3.31-1l.56-1.37a5.15,5.15,0,0,0,2.7.92l-.09-2.67c-1.49-.31-3.1-.73-3.17-2.59,0-1.36.9-2.59,3-2.86l-.05-1.51,1.09,0,.05,1.48a5.75,5.75,0,0,1,2.74.72l-.5,1.37a5.42,5.42,0,0,0-2.19-.64l.1,2.7c1.49.3,3.13.71,3.19,2.57C449.34,393.23,448.38,394.44,446.29,394.73Zm-1.3-5.68-.08-2.37c-.94.18-1.33.67-1.31,1.26S444.21,388.85,445,389.05Zm2.6,3c0-.65-.63-.94-1.43-1.14l.08,2.37C447.21,393.09,447.61,392.63,447.59,392.05Z" style="fill: rgb(249, 135, 0); transform-origin: 445.547px 389.945px;" id="elax01q5ek80u" class="animable"></path><path d="M442.84,389.16a.87.87,0,0,1-.33-.29,1.75,1.75,0,0,1-.33-1,1.63,1.63,0,0,1,.34-1c.16-.22.31-.31.32-.3s-.12.12-.26.34a1.74,1.74,0,0,0-.3,1,1.7,1.7,0,0,0,.3.95C442.72,389,442.85,389.15,442.84,389.16Z" style="fill: rgb(255, 255, 255); transform-origin: 442.51px 387.865px;" id="elgswajecdbdd" class="animable"></path><path d="M445.08,385s-.06-.19-.07-.44a.22.22,0,1,1,.1,0A1,1,0,0,1,445.08,385Z" style="fill: rgb(255, 255, 255); transform-origin: 445.06px 384.563px;" id="ele619lu88i2g" class="animable"></path><path d="M446.3,379.16H445c-.2,0-.41,0-.64,0s-.47.06-.73.1a11.55,11.55,0,0,0-1.64.41,14.36,14.36,0,0,0-1.56.66c-.23.13-.45.24-.64.36l-.54.35-.44.31-.31.25a2,2,0,0,1-.28.21l.25-.24a3.15,3.15,0,0,1,.31-.27c.12-.09.26-.21.42-.32a6.32,6.32,0,0,1,.54-.36c.2-.13.42-.25.65-.37a10.43,10.43,0,0,1,1.57-.68,10.11,10.11,0,0,1,1.65-.4c.26,0,.51-.08.74-.1l.65,0h.53a2.37,2.37,0,0,1,.41,0A1.91,1.91,0,0,1,446.3,379.16Z" style="fill: rgb(255, 255, 255); transform-origin: 442.26px 380.436px;" id="el6bnzmw0vkjs" class="animable"></path><circle cx="239.27" cy="389.33" r="11.39" style="fill: rgb(249, 135, 0); transform-origin: 239.27px 389.33px;" id="elmfx7j599nt" class="animable"></circle><circle cx="303.77" cy="343.77" r="11.39" style="fill: rgb(249, 135, 0); transform-origin: 303.77px 343.77px;" id="el543wfn63q86" class="animable"></circle><circle cx="515.42" cy="247.75" r="11.39" style="fill: rgb(249, 135, 0); transform-origin: 515.42px 247.75px;" id="el5bjux4b41n" class="animable"></circle></g><g id="freepik--Funnel--inject-31" class="animable" style="transform-origin: 403.46px 188.255px;"><path d="M369.29,125.55a41.74,41.74,0,0,1,10.28-4.47l2.12-10.19,17.21-.3,2.47,10.1a42.17,42.17,0,0,1,10.44,4.11l8.7-5.7,12.38,12-5.39,8.89A42.36,42.36,0,0,1,432,150.23l10.18,2.12.3,17.21L432.35,172a42.14,42.14,0,0,1-4.1,10.44l5.69,8.7L422,203.54l-8.89-5.38a42.41,42.41,0,0,1-10.29,4.47l-2.12,10.18-17.2.3L381,203a42.25,42.25,0,0,1-10.43-4.11l-8.7,5.7L349.5,192.65l5.39-8.89a42.19,42.19,0,0,1-4.47-10.29l-10.18-2.12-.3-17.2,10.1-2.48a42.69,42.69,0,0,1,4.1-10.44l-5.69-8.69,11.95-12.38,8.89,5.39Zm9.17,22.92a18.46,18.46,0,1,0,26.1-.46A18.45,18.45,0,0,0,378.46,148.47Z" style="fill: rgb(224, 224, 224); transform-origin: 391.21px 161.85px;" id="elzna57gd1kd8" class="animable"></path><path d="M429.66,57.52a24.39,24.39,0,0,1,6-2.61L436.9,49,447,48.79l1.45,5.9a24.4,24.4,0,0,1,6.1,2.39l5.07-3.32,7.23,7-3.14,5.19a24.39,24.39,0,0,1,2.61,6l5.94,1.23.18,10-5.9,1.45a24.82,24.82,0,0,1-2.4,6.1l3.33,5.07-7,7.23-5.19-3.14a24.39,24.39,0,0,1-6,2.61L448,108.49l-10.05.17-1.44-5.9a24.66,24.66,0,0,1-6.1-2.4l-5.08,3.33-7.23-7,3.15-5.19a24.39,24.39,0,0,1-2.61-6l-5.95-1.24-.17-10,5.9-1.44a24.25,24.25,0,0,1,2.39-6.1l-3.32-5.08,7-7.23,5.19,3.15ZM435,70.91a10.78,10.78,0,1,0,15.25-.27A10.78,10.78,0,0,0,435,70.91Z" style="fill: rgb(224, 224, 224); transform-origin: 442.48px 78.725px;" id="el2uvbq7z413f" class="animable"></path><path d="M388.34,68.9a9.62,9.62,0,0,0,7.13-7.81c.9-5.23-2.33-10.16-7.24-11s-9.6,2.7-10.51,7.92a9.58,9.58,0,0,0,4.16,9.8c-14-.25-15.91,14.71-15.91,14.71l32.3,5.62S401.55,73.24,388.34,68.9Z" style="fill: rgb(69, 90, 100); transform-origin: 382.301px 69.0533px;" id="el7cajp3ogo43" class="animable"></path><path d="M498.36,98a8.43,8.43,0,0,0,1.69-9.13,7.93,7.93,0,1,0-14.66,5.94,8.41,8.41,0,0,0,7.65,5.37c-10.57,6.32-5,18.35-5,18.35l26.67-10.8S510.22,95.1,498.36,98Z" style="fill: rgb(249, 135, 0); transform-origin: 499.641px 100.952px;" id="ela04yi5hmn9m" class="animable"></path><g id="elkyzxkycnci"><rect x="479.37" y="137.62" width="8.93" height="17.61" style="fill: rgb(69, 90, 100); transform-origin: 483.835px 146.425px; transform: rotate(12.88deg);" class="animable"></rect></g><g id="elewz7gjuhore"><rect x="465.88" y="141.54" width="8.93" height="10.7" style="fill: rgb(69, 90, 100); transform-origin: 470.345px 146.89px; transform: rotate(12.88deg);" class="animable"></rect></g><g id="el543f9nyicka"><rect x="492.87" y="131.53" width="8.93" height="26.67" style="fill: rgb(69, 90, 100); transform-origin: 497.335px 144.865px; transform: rotate(12.88deg);" class="animable"></rect></g><polygon points="299.52 170.21 362.76 271.53 376.87 327.72 398.73 327.72 398.73 171.9 299.52 170.21" style="fill: rgb(249, 135, 0); transform-origin: 349.125px 248.965px;" id="elpzg9da2r82" class="animable"></polygon><polygon points="383.85 171.9 383.85 327.72 405.71 327.72 419.82 271.53 483.06 170.21 383.85 171.9" style="fill: rgb(249, 135, 0); transform-origin: 433.455px 248.965px;" id="elx1cu7iri2up" class="animable"></polygon><path d="M480.78,182H302.21a10.05,10.05,0,0,1-10-10h0a10.05,10.05,0,0,1,10-10.05H480.78a10,10,0,0,1,10,10.05h0A10,10,0,0,1,480.78,182Z" style="fill: rgb(249, 135, 0); transform-origin: 391.495px 171.975px;" id="eli0nlx7thj18" class="animable"></path><path d="M483.06,182.3c0,.14-40.56.26-90.59.26s-90.6-.12-90.6-.26,40.56-.26,90.6-.26S483.06,182.16,483.06,182.3Z" style="fill: rgb(38, 50, 56); transform-origin: 392.465px 182.3px;" id="elmysrigzb68q" class="animable"></path><g id="elujcbxos7cm"><g style="opacity: 0.2; transform-origin: 354.515px 256.305px;" class="animable"><polygon points="319.8 184.9 377.04 270.44 384.28 327.71 388.45 327.71 389.23 270.06 352.98 184.9 319.8 184.9" style="fill: rgb(255, 255, 255); transform-origin: 354.515px 256.305px;" id="elfpplqe6i1vw" class="animable"></polygon></g></g><path d="M409.06,271.53c0,.15-10.14.26-22.64.26s-22.64-.11-22.64-.26,10.13-.26,22.64-.26S409.06,271.39,409.06,271.53Z" style="fill: rgb(38, 50, 56); transform-origin: 386.42px 271.53px;" id="el8jusb442l6b" class="animable"></path></g><g id="freepik--Character--inject-31" class="animable" style="transform-origin: 278.362px 173.354px;"><path d="M199.68,198a25.92,25.92,0,0,0-3.68,5.82c-.76,2.08-.41,5.41-.38,7.35s1,2.35,1.92,2.28.48-4.26.48-4.26,2,11.51,3.93,11,1.51-.33,1.51-.33.1,2.73,1.86,2.4,1.12-2.2,1.12-2.2a1.67,1.67,0,0,0,2.35-1.13c.52-1.89.3-8,.3-8l3.36-3.1-.53-7.54a2.93,2.93,0,0,1-2.91-2.91c0-2.86,3.39-16.88,3.39-16.88l1.92-9.15-12.92-3.06Z" style="fill: rgb(255, 191, 157); transform-origin: 204.917px 195.289px;" id="el4huznmoif5w" class="animable"></path><path d="M296.16,273.69c-.4.89-10.72,26-10.72,26L273.62,296l6.22-27.27Z" style="fill: rgb(255, 191, 157); transform-origin: 284.89px 284.21px;" id="elqfj2spsa5b9" class="animable"></path><path d="M274.66,290.06s7.33,9.62,13.7,5.25l.31,3.18-.86,21.64a2.82,2.82,0,0,1-2.51,2.74,2.71,2.71,0,0,1-2.58-1.38c-2.72-4.89-12.66-22.94-12-24.74l1.59-4.89a2.6,2.6,0,0,1,2.3-1.8Z" style="fill: rgb(69, 90, 100); transform-origin: 279.679px 306.469px;" id="el0qq46w0hqjq" class="animable"></path><g id="el8hz5ekn81r"><g style="opacity: 0.6; transform-origin: 277.786px 308.93px;" class="animable"><path d="M284.8,322.86,271.3,295l-.33,1.07a3.13,3.13,0,0,0,.22,2.66c.95,2.72,3.94,9.06,11.46,22.7a2.69,2.69,0,0,0,2.15,1.39Z" style="fill: rgb(255, 255, 255); transform-origin: 277.786px 308.93px;" id="el394mj68bpi9" class="animable"></path></g></g><g id="eldagtoj15x8w"><g style="opacity: 0.6; transform-origin: 274.061px 293.751px;" class="animable"><path d="M275.25,292.77a1.64,1.64,0,0,1-.2,2.18,1.56,1.56,0,0,1-2.16-.18,1.73,1.73,0,0,1,.22-2.31,1.64,1.64,0,0,1,2.23.44" style="fill: rgb(255, 255, 255); transform-origin: 274.061px 293.751px;" id="elty23r20o16k" class="animable"></path></g></g><path d="M282.41,310a8.14,8.14,0,0,1,2.82-1.29,8.4,8.4,0,0,1,3.09.34c0-.06-.22-.35-.79-.62a4.3,4.3,0,0,0-2.39-.29,4.2,4.2,0,0,0-2.18,1C282.5,309.62,282.35,310,282.41,310Z" style="fill: rgb(38, 50, 56); transform-origin: 285.359px 309.042px;" id="elzzlopl2bxh" class="animable"></path><path d="M283.17,314a25.18,25.18,0,0,1,2.58-.4,25.24,25.24,0,0,1,2.57.44,3.82,3.82,0,0,0-5.15,0Z" style="fill: rgb(38, 50, 56); transform-origin: 285.745px 313.541px;" id="el3gxw2jrtej4" class="animable"></path><path d="M280.38,304.64c.09.16,1.72-.73,3.94-.88a27.46,27.46,0,0,1,4,.27,6,6,0,0,0-4.06-.85A6.06,6.06,0,0,0,280.38,304.64Z" style="fill: rgb(38, 50, 56); transform-origin: 284.35px 303.887px;" id="el3ux9v74308t" class="animable"></path><path d="M281.83,298.42c0,.18,1.6,0,3.44.51s3.15,1.38,3.25,1.24a5.2,5.2,0,0,0-3.1-1.8A5.33,5.33,0,0,0,281.83,298.42Z" style="fill: rgb(38, 50, 56); transform-origin: 285.175px 299.134px;" id="el5jr0t5ihky5" class="animable"></path><path d="M286.32,299.2a2,2,0,0,0,.15-1,6.84,6.84,0,0,0-.48-2.7,3.16,3.16,0,0,0-1.14-1.62,1.11,1.11,0,0,0-1.25.1,1.78,1.78,0,0,0-.56,1.14,3.84,3.84,0,0,0,2.93,3.92,4.46,4.46,0,0,0,4.61-1.81,1.52,1.52,0,0,0,.22-1.26,1.08,1.08,0,0,0-1-.7,3.8,3.8,0,0,0-1.84.7,7.6,7.6,0,0,0-2,1.84,2.35,2.35,0,0,0-.51.86,12.12,12.12,0,0,1,2.76-2.34,3.4,3.4,0,0,1,1.61-.57.58.58,0,0,1,.58.37,1.09,1.09,0,0,1-.2.83,4,4,0,0,1-4,1.51,3.33,3.33,0,0,1-2.54-3.29,1.3,1.3,0,0,1,.36-.81.59.59,0,0,1,.69-.06,2.83,2.83,0,0,1,1,1.35A10.28,10.28,0,0,1,286.32,299.2Z" style="fill: rgb(38, 50, 56); transform-origin: 286.943px 296.467px;" id="elbi74xirnazj" class="animable"></path><path d="M286.51,271c.27.93,8.93,26.65,8.93,26.65l-11.35,5L270.92,278Z" style="fill: rgb(255, 191, 157); transform-origin: 283.18px 286.825px;" id="elkeqnz01jfd" class="animable"></path><path d="M281,297.46s11.84,2.46,13.79-5l2.32,2.19,13.53,16.92a2.81,2.81,0,0,1-.1,3.71,2.69,2.69,0,0,1-2.85.65c-5.27-1.91-24.6-9-25.24-10.86l-2-4.73a2.6,2.6,0,0,1,.56-2.87Z" style="fill: rgb(69, 90, 100); transform-origin: 295.765px 304.277px;" id="ela7aueg27xf" class="animable"></path><g id="elrz7jah3rzz"><g style="opacity: 0.6; transform-origin: 295.925px 309.764px;" class="animable"><path d="M310.14,315.59l-28.43-12.16.46,1c.39,1.16,1.07,1.39,1.91,1.87,2.49,1.43,8.91,4.26,23.53,9.63a2.67,2.67,0,0,0,2.53-.36Z" style="fill: rgb(255, 255, 255); transform-origin: 295.925px 309.764px;" id="eln7drjarci68" class="animable"></path></g></g><g id="elb7qle2m7f0t"><g style="opacity: 0.6; transform-origin: 282.944px 300.648px;" class="animable"><path d="M283.21,299.12a1.63,1.63,0,0,1,1.28,1.78,1.57,1.57,0,0,1-1.75,1.28,1.72,1.72,0,0,1-1.34-1.89,1.63,1.63,0,0,1,2-1.13" style="fill: rgb(255, 255, 255); transform-origin: 282.944px 300.648px;" id="eljmgkbu76kbo" class="animable"></path></g></g><path d="M299.92,307.46a5.87,5.87,0,0,1,3.84-4.59c0-.07-.39-.12-1,.05a4.25,4.25,0,0,0-2,1.35,4.09,4.09,0,0,0-1,2.2C299.73,307.1,299.85,307.47,299.92,307.46Z" style="fill: rgb(38, 50, 56); transform-origin: 301.758px 305.133px;" id="el6faxhhok5h4" class="animable"></path><path d="M303.08,309.94c.16.06.59-1.08,1.69-2s2.26-1.18,2.23-1.35a3.82,3.82,0,0,0-3.92,3.34Z" style="fill: rgb(38, 50, 56); transform-origin: 305.04px 308.265px;" id="elt6cjemf2p2j" class="animable"></path><path d="M294.87,304.73a28.18,28.18,0,0,1,2.39-3.25,25.9,25.9,0,0,1,3.23-2.43,7.42,7.42,0,0,0-5.62,5.68Z" style="fill: rgb(38, 50, 56); transform-origin: 297.68px 301.89px;" id="elay0f9wfiwyk" class="animable"></path><path d="M291.89,299.08c.13.12,1.22-1,2.93-1.87s3.28-1,3.26-1.2a6.73,6.73,0,0,0-6.19,3.07Z" style="fill: rgb(38, 50, 56); transform-origin: 294.985px 297.539px;" id="elqb6kd9j908p" class="animable"></path><path d="M295.79,296.72a2.29,2.29,0,0,0-.53-.84,6.85,6.85,0,0,0-2.14-1.72,3,3,0,0,0-1.92-.48,1.08,1.08,0,0,0-.88.89,1.8,1.8,0,0,0,.32,1.23,3.84,3.84,0,0,0,4.78,1,4.43,4.43,0,0,0,2.3-4.38,1.54,1.54,0,0,0-.66-1.11,1.07,1.07,0,0,0-1.24.17,3.7,3.7,0,0,0-.93,1.73,7.53,7.53,0,0,0-.34,2.72,2.2,2.2,0,0,0,.18,1,12,12,0,0,1,.55-3.57,3.61,3.61,0,0,1,.84-1.49.57.57,0,0,1,.68-.09,1,1,0,0,1,.4.75,4,4,0,0,1-2.05,3.77,3.31,3.31,0,0,1-4.06-.82,1.32,1.32,0,0,1-.27-.85.61.61,0,0,1,.48-.5,2.83,2.83,0,0,1,1.64.37A10.41,10.41,0,0,1,295.79,296.72Z" style="fill: rgb(38, 50, 56); transform-origin: 294.028px 294.212px;" id="elurcfo868m9f" class="animable"></path><path d="M219.65,205c.46,0,28.6,21,30.18,23.1s2.88,17.39,8,31.5,21,34.24,21,34.24L293,289.19s-13.39-59.66-16.46-69.33-11.34-25.75-11.34-25.75l-6.14-8.24L257.81,172l-38.76.43c-.46,0-7,12.26-5.19,23.53C214.78,201.68,219.65,205,219.65,205Z" style="fill: rgb(38, 50, 56); transform-origin: 253.272px 232.92px;" id="ell35q2pe4ke" class="animable"></path><path d="M306.61,197.81c-3.56-10.9-26.15-25.48-26.15-25.48l-3.79-.76-22.72.34s.9,10.48.91,10.94S266,208,266,208l14.34,9.35,2.5,2.74s-3.22,11.57-4,20.58.55,36.09.55,36.09L295,279.13s11.72-41.37,13-48.17S310.16,208.71,306.61,197.81Z" style="fill: rgb(38, 50, 56); transform-origin: 281.536px 225.35px;" id="eltnp4092b2rk" class="animable"></path><path d="M245.6,177.43a3.13,3.13,0,0,1,.94.15,18.48,18.48,0,0,1,2.46.78c.51.19,1.06.43,1.64.7a9.27,9.27,0,0,1,1.79,1.05c.59.41,1.18.87,1.83,1.29a8,8,0,0,0,1,.55,1.86,1.86,0,0,0,.51.16.59.59,0,0,0,.42-.1,11.83,11.83,0,0,0,1.63-1.68,18.25,18.25,0,0,1,1.77-1.45,23.09,23.09,0,0,1,5.51-3.25,3.21,3.21,0,0,1,.9-.3c0,.08-1.2.62-3,1.74a23.37,23.37,0,0,0-3.08,2.19c-.53.45-1.18.89-1.68,1.41a11.07,11.07,0,0,1-1.73,1.78,1.11,1.11,0,0,1-.76.17,2.59,2.59,0,0,1-.65-.19,7.85,7.85,0,0,1-1.07-.61c-.66-.44-1.26-.9-1.83-1.33a10,10,0,0,0-1.7-1c-.56-.29-1.1-.54-1.59-.75C246.88,177.84,245.58,177.51,245.6,177.43Z" style="fill: rgb(69, 90, 100); transform-origin: 255.8px 178.98px;" id="elqmezxumwr6p" class="animable"></path><path d="M293,289.19a2.05,2.05,0,0,1-.09-.28l-.22-.84c-.19-.77-.46-1.85-.81-3.22C291.2,282,290.21,278,289,273c-2.46-10-5.81-23.86-9.77-39.09-2-7.6-3.91-14.87-6.05-21.32a50.94,50.94,0,0,0-4.24-8.63c-1.49-2.64-2.93-5.07-4.24-7.29l-6.27-10.48-1.71-2.85-.44-.74a1.56,1.56,0,0,1-.13-.26s.07.07.18.23l.48.72,1.79,2.8c1.54,2.43,3.75,6,6.42,10.39,1.33,2.21,2.78,4.63,4.29,7.26q1.14,2,2.3,4.11a28,28,0,0,1,2,4.58c2.17,6.48,4.08,13.74,6.09,21.35,4,15.23,7.26,29.09,9.63,39.13,1.15,5,2.08,9.06,2.74,11.9l.71,3.25.17.85A.92.92,0,0,1,293,289.19Z" style="fill: rgb(69, 90, 100); transform-origin: 274.575px 235.765px;" id="ell2qdnna6rqm" class="animable"></path><polygon points="318.49 112.99 310.08 119.34 317.54 128.2 325.17 120.14 318.49 112.99" style="fill: rgb(255, 191, 157); transform-origin: 317.625px 120.595px;" id="el4l7siaau8p" class="animable"></polygon><path d="M323.05,121.2c2.4-.85,3.49-1.53,5.25-1.71a13.31,13.31,0,0,0,5.46-1.45,4.81,4.81,0,0,0,1.17-8.11,16,16,0,0,0-3.27-2.32l-5.17-.26-8,8Z" style="fill: rgb(255, 191, 157); transform-origin: 327.575px 114.275px;" id="eldivin9q8c9s" class="animable"></path><path d="M333.86,89.84a15.92,15.92,0,0,1,3.84-1.67l.79-3.8,6.43-.11.93,3.77a15.81,15.81,0,0,1,3.9,1.53L353,87.43l4.63,4.47-2,3.32a16,16,0,0,1,1.67,3.85l3.8.79.11,6.43-3.77.92a15.31,15.31,0,0,1-1.54,3.9l2.13,3.25L353.55,119l-3.32-2a15.6,15.6,0,0,1-3.85,1.67l-.79,3.81-6.43.11-.92-3.78a15.66,15.66,0,0,1-3.9-1.53l-3.25,2.13-4.63-4.47,2-3.32a15.53,15.53,0,0,1-1.67-3.84L323,107l-.11-6.43,3.77-.93a16.24,16.24,0,0,1,1.54-3.9l-2.13-3.25,4.46-4.62,3.33,2Zm3.42,8.57a6.9,6.9,0,1,0,9.75-.18A6.9,6.9,0,0,0,337.28,98.41Z" style="fill: rgb(235, 235, 235); transform-origin: 342.05px 103.425px;" id="el4gj2bp8r8em" class="animable"></path><path d="M326.92,103.61c-3,1.52-7.43,7.34-9.6,10.33l3.24,3.71a8.88,8.88,0,0,0,6.89-2.39,10.78,10.78,0,0,0,2.7-7.61c6.39.11,8.5-2.48,8-4.35C334.81,103.2,327.77,103.18,326.92,103.61Z" style="fill: rgb(255, 191, 157); transform-origin: 327.77px 110.463px;" id="elfvpmp6sopte" class="animable"></path><path d="M329.78,107.71a3.38,3.38,0,0,1,.25,2,7.33,7.33,0,0,1-2.18,4.37,10.69,10.69,0,0,1-4.21,2.48,5.44,5.44,0,0,1-2,.4,13.22,13.22,0,0,1,1.85-.75,12.14,12.14,0,0,0,4-2.5,7.69,7.69,0,0,0,2.17-4C329.87,108.49,329.69,107.73,329.78,107.71Z" style="fill: rgb(255, 154, 108); transform-origin: 325.862px 112.335px;" id="eldu2jurnnujc" class="animable"></path><path d="M308.9,117.87l-13.33,8.25s-4.67-9.35-9.35-21.63c-5.13-13.45-11.6-13.35-11.6-13.35l-3.13,30L276,132.65s6.79,12.44,10.21,13.93c12,5.23,32.52-17,32.52-17Z" style="fill: rgb(249, 135, 0); transform-origin: 295.11px 119.258px;" id="elh1h8tnnlveo" class="animable"></path><path d="M283.15,122.59c1.23-7.79,1.52-20.5-2.76-27.34a17.68,17.68,0,0,0-6.05-4.76c-4.26-1.53-14-3.86-14.37-4.25s-17.15,0-22.29.2c-.67,0-.44.08-.44.08L224.89,91.6A5,5,0,0,0,222,96.78l3.66,29.75S227,137,227.2,139.62s-1.51,6.58-1.51,6.58c-1.33,3.31-4.9,13.61-7.27,20.51a5,5,0,0,0,4.68,6.64l55.34-1.16c2.81,0,4.12-.08,3.48-2.82-1.41-6.08-3.9-6.87-4.39-11.36-.62-5.75,1.26-22.78,1.39-23.18S281.57,132.65,283.15,122.59Z" style="fill: rgb(249, 135, 0); transform-origin: 251.045px 129.712px;" id="elrfck062s92n" class="animable"></path><path d="M224,92.18s-11.71,4.7-13.72,22.4-6.46,33.82-7.27,42.27a89.87,89.87,0,0,1-1.56,11.4l13.29,3.15,8.16-27.3,3-15.84,2.29-12.74Z" style="fill: rgb(249, 135, 0); transform-origin: 214.82px 131.79px;" id="elrmtf926e0ao" class="animable"></path><path d="M274.87,103a7.05,7.05,0,0,1,.95,1.08,28.3,28.3,0,0,1,2.19,3.27,31.36,31.36,0,0,1,2.68,25.16,27.11,27.11,0,0,1-1.45,3.66,6.21,6.21,0,0,1-.7,1.26,8.42,8.42,0,0,1,.52-1.34,36.53,36.53,0,0,0,1.28-3.68,32.74,32.74,0,0,0-2.66-24.88,34.16,34.16,0,0,0-2-3.33A7.9,7.9,0,0,1,274.87,103Z" style="fill: rgb(38, 50, 56); transform-origin: 278.523px 120.215px;" id="elacfuo18dlkb" class="animable"></path><path d="M221.44,111.26c.14,0,1.43,4.75,2.9,10.68s2.53,10.78,2.39,10.81-1.44-4.75-2.9-10.68S221.3,111.3,221.44,111.26Z" style="fill: rgb(38, 50, 56); transform-origin: 224.085px 122.005px;" id="elpjmkotcuptc" class="animable"></path><path d="M274.25,163.75a10.22,10.22,0,0,1-1.65.36c-1.07.19-2.63.44-4.55.7-3.85.52-9.2,1.05-15.13,1.25s-11.31,0-15.18-.23c-1.94-.13-3.51-.27-4.59-.39a11.32,11.32,0,0,1-1.67-.24,10.37,10.37,0,0,1,1.69,0l4.59.23c3.87.17,9.23.28,15.14.08s11.25-.67,15.1-1.1l4.57-.54A11.29,11.29,0,0,1,274.25,163.75Z" style="fill: rgb(38, 50, 56); transform-origin: 252.865px 164.946px;" id="eldn5pv3a2qf9" class="animable"></path><path d="M264.79,36.12c4.63.11,8.6,7,7.91,10.87-.34,1.88-1.19,4,.33,5.43s4.68,1.27,6.12,2.69a5.9,5.9,0,0,1,1.63,4.21c-.2,2.38.18,5.54,2.08,6.39l-9.41,3.36c-1-1-1.35-2.53-2.32-3.51,1.11,1,2.18,4.7-2.85,5.11l-3.12-2.76c-8.56,2.19-17.55,4.92-24.38,1.2" style="fill: rgb(38, 50, 56); transform-origin: 261.82px 53.533px;" id="ela5437waeix9" class="animable"></path><path d="M221.22,56.69a53.54,53.54,0,0,0,2.06-5.26c.92-3.94-.92-8.43,1.07-12,1.41-2.51,4.35-3.7,7.12-4.5s5.42-1.26,7.51-3.25c1.53-1.45,2.43-3.48,4-4.94,2.18-2.07,5.35-2.73,8.36-2.86a18.11,18.11,0,0,1,9,1.64,9.93,9.93,0,0,1,5.45,7.08c.21,1.5,0,3,.44,4.5s1.7,2.83,2.44,4.32a7.93,7.93,0,0,1-2.17,9.47l-21.72,27c-4.48,1.6-9.36-4.1-12.74-7.46S219.65,61.19,221.22,56.69Z" style="fill: rgb(38, 50, 56); transform-origin: 245.222px 50.9981px;" id="elechofj72iz4" class="animable"></path><path d="M266,47.44c-.76-6.23-5.35-13.67-11.54-12.65l-19.18,6.05c-1.88.3-2.89,1.81-3.54,1.53L236.17,87l14.35,9.33,8.18-9.81s-.61-6.12-.6-6.09,7.91-1.79,9-12.31C267.59,62.85,266.84,54.37,266,47.44Z" style="fill: rgb(255, 191, 157); transform-origin: 249.498px 65.5128px;" id="elypikmeg6rn" class="animable"></path><path d="M250.54,57.79a1.34,1.34,0,0,1-1.21,1.42,1.29,1.29,0,0,1-1.45-1.12,1.34,1.34,0,0,1,1.21-1.43A1.28,1.28,0,0,1,250.54,57.79Z" style="fill: rgb(38, 50, 56); transform-origin: 249.21px 57.9344px;" id="elzcenzxfw8u" class="animable"></path><path d="M263.75,56a1.34,1.34,0,0,1-1.21,1.42,1.28,1.28,0,0,1-1.45-1.13,1.34,1.34,0,0,1,1.21-1.42A1.29,1.29,0,0,1,263.75,56Z" style="fill: rgb(38, 50, 56); transform-origin: 262.42px 56.1456px;" id="elf1okvglx1qv" class="animable"></path><path d="M264.76,52.21c-.15.24-1.37-.57-2.93-.37s-2.58,1.24-2.78,1,0-.51.47-1a3.63,3.63,0,0,1,2.19-1.11,3.55,3.55,0,0,1,2.37.57C264.62,51.72,264.84,52.1,264.76,52.21Z" style="fill: rgb(38, 50, 56); transform-origin: 261.874px 51.7913px;" id="elc3530f4rxcv" class="animable"></path><path d="M250.5,53.51c-.19.22-1.4-.69-3.07-.65s-2.88,1-3.07.75.1-.5.62-.92a4.09,4.09,0,0,1,2.45-.87,4,4,0,0,1,2.45.79C250.4,53,250.59,53.41,250.5,53.51Z" style="fill: rgb(38, 50, 56); transform-origin: 247.411px 52.7355px;" id="elb9e2uwkm6gr" class="animable"></path><path d="M256.12,63.43a9.52,9.52,0,0,1,2.31-.56c.37-.06.71-.15.76-.41a1.9,1.9,0,0,0-.31-1.07l-1.25-2.74c-1.74-3.89-3-7.11-2.86-7.17s1.69,3,3.43,6.93l1.21,2.75a2.12,2.12,0,0,1,.27,1.43.9.9,0,0,1-.57.57,2.37,2.37,0,0,1-.62.13A9.64,9.64,0,0,1,256.12,63.43Z" style="fill: rgb(38, 50, 56); transform-origin: 257.234px 57.4646px;" id="el7cghek9w8zq" class="animable"></path><path d="M258.1,80.4a26.58,26.58,0,0,1-14.19-2.92s4,7.43,14.33,5.86Z" style="fill: rgb(255, 154, 108); transform-origin: 251.075px 80.5189px;" id="ele0da20u5cc" class="animable"></path><path d="M255.71,66.93a2.61,2.61,0,0,0-2.38-.83,2.39,2.39,0,0,0-1.58,1,1.52,1.52,0,0,0,0,1.73,1.73,1.73,0,0,0,1.91.36,5.43,5.43,0,0,0,1.78-1.2,1.53,1.53,0,0,0,.39-.45.5.5,0,0,0,0-.54" style="fill: rgb(249, 135, 0); transform-origin: 253.695px 67.6983px;" id="eldwsk2cv582c" class="animable"></path><path d="M251.94,64.67c.23,0,.33,1.53,1.73,2.56s3.05.77,3.08,1-.36.32-1.06.38a3.89,3.89,0,0,1-2.56-.73,3.37,3.37,0,0,1-1.35-2.16C251.68,65.06,251.83,64.66,251.94,64.67Z" style="fill: rgb(38, 50, 56); transform-origin: 254.249px 66.6449px;" id="elozp3g8ldhfh" class="animable"></path><path d="M250.45,48.61c-.12.4-1.56.3-3.24.6s-3,.84-3.26.5c-.11-.16.11-.54.63-1a5.65,5.65,0,0,1,2.39-1,5.39,5.39,0,0,1,2.57.16C250.17,48.13,250.5,48.42,250.45,48.61Z" style="fill: rgb(38, 50, 56); transform-origin: 247.189px 48.7212px;" id="el97ilwgsoaa" class="animable"></path><path d="M264.32,47c-.27.35-1.42.07-2.78.14s-2.51.36-2.79,0c-.13-.16,0-.5.52-.84a4.27,4.27,0,0,1,2.23-.67,4.17,4.17,0,0,1,2.26.53C264.26,46.52,264.44,46.85,264.32,47Z" style="fill: rgb(38, 50, 56); transform-origin: 261.529px 46.4706px;" id="el7olva2vniew" class="animable"></path><path d="M215.05,54.69c1-1.82-.91-3.85.6-5.53,1.38-1.53,5-1.58,6.31-3.14a3.28,3.28,0,0,0,1.09-2.69c0-1.43.7-7.44,9.48-8.66l1.22,5.47a17.18,17.18,0,0,1,1.67-.68,95.64,95.64,0,0,1,22.19-5.2c.91,1.56,0,3.65-1.44,4.76a17.34,17.34,0,0,1-5,2.11c-1.71.6-3.47,1.55-4.2,3.2s-.19,3.89-.88,5.69c-1.18,3.09-5.55,4-6.72,7.12-.88,2.35.44,4.89.74,7.38a9.18,9.18,0,0,1-2.86,7.7c-1.66,1.51-4.47,4.26-4.66,3.71L209.11,61.2C207.77,57.9,213.7,57.18,215.05,54.69Z" style="fill: rgb(38, 50, 56); transform-origin: 233.444px 55.1308px;" id="eltcc7m0ybkn9" class="animable"></path><path d="M233.45,74.73a7.15,7.15,0,0,0,2-.69,10.08,10.08,0,0,0,4.27-3.91,10.26,10.26,0,0,0,.89-8.43c-.24-.78-.53-1.55-.73-2.37a5.55,5.55,0,0,1-.07-2.5,3.17,3.17,0,0,1,1.48-2,15.52,15.52,0,0,1,2.52-1.07,5.41,5.41,0,0,0,2.38-1.53,4.73,4.73,0,0,0,.89-2.6c.14-1.77-.16-3.52.44-5l.11-.27.15-.25a3.06,3.06,0,0,1,.33-.47,4,4,0,0,1,.86-.72,8.07,8.07,0,0,1,2-.84,14.68,14.68,0,0,0,3.78-1.4,8.24,8.24,0,0,0,3.49-4.58,8,8,0,0,0,.29-1.56,3.83,3.83,0,0,0,0-.55,11.21,11.21,0,0,1-.42,2.07,8,8,0,0,1-1.11,2.2,8.1,8.1,0,0,1-2.38,2.21,14.33,14.33,0,0,1-3.73,1.34,8.54,8.54,0,0,0-2.1.86,4.24,4.24,0,0,0-.93.77,2.61,2.61,0,0,0-.36.51l-.17.27-.12.29c-.65,1.59-.33,3.36-.48,5.08a4.33,4.33,0,0,1-.83,2.42,5,5,0,0,1-2.23,1.42,15.44,15.44,0,0,0-2.58,1.11,4.08,4.08,0,0,0-1,.94,3.38,3.38,0,0,0-.57,1.27,5.77,5.77,0,0,0,.08,2.65c.2.84.5,1.62.74,2.39A10.2,10.2,0,0,1,234,74.55,4.64,4.64,0,0,0,233.45,74.73Z" style="fill: rgb(38, 50, 56); transform-origin: 245.995px 54.36px;" id="el152rfg056kq" class="animable"></path><path d="M263.76,36.64a15.68,15.68,0,0,1,1.58-.28,7.57,7.57,0,0,1,4.23.84,7.4,7.4,0,0,1,3.73,5,13.71,13.71,0,0,1,.14,3.81c-.05.67-.13,1.35-.19,2a7.08,7.08,0,0,0,.08,2.15A2.51,2.51,0,0,0,274.58,52a4.39,4.39,0,0,0,2.08.38,7.51,7.51,0,0,1,1.92.16,4.7,4.7,0,0,1,1.63.81A4.55,4.55,0,0,1,282,56.15a9.4,9.4,0,0,1,0,3,20.63,20.63,0,0,0-.24,2.52,6.48,6.48,0,0,0,.22,1.9,3.88,3.88,0,0,0,.51,1.11c.07.11.15.19.19.25s.08.08.08.07a5.12,5.12,0,0,1-.65-1.46,6.85,6.85,0,0,1-.17-1.87,24.5,24.5,0,0,1,.3-2.49,9.82,9.82,0,0,0,.06-3.08,4.85,4.85,0,0,0-1.86-3,5,5,0,0,0-1.74-.87,7.49,7.49,0,0,0-2-.18,4.26,4.26,0,0,1-1.92-.34,2.22,2.22,0,0,1-1.08-1.57,15.56,15.56,0,0,1,.11-4.09,13.69,13.69,0,0,0-.17-3.91A7.6,7.6,0,0,0,269.68,37a7.34,7.34,0,0,0-4.35-.76,6.46,6.46,0,0,0-1.18.25A1.36,1.36,0,0,0,263.76,36.64Z" style="fill: rgb(38, 50, 56); transform-origin: 273.26px 50.589px;" id="elgg80lpx6ond" class="animable"></path><path d="M220.11,67.8l-.06-.16a3.54,3.54,0,0,1-.16-.47,4.19,4.19,0,0,1-.07-1.9,4.68,4.68,0,0,1,1.42-2.61,3.94,3.94,0,0,1,1.62-.9c.64-.18,1.36-.24,2.09-.48a2.91,2.91,0,0,0,1-.6,2.77,2.77,0,0,0,.68-1,6.13,6.13,0,0,0,.3-2.54,13.62,13.62,0,0,1,0-2.71,3.57,3.57,0,0,1,.44-1.31,3.29,3.29,0,0,1,1-1,8.84,8.84,0,0,1,2.82-1,9.29,9.29,0,0,0,3-1.11,3.77,3.77,0,0,0,1.14-1.21,5.27,5.27,0,0,0,.55-1.59c.21-1.11.21-2.25.42-3.36A6.52,6.52,0,0,1,240.33,39a11.23,11.23,0,0,1,3.09-.51,7.13,7.13,0,0,0,1.53-.29,3.09,3.09,0,0,0,1.33-.78,6.87,6.87,0,0,0,1.31-2.6,6.31,6.31,0,0,1,1.35-2.3,6.79,6.79,0,0,1,4.22-2.16,6.18,6.18,0,0,1,3.84.83,7.14,7.14,0,0,1,2.21,2.05,6.38,6.38,0,0,1,.84,1.71c.08.21.1.38.14.48l.05.17a5.32,5.32,0,0,0-.15-.66,6.17,6.17,0,0,0-.82-1.75,7.13,7.13,0,0,0-2.21-2.1,6.32,6.32,0,0,0-3.92-.88,7,7,0,0,0-4.33,2.19,6.67,6.67,0,0,0-1.4,2.36,6.5,6.5,0,0,1-1.27,2.53,4.29,4.29,0,0,1-2.74,1,11.53,11.53,0,0,0-3.14.52,6.68,6.68,0,0,0-4.19,5c-.22,1.14-.22,2.28-.43,3.36a5,5,0,0,1-.52,1.53A3.46,3.46,0,0,1,234,49.81c-1.79,1.16-4.07,1-5.8,2.12A3.57,3.57,0,0,0,227.19,53a3.69,3.69,0,0,0-.46,1.38,13.85,13.85,0,0,0,0,2.74,6,6,0,0,1-.28,2.48,2.69,2.69,0,0,1-.64,1,2.63,2.63,0,0,1-.95.56c-.7.25-1.42.32-2.08.51a4,4,0,0,0-1.66.94,4.66,4.66,0,0,0-1.42,2.68,4.17,4.17,0,0,0,.11,1.92,4.83,4.83,0,0,0,.18.47Z" style="fill: rgb(69, 90, 100); transform-origin: 239.938px 48.9884px;" id="elu09nzp3t9ye" class="animable"></path></g><defs>     <filter id="active" height="200%">         <feMorphology in="SourceAlpha" result="DILATED" operator="dilate" radius="2"></feMorphology>                <feFlood flood-color="#32DFEC" flood-opacity="1" result="PINK"></feFlood>        <feComposite in="PINK" in2="DILATED" operator="in" result="OUTLINE"></feComposite>        <feMerge>            <feMergeNode in="OUTLINE"></feMergeNode>            <feMergeNode in="SourceGraphic"></feMergeNode>        </feMerge>    </filter>    <filter id="hover" height="200%">        <feMorphology in="SourceAlpha" result="DILATED" operator="dilate" radius="2"></feMorphology>                <feFlood flood-color="#ff0000" flood-opacity="0.5" result="PINK"></feFlood>        <feComposite in="PINK" in2="DILATED" operator="in" result="OUTLINE"></feComposite>        <feMerge>            <feMergeNode in="OUTLINE"></feMergeNode>            <feMergeNode in="SourceGraphic"></feMergeNode>        </feMerge>            <feColorMatrix type="matrix" values="0   0   0   0   0                0   1   0   0   0                0   0   0   0   0                0   0   0   1   0 "></feColorMatrix>    </filter></defs></svg>