<svg class="animated" id="freepik_stories-ambassador" xmlns="http://www.w3.org/2000/svg" viewBox="0 0 500 500" version="1.1" xmlns:xlink="http://www.w3.org/1999/xlink" xmlns:svgjs="http://svgjs.com/svgjs"><style>svg#freepik_stories-ambassador:not(.animated) .animable {opacity: 0;}svg#freepik_stories-ambassador.animated #freepik--Stars--inject-825 {animation: 1s 1 forwards cubic-bezier(.36,-0.01,.5,1.38) slideLeft;animation-delay: 0s;}svg#freepik_stories-ambassador.animated #freepik--device-2--inject-825 {animation: 1.5s Infinite  linear floating;animation-delay: 0s;}svg#freepik_stories-ambassador.animated #freepik--device-1--inject-825 {animation: 1.5s Infinite  linear floating;animation-delay: 0s;}svg#freepik_stories-ambassador.animated #freepik--speech-bubble-6--inject-825 {animation: 1.5s Infinite  linear floating;animation-delay: 0s;}svg#freepik_stories-ambassador.animated #freepik--speech-bubble-3--inject-825 {animation: 1.5s Infinite  linear floating;animation-delay: 0s;}svg#freepik_stories-ambassador.animated #freepik--speech-bubble-1--inject-825 {animation: 1.5s Infinite  linear floating;animation-delay: 0s;}            @keyframes slideLeft {                0% {                    opacity: 0;                    transform: translateX(-30px);                }                100% {                    opacity: 1;                    transform: translateX(0);                }            }                    @keyframes floating {                0% {                    opacity: 1;                    transform: translateY(0px);                }                50% {                    transform: translateY(-10px);                }                100% {                    opacity: 1;                    transform: translateY(0px);                }            }        .animator-hidden { display: none; }</style><g id="freepik--Plant--inject-825" class="animable animator-hidden" style="transform-origin: 363.821px 412.255px;"><path d="M328,391.23c2.29,1,7.87.87,7.87.87s-1.2-3.66-1.3-3.88c-1.23-2.56-5.1-6.79-8.25-6.37a3.77,3.77,0,0,0-3,4.72C323.83,388.75,326.07,390.38,328,391.23Z" style="fill: rgb(38, 50, 56); transform-origin: 329.527px 386.963px;" id="elexppz71s4zu" class="animable"></path><path d="M329.94,407.4c2.37.34,7.35-1.1,7.75-1.22a65.61,65.61,0,0,0,3,8.36c.68,1.59,1.42,3.16,2.19,4.73-.46-.66-.87-1.25-.94-1.33-1.86-2.15-6.71-5.2-9.64-4a3.77,3.77,0,0,0-1.66,5.35c1.08,2,3.67,2.94,5.77,3.24s6.4-.83,7.52-1.15c.3.6.59,1.2.9,1.8,1.44,2.87,2.89,5.73,4.23,8.58.47,1,.9,2,1.33,3-.4-.6-.75-1.09-.81-1.16-1.86-2.15-6.71-5.21-9.64-4a3.76,3.76,0,0,0-1.67,5.34c1.09,2,3.67,2.95,5.77,3.25s6-.73,7.33-1.1c.41,1.05.82,2.09,1.18,3.12.22.71.49,1.37.67,2.09s.4,1.42.59,2.12c.33,1.36.67,2.76,1,4.09.2.93.38,1.82.56,2.71-.46-1-1.39-3-1.49-3.11-1.51-2.4-5.85-6.16-8.93-5.38a3.78,3.78,0,0,0-2.46,5c.77,2.11,3.19,3.46,5.21,4.08,2.24.68,7.18.06,7.8,0,.3,1.47.57,2.91.81,4.28.17,1,.34,2,.49,2.91h2c-.19-1-.4-2.12-.62-3.26-.3-1.5-.64-3.1-1-4.74a40.09,40.09,0,0,0,4.35-2c1.63,1.76,5.8,3.82,6.34,4.09-.57,1.39-1.14,2.74-1.69,4-.29.67-.58,1.31-.86,1.94h2.1c.16-.4.33-.79.5-1.21.58-1.41,1.17-2.93,1.77-4.5.6.12,5.49,1.11,7.77.6,2.07-.47,4.58-1.64,5.5-3.68a3.77,3.77,0,0,0-2.07-5.21c-3-1-7.62,2.42-9.31,4.7-.1.14-1,1.72-1.57,2.73.24-.65.48-1.27.72-1.93.48-1.31.92-2.64,1.4-4.06q.32-1,.63-2.1c.22-.7.37-1.47.56-2.21.42-1.72.75-3.48,1-5.27,1.15.42,5.25,1.85,7.38,1.7s4.77-.93,6-2.81a3.75,3.75,0,0,0-1.26-5.45c-2.83-1.46-7.89,1.23-9.91,3.23-.12.12-1.41,1.72-2.09,2.62.17-1.08.34-2.15.47-3.24.4-3.16.69-6.36,1-9.55.09-1,.2-2,.3-2.93.41.15,5.25,1.95,7.63,1.78,2.11-.14,4.77-.92,6-2.8a3.76,3.76,0,0,0-1.26-5.46c-2.83-1.46-7.89,1.23-9.91,3.23-.15.15-2,2.46-2.43,3.07.23-2.15.47-4.29.8-6.39a67.56,67.56,0,0,1,1.83-8.4c.19.08,5.24,2,7.67,1.81,2.12-.15,4.78-.93,6-2.81a3.77,3.77,0,0,0-1.26-5.46c-2.83-1.45-7.9,1.23-9.91,3.24-.16.15-2.14,2.63-2.47,3.11.05-.16.08-.33.13-.49a48.37,48.37,0,0,1,3.33-8c.72-1.41,1.49-2.72,2.27-4,.9.45,5.05,2.46,7.26,2.55s4.85-.4,6.27-2.13a3.76,3.76,0,0,0-.66-5.56c-2.65-1.76-8,.35-10.2,2.12-.12.1-1.24,1.21-2,2,.36-.57.72-1.16,1.07-1.69,1.33-2,2.68-3.76,3.88-5.3.69-.87,1.33-1.64,1.94-2.36,1.11,0,5.61-.16,7.58-1.08s4.12-2.59,4.58-4.78a3.78,3.78,0,0,0-3.15-4.64c-3.16-.34-6.92,4-8.07,6.59-.1.23-1.26,3.91-1.2,3.91h.06c-.59.68-1.23,1.41-1.9,2.23-1.24,1.52-2.62,3.25-4,5.23a66.8,66.8,0,0,0-4.15,6.61,49.52,49.52,0,0,0-3.54,8l0,.11c0-.94,0-3.54-.05-3.74-.37-2.82-2.73-8.05-5.86-8.62a3.76,3.76,0,0,0-4.34,3.54c-.18,2.23,1.44,4.47,3,5.89,1.79,1.59,6.74,3.13,7.14,3.25a66,66,0,0,0-2.1,8.64c-.3,1.71-.55,3.43-.79,5.16,0-.81,0-1.53,0-1.63-.36-2.81-2.72-8-5.85-8.62a3.76,3.76,0,0,0-4.34,3.54c-.18,2.24,1.44,4.48,3,5.89s5.8,2.84,6.92,3.19c-.09.67-.17,1.33-.25,2-.39,3.2-.75,6.38-1.21,9.5-.16,1.1-.36,2.17-.55,3.25,0-.72,0-1.32,0-1.41-.36-2.82-2.72-8.05-5.85-8.62a3.76,3.76,0,0,0-4.34,3.54c-.19,2.23,1.44,4.47,3,5.89s5.39,2.69,6.72,3.12c-.24,1.1-.47,2.2-.74,3.25-.21.71-.35,1.41-.6,2.12s-.45,1.4-.67,2.09c-.48,1.31-1,2.67-1.46,3.94-.34.89-.68,1.72-1,2.57.17-1.09.46-3.24.47-3.42a14.72,14.72,0,0,0-2-7.11,4.64,4.64,0,0,0-.06-.83,3.75,3.75,0,0,0-4.6-3.19c-3.07.82-5,6.21-5.17,9,0,.16.1,2,.19,3.14-.15-.67-.29-1.32-.46-2-.32-1.36-.69-2.71-1.07-4.16-.21-.7-.42-1.4-.64-2.11s-.49-1.42-.74-2.14c-.61-1.67-1.3-3.32-2-5,1.19-.29,5.4-1.36,7.09-2.66s3.47-3.4,3.45-5.65a3.76,3.76,0,0,0-4.07-3.85c-3.16.34-5.9,5.38-6.48,8.16,0,.17-.22,2.22-.3,3.34-.45-1-.9-2-1.39-3-1.41-2.85-2.93-5.69-4.43-8.52-.46-.87-.91-1.74-1.36-2.61.42-.1,5.45-1.27,7.35-2.72,1.68-1.29,3.46-3.4,3.45-5.65a3.76,3.76,0,0,0-4.07-3.85c-3.16.34-5.9,5.38-6.48,8.16,0,.21-.31,3.15-.34,3.9-1-1.92-2-3.84-2.85-5.77a66.57,66.57,0,0,1-3.11-8c.2,0,5.46-1.24,7.4-2.73,1.68-1.29,3.47-3.4,3.45-5.64a3.78,3.78,0,0,0-4.07-3.86c-3.16.35-5.9,5.38-6.47,8.16-.05.22-.33,3.39-.34,4,0-.16-.12-.32-.17-.48a48.16,48.16,0,0,1-1.61-8.46c-.18-1.58-.26-3.1-.3-4.58,1-.12,5.57-.73,7.47-1.88s3.82-3,4-5.23a3.77,3.77,0,0,0-3.62-4.28c-3.18,0-6.46,4.7-7.34,7.4,0,.15-.36,1.7-.58,2.83,0-.67,0-1.36,0-2,0-2.41.16-4.61.31-6.56.09-1.11.2-2.11.31-3,.92-.63,4.6-3.23,5.73-5.09s2-4.42,1.18-6.51a3.77,3.77,0,0,0-5.18-2.13c-2.82,1.46-3.57,7.15-3.1,10,0,.24,1.11,4,1.16,3.92l.05,0c-.12.89-.25,1.86-.36,2.91-.19,2-.39,4.16-.45,6.57a67.31,67.31,0,0,0,.19,7.8,48.27,48.27,0,0,0,1.44,8.6l0,.1c-.5-.78-2-2.93-2.1-3.09-1.86-2.14-6.71-5.2-9.64-4a3.77,3.77,0,0,0-1.67,5.35C325.25,406.12,327.84,407.09,329.94,407.4Z" style="fill: rgb(38, 50, 56); transform-origin: 364.09px 412.255px;" id="elxyi3mjfmy1" class="animable"></path><path d="M384.48,392.45s1-3.71,1-3.95c.39-2.81-.51-8.48-3.37-9.86a3.76,3.76,0,0,0-5.12,2.27c-.77,2.11.2,4.69,1.36,6.48C379.75,389.48,384.48,392.45,384.48,392.45Z" style="fill: rgb(38, 50, 56); transform-origin: 381.14px 385.379px;" id="elk3z99z3i7pd" class="animable"></path></g><g id="freepik--Heart--inject-825" class="animable" style="transform-origin: 421.583px 341.437px;"><path d="M438.32,341.79l-2.27,2.29-14.46,14.46-14.47-14.46-2.28-2.29a10.22,10.22,0,0,1,14.46-14.46l2.29,2.29,2.28-2.29a10.22,10.22,0,1,1,14.45,14.46Z" style="fill: none; stroke: rgb(38, 50, 56); stroke-linecap: round; stroke-linejoin: round; transform-origin: 421.583px 341.437px;" id="ela42s0ywqog8" class="animable"></path></g><g id="freepik--Stars--inject-825" class="animable animator-active" style="transform-origin: 114.02px 376.35px;"><polygon points="70.95 367.74 73.09 374.31 80.01 374.31 74.41 378.38 76.55 384.96 70.95 380.89 65.36 384.96 67.5 378.38 61.9 374.31 68.82 374.31 70.95 367.74" style="fill: none; stroke: rgb(38, 50, 56); stroke-linecap: round; stroke-linejoin: round; transform-origin: 70.955px 376.35px;" id="eldown883g4oa" class="animable"></polygon><polygon points="92.49 367.74 94.63 374.31 101.54 374.31 95.95 378.38 98.08 384.96 92.49 380.89 86.89 384.96 89.03 378.38 83.44 374.31 90.35 374.31 92.49 367.74" style="fill: none; stroke: rgb(38, 50, 56); stroke-linecap: round; stroke-linejoin: round; transform-origin: 92.49px 376.35px;" id="el0dsx0665dsd9" class="animable"></polygon><polygon points="114.02 367.74 116.16 374.31 123.07 374.31 117.48 378.38 119.62 384.96 114.02 380.89 108.43 384.96 110.56 378.38 104.97 374.31 111.88 374.31 114.02 367.74" style="fill: none; stroke: rgb(38, 50, 56); stroke-linecap: round; stroke-linejoin: round; transform-origin: 114.02px 376.35px;" id="elqkgj22u4zp" class="animable"></polygon><polygon points="135.56 367.74 137.69 374.31 144.61 374.31 139.01 378.38 141.15 384.96 135.56 380.89 129.96 384.96 132.1 378.38 126.5 374.31 133.42 374.31 135.56 367.74" style="fill: none; stroke: rgb(38, 50, 56); stroke-linecap: round; stroke-linejoin: round; transform-origin: 135.555px 376.35px;" id="el0givp9sokbl" class="animable"></polygon><polygon points="157.09 367.74 159.22 374.31 166.14 374.31 160.55 378.38 162.68 384.96 157.09 380.89 151.49 384.96 153.63 378.38 148.03 374.31 154.95 374.31 157.09 367.74" style="fill: none; stroke: rgb(38, 50, 56); stroke-linecap: round; stroke-linejoin: round; transform-origin: 157.085px 376.35px;" id="elodaqsbpqjla" class="animable"></polygon></g><g id="freepik--device-2--inject-825" class="animable" style="transform-origin: 400.505px 98.98px;"><path d="M365,70.27h71a4.4,4.4,0,0,1,4.4,4.4v48.1a0,0,0,0,1,0,0H360.62a0,0,0,0,1,0,0V74.67A4.4,4.4,0,0,1,365,70.27Z" style="fill: none; stroke: rgb(38, 50, 56); stroke-linecap: round; stroke-linejoin: round; transform-origin: 400.51px 96.52px;" id="elkshdq619oyr" class="animable"></path><path d="M367.39,72.09h66.24a4,4,0,0,1,4,4v44.86a0,0,0,0,1,0,0H363.39a0,0,0,0,1,0,0V76.09A4,4,0,0,1,367.39,72.09Z" style="fill: none; stroke: rgb(38, 50, 56); stroke-linecap: round; stroke-linejoin: round; transform-origin: 400.51px 96.52px;" id="el1v3i49mfbjw" class="animable"></path><path d="M355.47,122.91h90.07a4.78,4.78,0,0,1-4.77,4.78H360.25a4.78,4.78,0,0,1-4.78-4.78Z" style="fill: none; stroke: rgb(38, 50, 56); stroke-linecap: round; stroke-linejoin: round; transform-origin: 400.505px 125.3px;" id="elf995nezy57t" class="animable"></path></g><g id="freepik--device-1--inject-825" class="animable animator-hidden" style="transform-origin: 90.95px 95.775px;"><rect x="72.3" y="58.48" width="37.3" height="74.59" rx="4.34" style="fill: none; stroke: rgb(38, 50, 56); stroke-linecap: round; stroke-linejoin: round; transform-origin: 90.95px 95.775px;" id="elw8n28tc5wn" class="animable"></rect><path d="M72.3,123.91v4.15c0,2.77,1.85,5,4.14,5h29c2.29,0,4.14-2.24,4.14-5v-4.15Z" style="fill: none; stroke: rgb(38, 50, 56); stroke-linecap: round; stroke-linejoin: round; transform-origin: 90.94px 128.485px;" id="el6vl28wiykga" class="animable"></path><path d="M109.59,67.64V63.49c0-2.77-1.85-5-4.14-5h-29c-2.29,0-4.14,2.24-4.14,5v4.15Z" style="fill: none; stroke: rgb(38, 50, 56); stroke-linecap: round; stroke-linejoin: round; transform-origin: 90.95px 63.065px;" id="el1s0jqq6ctws" class="animable"></path></g><g id="freepik--speech-bubble-6--inject-825" class="animable" style="transform-origin: 356.905px 271.196px;"><path d="M330.5,298.57V257a5.15,5.15,0,0,1,5.31-5h6.39l-.83-13.22L352.22,252H378a5.15,5.15,0,0,1,5.31,5v41.61a5.15,5.15,0,0,1-5.31,5H335.81A5.15,5.15,0,0,1,330.5,298.57Z" style="fill: rgb(38, 50, 56); stroke: rgb(38, 50, 56); stroke-linecap: round; stroke-linejoin: round; transform-origin: 356.905px 271.196px;" id="elzzc7dx4b15n" class="animable"></path><path d="M346.79,271.75s7.8-1,9.51-1.71,4.63-2.68,3.65-7.8,1-4.63,2.93-3.9,3.41,4.63,3.17,6.58a21.08,21.08,0,0,0,.24,4.88s9,.73,9.75,1,1,2.68,1,3.9,0,3.17-1,3.66-2.68,1.22-2.68,1.22-1.22,7.31-1.46,9,0,3.17-1.95,3.9a9.22,9.22,0,0,1-5.12.25c-1.71-.25-18.77-1.71-18.77-1.71Z" style="fill: rgb(255, 255, 255); stroke: rgb(38, 50, 56); stroke-linecap: round; stroke-linejoin: round; transform-origin: 361.55px 275.434px;" id="elt6wwsr55dwl" class="animable"></path><rect x="335.09" y="269.55" width="14.38" height="25.11" style="fill: rgb(249, 135, 0); stroke: rgb(38, 50, 56); stroke-linecap: round; stroke-linejoin: round; transform-origin: 342.28px 282.105px;" id="elu5bvu5mkcan" class="animable"></rect></g><g id="freepik--speech-bubble-5--inject-825" class="animable" style="transform-origin: 370.76px 184.985px;"><path d="M403.12,162.36H351.63a5,5,0,0,0-5,5v8.81l-13.23-.78,13.23,10.14v10.08a5,5,0,0,0,5,5h51.49a5,5,0,0,0,5-5V167.32A5,5,0,0,0,403.12,162.36Z" style="fill: rgb(255, 255, 255); stroke: rgb(38, 50, 56); stroke-linecap: round; stroke-linejoin: round; transform-origin: 370.76px 181.485px;" id="elsh214aok9jl" class="animable"></path><polygon points="368.84 189.44 366.65 212.1 377.37 203.33 387.86 211.62 383.95 188.22 368.84 189.44" style="fill: rgb(38, 50, 56); stroke: rgb(38, 50, 56); stroke-linecap: round; stroke-linejoin: round; transform-origin: 377.255px 200.16px;" id="els7119fxfkb" class="animable"></polygon><path d="M392,175.68c0-1.81,1.66-3.87,1.13-5.5s-3.12-2.38-4.15-3.79-.9-4.08-2.32-5.12-3.89-.08-5.59-.63-3.07-2.77-4.89-2.77-3.25,2.24-4.89,2.77-4.17-.4-5.58.63-1.29,3.69-2.33,5.12-3.6,2.09-4.15,3.79,1.13,3.69,1.13,5.5-1.66,3.87-1.13,5.51,3.13,2.38,4.15,3.79.9,4.08,2.33,5.12,3.89.08,5.58.63,3.08,2.77,4.89,2.77,3.25-2.24,4.89-2.77,4.17.4,5.59-.63,1.28-3.69,2.32-5.12,3.6-2.09,4.15-3.79S392,177.5,392,175.68Z" style="fill: rgb(249, 135, 0); stroke: rgb(38, 50, 56); stroke-linecap: round; stroke-linejoin: round; transform-origin: 376.18px 175.685px;" id="el3z8r7ffk87t" class="animable"></path><g id="elq5dtc1xnnq"><circle cx="376.13" cy="175.68" r="13.95" style="fill: rgb(255, 255, 255); stroke: rgb(38, 50, 56); stroke-linecap: round; stroke-linejoin: round; transform-origin: 376.13px 175.68px; transform: rotate(-8.56deg);" class="animable"></circle></g><path d="M375.37,183.87V170.64l-.51.24-.6.26-.62.26-.54.24V169.1l.63-.34c.28-.14.57-.3.89-.48s.6-.36.88-.54a4.12,4.12,0,0,0,.61-.49h2.69v16.62Z" style="fill: rgb(38, 50, 56); transform-origin: 375.95px 175.56px;" id="elsc9a63yrab" class="animable"></path></g><g id="freepik--speech-bubble-4--inject-825" class="animable animator-hidden" style="transform-origin: 311.425px 70.995px;"><path d="M337.17,49.33H285.68a5,5,0,0,0-5,5V76.66a5,5,0,0,0,5,5h3.22l-4.19,11,11.66-11h40.8a5,5,0,0,0,5-5V54.29A5,5,0,0,0,337.17,49.33Z" style="fill: rgb(255, 255, 255); stroke: rgb(38, 50, 56); stroke-linecap: round; stroke-linejoin: round; transform-origin: 311.425px 70.995px;" id="ellsjed69mmy9" class="animable"></path><circle cx="300.63" cy="65.86" r="2.01" style="fill: rgb(38, 50, 56); transform-origin: 300.63px 65.86px;" id="el0dv14jrananv" class="animable"></circle><circle cx="310.67" cy="65.86" r="2.01" style="fill: rgb(38, 50, 56); transform-origin: 310.67px 65.86px;" id="elrl7z3bo11hf" class="animable"></circle><circle cx="320.71" cy="65.86" r="2.01" style="fill: rgb(38, 50, 56); transform-origin: 320.71px 65.86px;" id="elalk28s4eij6" class="animable"></circle></g><g id="freepik--speech-bubble-3--inject-825" class="animable" style="transform-origin: 168.725px 103.965px;"><path d="M209.45,108.59,199,102.69V91.07a5,5,0,0,0-5-5h-61a5,5,0,0,0-5,5v25.79a5,5,0,0,0,5,5h61a5,5,0,0,0,5-5V109.5Z" style="fill: rgb(38, 50, 56); stroke: rgb(38, 50, 56); stroke-linecap: round; stroke-linejoin: round; transform-origin: 168.725px 103.965px;" id="eld75yxepadjl" class="animable"></path><polygon points="138.95 98.47 140.19 102.28 144.18 102.28 140.95 104.62 142.18 108.42 138.95 106.08 135.72 108.42 136.95 104.62 133.72 102.28 137.72 102.28 138.95 98.47" style="fill: rgb(255, 255, 255); transform-origin: 138.95px 103.445px;" id="el6hidru9x852" class="animable"></polygon><polygon points="151.39 98.47 152.63 102.28 156.62 102.28 153.39 104.62 154.63 108.42 151.39 106.08 148.16 108.42 149.4 104.62 146.16 102.28 150.16 102.28 151.39 98.47" style="fill: rgb(255, 255, 255); transform-origin: 151.39px 103.445px;" id="el2875ixcqjhg" class="animable"></polygon><polygon points="163.84 98.47 165.07 102.28 169.07 102.28 165.83 104.62 167.07 108.42 163.84 106.08 160.6 108.42 161.84 104.62 158.6 102.28 162.6 102.28 163.84 98.47" style="fill: rgb(255, 255, 255); transform-origin: 163.835px 103.445px;" id="el8u9p8x99462" class="animable"></polygon><polygon points="176.28 98.47 177.51 102.28 181.51 102.28 178.28 104.62 179.51 108.42 176.28 106.08 173.04 108.42 174.28 104.62 171.05 102.28 175.04 102.28 176.28 98.47" style="fill: rgb(255, 255, 255); transform-origin: 176.28px 103.445px;" id="elhjltap24iwo" class="animable"></polygon><polygon points="188.72 98.47 189.96 102.28 193.95 102.28 190.72 104.62 191.95 108.42 188.72 106.08 185.49 108.42 186.72 104.62 183.49 102.28 187.49 102.28 188.72 98.47" style="fill: rgb(255, 255, 255); transform-origin: 188.72px 103.445px;" id="eljy00omluar" class="animable"></polygon></g><g id="freepik--speech-bubble-2--inject-825" class="animable" style="transform-origin: 110.965px 192.755px;"><path d="M143,189.85H127.39v-8.28a5,5,0,0,0-5-5H83.93a5,5,0,0,0-5,5v22.37a5,5,0,0,0,5,5h38.5a5,5,0,0,0,5-5v-7.13Z" style="fill: rgb(255, 255, 255); stroke: rgb(38, 50, 56); stroke-linecap: round; stroke-linejoin: round; transform-origin: 110.965px 192.755px;" id="elup44m0bmyme" class="animable"></path><path d="M113.34,193.84l-1.52,1.53-9.6,9.61-9.62-9.61-1.52-1.53a6.79,6.79,0,0,1,9.61-9.6l1.53,1.52,1.51-1.52a6.79,6.79,0,0,1,9.61,9.6Z" style="fill: rgb(249, 135, 0); stroke: rgb(38, 50, 56); stroke-linecap: round; stroke-linejoin: round; transform-origin: 102.21px 193.616px;" id="elmbb4z6n4joa" class="animable"></path></g><g id="freepik--speech-bubble-1--inject-825" class="animable" style="transform-origin: 137.648px 282.16px;"><path d="M102.22,246.4h55.94a5.93,5.93,0,0,1,5.73,6.13V257l14.92-6.19-14.92,17.77v43.21a5.94,5.94,0,0,1-5.73,6.13H102.22a5.94,5.94,0,0,1-5.73-6.13V252.53A5.93,5.93,0,0,1,102.22,246.4Z" style="fill: rgb(255, 255, 255); stroke: rgb(38, 50, 56); stroke-linecap: round; stroke-linejoin: round; transform-origin: 137.648px 282.16px;" id="el3rnecung8hr" class="animable"></path><circle cx="126.12" cy="272.23" r="18.53" style="fill: rgb(38, 50, 56); stroke: rgb(38, 50, 56); stroke-linecap: round; stroke-linejoin: round; transform-origin: 126.12px 272.23px;" id="elp4xy0uej4a" class="animable"></circle><path d="M125.8,286.19v-2.7a5.51,5.51,0,0,1-4.2-1.81,8.26,8.26,0,0,1-1.51-5.15l4.16-.62a11,11,0,0,0,.24,2.28,2.48,2.48,0,0,0,.64,1.25,1.44,1.44,0,0,0,1,.38,1,1,0,0,0,1-.51,2.57,2.57,0,0,0,.23-1.09,4,4,0,0,0-.63-2.3A9.78,9.78,0,0,0,125,274l-1.93-1.66a16.14,16.14,0,0,1-1.48-1.51,6.17,6.17,0,0,1-1.07-1.79,6.39,6.39,0,0,1-.41-2.44,5.44,5.44,0,0,1,1.48-4.05,6.11,6.11,0,0,1,4-1.66v-2.58h1.39v2.55a5,5,0,0,1,2.53.73,4.2,4.2,0,0,1,1.43,1.57,7.26,7.26,0,0,1,.65,2,12.78,12.78,0,0,1,.2,1.94l-4.21.52q0-1-.12-1.71a2.54,2.54,0,0,0-.38-1.13,1,1,0,0,0-.92-.37,1.08,1.08,0,0,0-1,.57,2.26,2.26,0,0,0-.33,1.14,3.16,3.16,0,0,0,.67,2.11,13.78,13.78,0,0,0,1.45,1.51l1.85,1.6a16.88,16.88,0,0,1,1.7,1.8,7.87,7.87,0,0,1,1.24,2.12,7.26,7.26,0,0,1,.46,2.69,5.82,5.82,0,0,1-.6,2.64,5,5,0,0,1-1.71,1.95,5.89,5.89,0,0,1-2.66.91v2.72Z" style="fill: rgb(255, 255, 255); transform-origin: 126.141px 272.25px;" id="elwkwu530eodq" class="animable"></path><path d="M159.49,272.72,147,277l3.44,3-17.5,20-10.54-5.81a2,2,0,0,0-2.18.17L103.68,307a2,2,0,0,0,2.43,3.18l15.53-11.88,10.8,5.95a2,2,0,0,0,2.47-.43l18.57-21.17,3.44,3Z" style="fill: rgb(249, 135, 0); stroke: rgb(38, 50, 56); stroke-linecap: round; stroke-linejoin: round; transform-origin: 131.192px 291.656px;" id="el8x2rlyjdf4p" class="animable"></path></g><g id="freepik--Character--inject-825" class="animable" style="transform-origin: 231.899px 273.151px;"><path d="M212.36,281.55s4.35,83,6.53,99.82,6.53,41.36,6.53,41.36-3.11,2.18-3.73,4.36.31,10.26.31,10.26l22.7,1.55s.93-5.59.93-18.35v-19c0-2.48,3.74-108.84,3.74-108.84l2.79,109.16s-.93,33.89.63,34.51a27.28,27.28,0,0,1,4.35,2.8l19.9-.62a65.18,65.18,0,0,0,1.56-11.19c0-4.36-2.8-12.75-2.49-17.42s8.4-42.6,8.4-49.13V259.15H213Z" style="fill: rgb(38, 50, 56); stroke: rgb(38, 50, 56); stroke-linecap: round; stroke-linejoin: round; transform-origin: 248.435px 349.165px;" id="elxdgyv75iv3h" class="animable"></path><path d="M242.52,437.35s-8.39-7.15-12.12-6.53-7.16,2.8-7.47,3.73-2.49,2.8-3.11,4.66-10.57,11.2-12.75,13.69-3.73,2.8-1.86,4.35a9,9,0,0,0,4,1.87H244.7s1.25-2.8.93-8.4-.93-11.82-.93-11.82Z" style="fill: rgb(255, 255, 255); stroke: rgb(38, 50, 56); stroke-linecap: round; stroke-linejoin: round; transform-origin: 225.028px 444.951px;" id="el8r9q0v2hrdh" class="animable"></path><path d="M204.38,456c0,.36.22.73.83,1.24a9,9,0,0,0,4,1.87H244.7a12.85,12.85,0,0,0,.75-3.11Z" style="fill: rgb(255, 255, 255); stroke: rgb(38, 50, 56); stroke-linecap: round; stroke-linejoin: round; transform-origin: 224.915px 457.555px;" id="elo1y42nwmdt" class="animable"></path><path d="M257.27,437.35s7.91-7.15,11.43-6.53,6.74,2.8,7,3.73,2.34,2.8,2.93,4.66,10,11.2,12,13.69,3.52,2.8,1.76,4.35a8.23,8.23,0,0,1-3.81,1.87h-33.4s-1.17-2.8-.88-8.4.88-11.82.88-11.82Z" style="fill: rgb(255, 255, 255); stroke: rgb(38, 50, 56); stroke-linecap: round; stroke-linejoin: round; transform-origin: 273.709px 444.951px;" id="elkzal19gbkvj" class="animable"></path><path d="M293.21,456c0,.36-.21.73-.78,1.24a8.23,8.23,0,0,1-3.81,1.87h-33.4a13.8,13.8,0,0,1-.71-3.11Z" style="fill: rgb(255, 255, 255); stroke: rgb(38, 50, 56); stroke-linecap: round; stroke-linejoin: round; transform-origin: 273.86px 457.555px;" id="el78s073mje56" class="animable"></path><path d="M238.57,147.67l-9,7.64,1.62,105.56h38.89s1.85-107.88,1.16-109.5-4.86-3.24-4.86-3.24Z" style="fill: rgb(255, 255, 255); stroke: rgb(38, 50, 56); stroke-linecap: round; stroke-linejoin: round; transform-origin: 250.482px 204.27px;" id="el0vshzvhur1v" class="animable"></path><path d="M304.53,193.66,320,197.94s-15.67-28.74-18.52-35.63c-2.23-5.38-5-7-6.15-7.43-5.93-3.83-28.94-6.75-28.94-6.75l-1.8,52.71-2.75,87.48h32.73s-2.76-30.89-4.28-40.68l-2.15-13.77s2.65-21,5-41.11Z" style="fill: rgb(249, 135, 0); stroke: rgb(38, 50, 56); stroke-linecap: round; stroke-linejoin: round; transform-origin: 290.92px 218.225px;" id="el0v2h1ypzs98" class="animable"></path><path d="M270,214.44a42.42,42.42,0,0,1-3.8,7.58" style="fill: none; stroke: rgb(38, 50, 56); stroke-linecap: round; stroke-linejoin: round; transform-origin: 268.1px 218.23px;" id="ellq88xe2e17" class="animable"></path><path d="M271.21,151.37l5.44,12.11-4.47,4.85,7.08,8.57s-2.76,18.67-7.63,33.13" style="fill: none; stroke: rgb(38, 50, 56); stroke-linecap: round; stroke-linejoin: round; transform-origin: 275.235px 180.7px;" id="elllt6r2lfd3g" class="animable"></path><path d="M235.91,122.07s-2.91-4-5-1.13,5.82,12.78,5.82,12.78Z" style="fill: rgb(255, 255, 255); stroke: rgb(38, 50, 56); stroke-linecap: round; stroke-linejoin: round; transform-origin: 233.644px 126.812px;" id="elo110khjw0p8" class="animable"></path><path d="M269.56,122.07s2.91-4,5-1.13-5.82,12.78-5.82,12.78Z" style="fill: rgb(255, 255, 255); stroke: rgb(38, 50, 56); stroke-linecap: round; stroke-linejoin: round; transform-origin: 271.826px 126.812px;" id="elhh66qnexolf" class="animable"></path><path d="M235.26,119.81s1.78,18.6,2.11,21.84,1.45,10.19,2.75,12.61,10.19,11.49,12.61,10.52,10.84-9.71,13.11-12.3,1.45-7.28,1.78-8.41,1.61-12.29,1.61-12.29L270,120s.33-1.13-.16-8.41-.48-10.52-1.29-12.3-2.91-2.75-6.64-3.72-12.61-.8-18.11,1.95-8.25,6.63-8.41,8.08S235.26,119.81,235.26,119.81Z" style="fill: rgb(255, 255, 255); stroke: rgb(38, 50, 56); stroke-linecap: round; stroke-linejoin: round; transform-origin: 252.683px 129.942px;" id="elykyutzpqac" class="animable"></path><path d="M250.15,114.47s-5-3.24-7.77,1" style="fill: none; stroke: rgb(38, 50, 56); stroke-linecap: round; stroke-linejoin: round; transform-origin: 246.265px 114.378px;" id="el90k2rticzov" class="animable"></path><path d="M257.1,114.79a5.55,5.55,0,0,1,6.8.81" style="fill: none; stroke: rgb(38, 50, 56); stroke-linecap: round; stroke-linejoin: round; transform-origin: 260.5px 114.791px;" id="elfqv0614e46u" class="animable"></path><path d="M255.65,116.41a8.23,8.23,0,0,1,1,4c.16,2.91-.33,8.89-.33,8.89l-6.14-.65" style="fill: none; stroke: rgb(38, 50, 56); stroke-linecap: round; stroke-linejoin: round; transform-origin: 253.431px 122.855px;" id="el8cfcrajh2xk" class="animable"></path><path d="M246.91,130.81s3.07,5,10.84,2.42" style="fill: none; stroke: rgb(38, 50, 56); stroke-linecap: round; stroke-linejoin: round; transform-origin: 252.33px 132.39px;" id="elirriqxgiri" class="animable"></path><path d="M247.88,119.24c0,.94-.43,1.7-1,1.7s-1-.76-1-1.7.44-1.7,1-1.7S247.88,118.3,247.88,119.24Z" style="fill: rgb(38, 50, 56); transform-origin: 246.88px 119.24px;" id="elaxusp7jj9hm" class="animable"></path><path d="M261.63,119.24c0,.94-.43,1.7-1,1.7s-1-.76-1-1.7.43-1.7,1-1.7S261.63,118.3,261.63,119.24Z" style="fill: rgb(38, 50, 56); transform-origin: 260.63px 119.24px;" id="eltr5yrvt84z" class="animable"></path><path d="M249.18,121.43a11,11,0,0,1-4.53,2.58" style="fill: none; stroke: rgb(38, 50, 56); stroke-linecap: round; stroke-linejoin: round; transform-origin: 246.915px 122.72px;" id="elxqep82bouho" class="animable"></path><path d="M258.72,121.43s1.94,2.26,4.21,2.58" style="fill: none; stroke: rgb(38, 50, 56); stroke-linecap: round; stroke-linejoin: round; transform-origin: 260.825px 122.72px;" id="eli32mn0u3wwh" class="animable"></path><path d="M247.07,146.34s3.08,3.72,11.65.16" style="fill: none; stroke: rgb(38, 50, 56); stroke-linecap: round; stroke-linejoin: round; transform-origin: 252.895px 147.191px;" id="el8nt21ilgyd" class="animable"></path><path d="M233.49,104.6s.48,16.34,1,16.66,1.94.65,2.26-.48a32.47,32.47,0,0,0,.16-5.34s1.62-.16,1.94-2.75-1.13-7.12-1.13-7.12,5.82-4.2,11.32-5.82,8.42.81,11.81,1a8,8,0,0,0,5.5-1.78s-1.62,2.43-1.62,3.56,2.11,7.12,1.78,8.9-.64,3.72.33,4.36,2.1,1.46,2.1,1.46,0,4.37.65,4.69,1.78-1.45,1.94-3.88.16-8.25,1-10,2.1-3.07,1.13-5.66-4.37-4.85-4.85-5-6.63-8.08-14.56-10-20.54,9.39-21.84,12.95S233.49,104.6,233.49,104.6Z" style="fill: rgb(38, 50, 56); stroke: rgb(38, 50, 56); stroke-linecap: round; stroke-linejoin: round; transform-origin: 253.016px 104.58px;" id="eltpd2ejzver" class="animable"></path><path d="M162.11,162a49.45,49.45,0,0,1-2.23-7c-.35-2.23-3.1-5.84-5.84-6.87a20.16,20.16,0,0,1-7.73-5.33c-2.41-2.57-3.78-3.43-4.13-.86s1.38,3.78,3.1,5.33,3.43,2.92,3.43,2.92a21.26,21.26,0,0,1-5.32,1,34,34,0,0,1-9.45-.86c-2.58-.69-11.51-7.21-10.65-4.64s5.15,5.84,8.59,9.11,5.67,5,9.62,6.18,10.3,2.75,10.3,2.75l3.61,4.81Z" style="fill: rgb(255, 255, 255); stroke: rgb(38, 50, 56); stroke-linecap: round; stroke-linejoin: round; transform-origin: 142.671px 154.465px;" id="elkmjp3kgrqx" class="animable"></path><path d="M135.49,157.37s-5.5-4.12-6.36-8.76-.51-6.35.69-5.67,4.12,7.39,4.12,7.39l5.15,5.67" style="fill: rgb(255, 255, 255); stroke: rgb(38, 50, 56); stroke-linecap: round; stroke-linejoin: round; transform-origin: 133.872px 150.083px;" id="eln1nv49vri7i" class="animable"></path><path d="M140.12,159.61s-5.15-3.1-5.66-6.19-1.72-12.19-.52-11.51,3.61,10.31,3.61,10.31l2.92,2.58" style="fill: rgb(255, 255, 255); stroke: rgb(38, 50, 56); stroke-linecap: round; stroke-linejoin: round; transform-origin: 136.948px 150.742px;" id="el2ym4o4f2n46" class="animable"></path><path d="M143,159.78s-3.09-6-3.78-7.9-2.23-9.79-.68-9.45,2.92,8.24,2.92,8.24l3.95,5s5.49-1.72,7-1.38,3.44,3.44,3.44,3.44" style="fill: rgb(255, 255, 255); stroke: rgb(38, 50, 56); stroke-linecap: round; stroke-linejoin: round; transform-origin: 146.861px 151.1px;" id="elrzp19kperjp" class="animable"></path><polygon points="166.19 164.73 162.08 160.92 151.93 171.51 154.91 175.42 166.19 164.73" style="fill: rgb(255, 255, 255); stroke: rgb(38, 50, 56); stroke-linecap: round; stroke-linejoin: round; transform-origin: 159.06px 168.17px;" id="el6tpgxna70kw" class="animable"></polygon><path d="M238.57,147.67s-3.48,27.54-3.94,43.29,1.16,98.39,1.16,98.39L205,288.42s3.47-29.17,6-39.82a93.18,93.18,0,0,0,1.85-25c-.23-1.39-1.85-14.12-1.85-14.12s-17.37,11.57-19.45,11.34-14.12-9-23.38-20.6a99.64,99.64,0,0,1-14.12-25L165,162.71l25.93,25.93s13.42-27.08,14.81-27.78S238.57,147.67,238.57,147.67Z" style="fill: rgb(249, 135, 0); stroke: rgb(38, 50, 56); stroke-linecap: round; stroke-linejoin: round; transform-origin: 196.31px 218.51px;" id="el84hv403fytr" class="animable"></path><path d="M225.78,195.27A167.72,167.72,0,0,0,233,221.64" style="fill: none; stroke: rgb(38, 50, 56); stroke-linecap: round; stroke-linejoin: round; transform-origin: 229.39px 208.455px;" id="el99g028bvefm" class="animable"></path><path d="M232.66,152.29l-5.6,14.17,4.48,3.73-7.83,8.2A101.87,101.87,0,0,0,225.05,191" style="fill: none; stroke: rgb(38, 50, 56); stroke-linecap: round; stroke-linejoin: round; transform-origin: 228.185px 171.645px;" id="el44aiubjsc5l" class="animable"></path><path d="M210.32,205.77s-4.63-20.37-6-28.47" style="fill: rgb(255, 255, 255); stroke: rgb(38, 50, 56); stroke-linecap: round; stroke-linejoin: round; transform-origin: 207.32px 191.535px;" id="el5wzn85bvfqw" class="animable"></path><polyline points="238.07 163.4 242.02 174.99 252.74 164.78 261.25 175.78 264.98 165.89" style="fill: rgb(255, 255, 255); stroke: rgb(38, 50, 56); stroke-linecap: round; stroke-linejoin: round; transform-origin: 251.525px 169.59px;" id="el5iud2foybhc" class="animable"></polyline><polygon points="256.86 170.77 252.02 179.41 246.46 170.71 252.74 164.78 256.86 170.77" style="fill: rgb(38, 50, 56); stroke: rgb(38, 50, 56); stroke-linecap: round; stroke-linejoin: round; transform-origin: 251.66px 172.095px;" id="elvhxg9ee9dj" class="animable"></polygon><polygon points="252.02 179.41 241.24 251.59 250.85 259.32 258.35 251.36 252.02 179.41" style="fill: rgb(38, 50, 56); stroke: rgb(38, 50, 56); stroke-linecap: round; stroke-linejoin: round; transform-origin: 249.795px 219.365px;" id="eldx0rvls0285" class="animable"></polygon><g id="el2vdwusfq513"><circle cx="291.54" cy="136.21" r="14.3" style="fill: rgb(255, 255, 255); stroke: rgb(38, 50, 56); stroke-linecap: round; stroke-linejoin: round; transform-origin: 291.54px 136.21px; transform: rotate(-13.37deg);" class="animable"></circle></g><path d="M282.15,154.58s-.49,6.4-.12,7.63,3,6.15,3,6.15-.37,3.45.24,4.56,6.52,8.12,6.52,8.12l7-6.16L294.82,167l-.12-10.21S287,150.16,282.15,154.58Z" style="fill: rgb(255, 255, 255); stroke: rgb(38, 50, 56); stroke-linecap: round; stroke-linejoin: round; transform-origin: 290.341px 167.05px;" id="ele8cujifx7qg" class="animable"></path><path d="M285.63,147.52l2.16,17.75a3.48,3.48,0,0,0,3.84,3h0a3.48,3.48,0,0,0,3.09-3.58l-.62-18.13S288.76,142.55,285.63,147.52Z" style="fill: rgb(255, 255, 255); stroke: rgb(38, 50, 56); stroke-linecap: round; stroke-linejoin: round; transform-origin: 290.176px 156.662px;" id="eloci1s1u0wd" class="animable"></path><path d="M286,151.39s-4.6.55-4.6,2,1.65,8.1,3.12,8.47,2.58.37,2.58-2.58A48.66,48.66,0,0,0,286,151.39Z" style="fill: rgb(255, 255, 255); stroke: rgb(38, 50, 56); stroke-linecap: round; stroke-linejoin: round; transform-origin: 284.25px 156.709px;" id="el23caa7yc05j" class="animable"></path><path d="M296.86,156.36s-10.68.92-10.86,2,.18,3.87.92,3.87,10.3.07,10.49-1S298.15,157.83,296.86,156.36Z" style="fill: rgb(255, 255, 255); stroke: rgb(38, 50, 56); stroke-linecap: round; stroke-linejoin: round; transform-origin: 291.822px 159.295px;" id="el2tqvvbbadrn" class="animable"></path><path d="M296.53,161.54s-9.51.53-9.71,1.51.06,3.44.72,3.46,9.15.34,9.35-.59S297.64,162.88,296.53,161.54Z" style="fill: rgb(255, 255, 255); stroke: rgb(38, 50, 56); stroke-linecap: round; stroke-linejoin: round; transform-origin: 291.979px 164.06px;" id="el0jceang1w8jl" class="animable"></path><path d="M295.23,166.16s-7.88.44-8,1.25.05,2.85.6,2.87,7.57.28,7.73-.49S296.15,167.27,295.23,166.16Z" style="fill: rgb(255, 255, 255); stroke: rgb(38, 50, 56); stroke-linecap: round; stroke-linejoin: round; transform-origin: 291.497px 168.249px;" id="elkdthy7le3i" class="animable"></path><path d="M296.12,151.57s-10.68.92-10.86,2,.18,3.86.92,3.86,10.3.08,10.49-1S297.41,153,296.12,151.57Z" style="fill: rgb(255, 255, 255); stroke: rgb(38, 50, 56); stroke-linecap: round; stroke-linejoin: round; transform-origin: 291.082px 154.501px;" id="elldf4hj7e4er" class="animable"></path><polygon points="298.62 171.38 295.52 169.79 287.11 180.1 290.56 184.7 298.62 171.38" style="fill: rgb(255, 255, 255); stroke: rgb(38, 50, 56); stroke-linecap: round; stroke-linejoin: round; transform-origin: 292.865px 177.245px;" id="elf80dixxhywo" class="animable"></polygon><path d="M298,169.56s-3.06,7.13-5.35,9.68-4.85,4.84-4.85,4.84S298.5,209.31,300,214.15s7.39,8.15,9.94,8.91,8.66-1.27,11-3.82,5.6-10.7,3.82-15.28S298,169.56,298,169.56Z" style="fill: rgb(249, 135, 0); stroke: rgb(38, 50, 56); stroke-linecap: round; stroke-linejoin: round; transform-origin: 306.535px 196.391px;" id="el0nhscakn7r8a" class="animable"></path><g id="elq3enx6kk8bo"><circle cx="309.04" cy="130.13" r="25.87" style="fill: rgb(249, 135, 0); stroke: rgb(38, 50, 56); stroke-linecap: round; stroke-linejoin: round; transform-origin: 309.04px 130.13px; transform: rotate(-14.51deg);" class="animable"></circle></g><g id="elkjkmown5hvq"><circle cx="309.04" cy="130.13" r="21.08" style="fill: rgb(38, 50, 56); stroke: rgb(38, 50, 56); stroke-linecap: round; stroke-linejoin: round; transform-origin: 309.04px 130.13px; transform: rotate(-13.02deg);" class="animable"></circle></g><circle cx="307.01" cy="131.14" r="8.55" style="fill: rgb(255, 255, 255); stroke: rgb(38, 50, 56); stroke-linecap: round; stroke-linejoin: round; transform-origin: 307.01px 131.14px;" id="eltrag0t2vz7p" class="animable"></circle><path d="M313.76,130.13a4.72,4.72,0,1,0-4.72,4.71A4.72,4.72,0,0,0,313.76,130.13Z" style="fill: rgb(249, 135, 0); stroke: rgb(38, 50, 56); stroke-linecap: round; stroke-linejoin: round; transform-origin: 309.04px 130.12px;" id="el56lx5lwltrt" class="animable"></path></g><g id="freepik--Floor--inject-825" class="animable animator-hidden" style="transform-origin: 257.255px 459.12px;"><line x1="455.07" y1="459.12" x2="465.91" y2="459.12" style="fill: none; stroke: rgb(38, 50, 56); stroke-linecap: round; stroke-linejoin: round; transform-origin: 460.49px 459.12px;" id="elz78fd1grdyj" class="animable"></line><line x1="48.6" y1="459.12" x2="447.63" y2="459.12" style="fill: none; stroke: rgb(38, 50, 56); stroke-linecap: round; stroke-linejoin: round; transform-origin: 248.115px 459.12px;" id="eld1u42pbf75" class="animable"></line></g><defs>     <filter id="active" height="200%">         <feMorphology in="SourceAlpha" result="DILATED" operator="dilate" radius="2"></feMorphology>                <feFlood flood-color="#32DFEC" flood-opacity="1" result="PINK"></feFlood>        <feComposite in="PINK" in2="DILATED" operator="in" result="OUTLINE"></feComposite>        <feMerge>            <feMergeNode in="OUTLINE"></feMergeNode>            <feMergeNode in="SourceGraphic"></feMergeNode>        </feMerge>    </filter>    <filter id="hover" height="200%">        <feMorphology in="SourceAlpha" result="DILATED" operator="dilate" radius="2"></feMorphology>                <feFlood flood-color="#ff0000" flood-opacity="0.5" result="PINK"></feFlood>        <feComposite in="PINK" in2="DILATED" operator="in" result="OUTLINE"></feComposite>        <feMerge>            <feMergeNode in="OUTLINE"></feMergeNode>            <feMergeNode in="SourceGraphic"></feMergeNode>        </feMerge>            <feColorMatrix type="matrix" values="0   0   0   0   0                0   1   0   0   0                0   0   0   0   0                0   0   0   1   0 "></feColorMatrix>    </filter></defs></svg>